  0
SECTION
  2
HEADER
999
Modul Version:20.20
  0
ENDSEC
  0
SECTION
  2
TABLES
  0
TABLE
  2
LAYER
 70
 14
  0
LAYER
  2
1
 70
  0
 62
240
  6
CONTINUOUS
  0
LAYER
  2
2
 70
  0
 62
170
  6
CONTINUOUS
  0
LAYER
  2
3
 70
  0
 62
 50
  6
CONTINUOUS
  0
LAYER
  2
4
 70
  0
 62
130
  6
CONTINUOUS
  0
LAYER
  2
5
 70
  0
 62
 84
  6
CONTINUOUS
  0
LAYER
  2
6
 70
  0
 62
 56
  6
CONTINUOUS
  0
LAYER
  2
7
 70
  0
 62
200
  6
CONTINUOUS
  0
LAYER
  2
8
 70
  0
 62
 90
  6
CONTINUOUS
  0
LAYER
  2
9
 70
  0
 62
 30
  6
CONTINUOUS
  0
LAYER
  2
10
 70
  0
 62
 40
  6
CONTINUOUS
  0
LAYER
  2
11
 70
  0
 62
220
  6
CONTINUOUS
  0
LAYER
  2
13
 70
  0
 62
 56
  6
CONTINUOUS
  0
LAYER
  2
14
 70
  0
 62
 95
  6
CONTINUOUS
  0
LAYER
  2
15
 70
  0
 62
  7
  6
CONTINUOUS
  0
ENDTAB
  0
ENDSEC
  0
SECTION
  2
BLOCKS
  0
BLOCK
  8
1
  2
Piece01
 70
  0
 10
   0.00
 20
   0.00
  0
POLYLINE
  8
1
 66
  1
 70
  0
  0
VERTEX
  8
1
 10
   0.00
 20
  60.00
  0
VERTEX
  8
1
 10
   0.00
 20
 120.00
  0
VERTEX
  8
1
 10
  10.00
 20
 120.00
  0
VERTEX
  8
1
 10
  95.20
 20
 120.00
  0
VERTEX
  8
1
 10
 217.82
 20
 120.00
  0
VERTEX
  8
1
 10
 227.82
 20
 120.00
  0
VERTEX
  8
1
 10
 247.83
 20
 120.00
  0
VERTEX
  8
1
 10
 257.83
 20
 120.00
  0
VERTEX
  8
1
 10
 257.83
 20
  60.00
  0
VERTEX
  8
1
 10
   0.00
 20
  60.00
  0
SEQEND
  8
1
  0
TEXT
  8
2
 10
 257.83
 20
  60.00
 40
  10.00
  1
#-1
  0
TEXT
  8
2
 10
 257.83
 20
 120.00
 40
  10.00
  1
#-2
  0
TEXT
  8
3
 10
 227.82
 20
 120.00
 40
  10.00
  1
#-3
  0
TEXT
  8
3
 10
 217.82
 20
 120.00
 40
  10.00
  1
#-4
  0
TEXT
  8
3
 10
  95.20
 20
 120.00
 40
  10.00
  1
#-5
  0
TEXT
  8
2
 10
   0.00
 20
 120.00
 40
  10.00
  1
#-6
  0
TEXT
  8
2
 10
   0.00
 20
  60.00
 40
  10.00
  1
#-7
  0
POINT
  8
3
 10
  10.00
 20
 120.00
  0
POINT
  8
3
 10
  95.20
 20
 120.00
  0
POINT
  8
3
 10
 217.82
 20
 120.00
  0
POINT
  8
3
 10
 227.82
 20
 120.00
  0
POINT
  8
3
 10
 247.83
 20
 120.00
  0
POINT
  8
2
 10
   0.00
 20
 120.00
  0
POINT
  8
2
 10
   0.00
 20
  60.00
  0
POINT
  8
2
 10
   0.00
 20
 120.00
  0
POINT
  8
2
 10
 257.83
 20
 120.00
  0
POINT
  8
2
 10
   0.00
 20
 120.00
  0
POINT
  8
2
 10
 257.83
 20
 120.00
  0
POINT
  8
2
 10
 257.83
 20
  60.00
  0
POINT
  8
2
 10
 257.83
 20
 120.00
  0
POINT
  8
2
 10
 257.83
 20
  60.00
  0
POLYLINE
  8
14
 66
  1
 70
  0
  0
VERTEX
  8
14
 10
  10.00
 20
  60.00
  0
VERTEX
  8
14
 10
  10.00
 20
 110.00
  0
VERTEX
  8
14
 10
  95.20
 20
 110.00
  0
VERTEX
  8
14
 10
 217.82
 20
 110.00
  0
VERTEX
  8
14
 10
 227.82
 20
 110.00
  0
VERTEX
  8
14
 10
 247.83
 20
 110.00
  0
VERTEX
  8
14
 10
 247.83
 20
  60.00
  0
SEQEND
  8
14
  0
TEXT
  8
2
 10
 247.83
 20
  60.00
 40
  10.00
  1
#-8
  0
TEXT
  8
2
 10
 247.83
 20
 110.00
 40
  10.00
  1
#-9
  0
TEXT
  8
3
 10
 227.82
 20
 110.00
 40
  10.00
  1
#-10
  0
TEXT
  8
3
 10
 217.82
 20
 110.00
 40
  10.00
  1
#-11
  0
TEXT
  8
3
 10
  95.20
 20
 110.00
 40
  10.00
  1
#-12
  0
TEXT
  8
2
 10
  10.00
 20
 110.00
 40
  10.00
  1
#-13
  0
TEXT
  8
2
 10
  10.00
 20
  60.00
 40
  10.00
  1
#-14
  0
POINT
  8
3
 10
  95.20
 20
 110.00
  0
POINT
  8
3
 10
 217.82
 20
 110.00
  0
POINT
  8
3
 10
 227.82
 20
 110.00
  0
POINT
  8
2
 10
  10.00
 20
 110.00
  0
POINT
  8
2
 10
  10.00
 20
  60.00
  0
POINT
  8
2
 10
  10.00
 20
 110.00
  0
POINT
  8
2
 10
 247.83
 20
 110.00
  0
POINT
  8
2
 10
  10.00
 20
 110.00
  0
POINT
  8
2
 10
 247.83
 20
 110.00
  0
POINT
  8
2
 10
 247.83
 20
  60.00
  0
POINT
  8
2
 10
 247.83
 20
 110.00
  0
POINT
  8
2
 10
 247.83
 20
  60.00
  0
LINE
  8
6
 10
 257.83
 20
  60.00
 11
   0.00
 21
  60.00
  0
TEXT
  8
15
 72
3
 10
 151.29
 20
  84.25
 11
 215.88
 21
  84.25
 40
   6.46
 50
   0.00
  1
Manschette
  0
TEXT
  8
2
 10
 151.29
 20
  84.25
 40
  10.00
  1
#-15
  0
TEXT
  8
2
 10
 215.88
 20
  84.25
 40
  10.00
  1
#-15
  0
LINE
  8
8
 10
 247.83
 20
  60.00
 11
  10.00
 21
  60.00
  0
TEXT
  8
2
 10
  10.00
 20
  60.00
 40
  10.00
  1
#-16
  0
TEXT
  8
2
 10
 247.83
 20
  60.00
 40
  10.00
  1
#-17
  0
TEXT
  8
8
 10
 247.83
 20
  60.00
 40
  10.00
  1
NM
  0
LINE
  8
7
 10
 132.55
 20
  10.00
 11
 132.55
 21
 110.00
  0
TEXT
  8
2
 10
 132.55
 20
 110.00
 40
  10.00
  1
#-18
  0
TEXT
  8
2
 10
 132.55
 20
  10.00
 40
  10.00
  1
#-19
  0
POINT
  8
4
 10
 247.83
 20
  60.00
 30
   4.00
 50
 180.00
  0
TEXT
  8
4
 10
 247.83
 20
  60.00
 40
  10.00
  1
#-8
  0
POINT
  8
4
 10
  95.20
 20
 110.00
 30
   4.00
 50
 -90.00
  0
TEXT
  8
4
 10
  95.20
 20
 110.00
 40
  10.00
  1
#-12
  0
POINT
  8
4
 10
 217.82
 20
 110.00
 30
   4.00
 50
 -89.99
  0
TEXT
  8
4
 10
 217.82
 20
 110.00
 40
  10.00
  1
#-11
  0
POINT
  8
4
 10
 227.82
 20
 110.00
 30
   4.00
 50
 -90.00
  0
TEXT
  8
4
 10
 227.82
 20
 110.00
 40
  10.00
  1
#-10
  0
POINT
  8
4
 10
 257.83
 20
  60.00
 30
   4.00
 50
 180.00
  0
TEXT
  8
4
 10
 257.83
 20
  60.00
 40
  10.00
  1
#-1
  0
POINT
  8
4
 10
  95.20
 20
 120.00
 30
   4.00
 50
 -90.00
  0
TEXT
  8
4
 10
  95.20
 20
 120.00
 40
  10.00
  1
#-5
  0
POINT
  8
4
 10
 227.82
 20
 120.00
 30
   4.00
 50
 -90.00
  0
TEXT
  8
4
 10
 227.82
 20
 120.00
 40
  10.00
  1
#-3
  0
POINT
  8
4
 10
  10.00
 20
  60.00
 30
   4.00
 50
   0.00
  0
TEXT
  8
4
 10
  10.00
 20
  60.00
 40
  10.00
  1
#-14
  0
POINT
  8
4
 10
 217.82
 20
 120.00
 30
   4.00
 50
 -90.00
  0
TEXT
  8
4
 10
 217.82
 20
 120.00
 40
  10.00
  1
#-4
  0
POINT
  8
4
 10
   0.00
 20
  60.00
 30
   4.00
 50
   0.00
  0
TEXT
  8
4
 10
   0.00
 20
  60.00
 40
  10.00
  1
#-7
  0
TEXT
  8
1
 10
 128.91
 20
  78.75
 40
  10.00
  1
Piece Name: x1--------BL-------S1M
  0
TEXT
  8
1
 10
 128.91
 20
  66.25
 40
  10.00
  1
Size: 38
  0
TEXT
  8
1
 10
 128.91
 20
  53.75
 40
  10.00
  1
Annotation: --------BL-------S1MA----2X-01
  0
TEXT
  8
1
 10
 128.91
 20
  41.25
 40
  10.00
  1
Quantity: 1
  0
TEXT
  8
1
 10
 128.91
 20
  28.75
 40
  10.00
  1
Category: 
  0
ENDBLK
  8
1
  0
BLOCK
  8
1
  2
Piece02
 70
  0
 10
   0.00
 20
   0.00
  0
POLYLINE
  8
1
 66
  1
 70
  0
  0
VERTEX
  8
1
 10
 225.25
 20
   0.00
  0
VERTEX
  8
1
 10
 142.15
 20
   0.00
  0
VERTEX
  8
1
 10
 133.91
 20
   0.22
  0
VERTEX
  8
1
 10
 110.83
 20
   1.54
  0
VERTEX
  8
1
 10
  70.97
 20
   6.36
  0
VERTEX
  8
1
 10
  56.02
 20
   8.77
  0
VERTEX
  8
1
 10
  42.97
 20
  11.46
  0
VERTEX
  8
1
 10
  29.49
 20
  15.24
  0
VERTEX
  8
1
 10
  14.15
 20
  21.14
  0
VERTEX
  8
1
 10
   5.89
 20
  24.77
  0
VERTEX
  8
1
 10
   0.00
 20
  27.49
  0
VERTEX
  8
1
 10
   3.70
 20
  36.77
  0
VERTEX
  8
1
 10
  10.39
 20
  48.92
  0
VERTEX
  8
1
 10
  13.62
 20
  53.03
  0
VERTEX
  8
1
 10
  17.75
 20
  56.09
  0
VERTEX
  8
1
 10
  25.75
 20
  58.69
  0
VERTEX
  8
1
 10
  34.67
 20
  58.01
  0
VERTEX
  8
1
 10
  36.61
 20
  57.67
  0
VERTEX
  8
1
 10
  40.64
 20
  56.81
  0
VERTEX
  8
1
 10
  43.56
 20
  56.21
  0
VERTEX
  8
1
 10
  47.30
 20
  55.43
  0
VERTEX
  8
1
 10
  56.75
 20
  53.66
  0
VERTEX
  8
1
 10
  67.32
 20
  51.90
  0
VERTEX
  8
1
 10
  79.18
 20
  50.26
  0
VERTEX
  8
1
 10
 107.52
 20
  47.25
  0
VERTEX
  8
1
 10
 157.03
 20
  45.00
  0
VERTEX
  8
1
 10
 225.25
 20
  45.00
  0
VERTEX
  8
1
 10
 225.25
 20
   0.00
  0
SEQEND
  8
1
  0
TEXT
  8
2
 10
 225.25
 20
  45.00
 40
  10.00
  1
#-20
  0
TEXT
  8
2
 10
 157.03
 20
  45.00
 40
  10.00
  1
#-21
  0
TEXT
  8
3
 10
  36.61
 20
  57.67
 40
  10.00
  1
#-22
  0
TEXT
  8
2
 10
   0.00
 20
  27.49
 40
  10.00
  1
#-23
  0
TEXT
  8
3
 10
 133.91
 20
   0.22
 40
  10.00
  1
#-24
  0
TEXT
  8
2
 10
 142.15
 20
   0.00
 40
  10.00
  1
#-25
  0
TEXT
  8
2
 10
 225.25
 20
   0.00
 40
  10.00
  1
#-26
  0
POINT
  8
3
 10
 133.91
 20
   0.22
  0
POINT
  8
3
 10
 110.83
 20
   1.54
  0
POINT
  8
3
 10
  70.97
 20
   6.36
  0
POINT
  8
3
 10
  56.02
 20
   8.77
  0
POINT
  8
3
 10
  42.97
 20
  11.46
  0
POINT
  8
3
 10
  29.49
 20
  15.24
  0
POINT
  8
3
 10
  14.15
 20
  21.14
  0
POINT
  8
3
 10
   5.89
 20
  24.77
  0
POINT
  8
3
 10
   3.70
 20
  36.77
  0
POINT
  8
3
 10
  10.39
 20
  48.92
  0
POINT
  8
3
 10
  13.62
 20
  53.03
  0
POINT
  8
3
 10
  17.75
 20
  56.09
  0
POINT
  8
3
 10
  25.75
 20
  58.69
  0
POINT
  8
3
 10
  34.67
 20
  58.01
  0
POINT
  8
3
 10
  36.61
 20
  57.67
  0
POINT
  8
3
 10
  40.64
 20
  56.81
  0
POINT
  8
3
 10
  43.56
 20
  56.21
  0
POINT
  8
3
 10
  47.30
 20
  55.43
  0
POINT
  8
3
 10
  56.75
 20
  53.66
  0
POINT
  8
3
 10
  67.32
 20
  51.90
  0
POINT
  8
3
 10
  79.18
 20
  50.26
  0
POINT
  8
3
 10
 107.52
 20
  47.25
  0
POINT
  8
2
 10
 142.15
 20
   0.00
  0
POINT
  8
2
 10
   0.00
 20
  27.49
  0
POINT
  8
2
 10
 225.25
 20
   0.00
  0
POINT
  8
2
 10
   0.00
 20
  27.49
  0
POINT
  8
2
 10
 157.03
 20
  45.00
  0
POINT
  8
2
 10
 225.25
 20
  45.00
  0
POINT
  8
2
 10
   0.00
 20
  27.49
  0
POINT
  8
2
 10
 225.25
 20
  45.00
  0
POLYLINE
  8
14
 66
  1
 70
  0
  0
VERTEX
  8
14
 10
 225.25
 20
  10.00
  0
VERTEX
  8
14
 10
 142.24
 20
  10.00
  0
VERTEX
  8
14
 10
 134.25
 20
  10.21
  0
VERTEX
  8
14
 10
 111.71
 20
  11.51
  0
VERTEX
  8
14
 10
  72.40
 20
  16.26
  0
VERTEX
  8
14
 10
  57.78
 20
  18.62
  0
VERTEX
  8
14
 10
  45.27
 20
  21.20
  0
VERTEX
  8
14
 10
  32.65
 20
  24.73
  0
VERTEX
  8
14
 10
  18.06
 20
  30.34
  0
VERTEX
  8
14
 10
  10.07
 20
  33.86
  0
VERTEX
  8
14
 10
  16.31
 20
  45.19
  0
VERTEX
  8
14
 10
  18.59
 20
  48.10
  0
VERTEX
  8
14
 10
  21.05
 20
  49.92
  0
VERTEX
  8
14
 10
  26.48
 20
  51.69
  0
VERTEX
  8
14
 10
  33.17
 20
  51.18
  0
VERTEX
  8
14
 10
  38.04
 20
  50.20
  0
VERTEX
  8
14
 10
  42.18
 20
  49.35
  0
VERTEX
  8
14
 10
  45.93
 20
  48.56
  0
VERTEX
  8
14
 10
  55.52
 20
  46.77
  0
VERTEX
  8
14
 10
  66.25
 20
  44.98
  0
VERTEX
  8
14
 10
  78.29
 20
  43.32
  0
VERTEX
  8
14
 10
 106.98
 20
  40.27
  0
VERTEX
  8
14
 10
 156.92
 20
  38.00
  0
VERTEX
  8
14
 10
 225.25
 20
  38.00
  0
SEQEND
  8
14
  0
TEXT
  8
2
 10
 225.25
 20
  38.00
 40
  10.00
  1
#-27
  0
TEXT
  8
2
 10
 156.92
 20
  38.00
 40
  10.00
  1
#-28
  0
TEXT
  8
3
 10
  33.17
 20
  51.18
 40
  10.00
  1
#-29
  0
TEXT
  8
2
 10
  10.07
 20
  33.86
 40
  10.00
  1
#-30
  0
TEXT
  8
3
 10
 134.25
 20
  10.21
 40
  10.00
  1
#-31
  0
TEXT
  8
2
 10
 142.24
 20
  10.00
 40
  10.00
  1
#-32
  0
TEXT
  8
2
 10
 225.25
 20
  10.00
 40
  10.00
  1
#-33
  0
POINT
  8
3
 10
 134.25
 20
  10.21
  0
POINT
  8
3
 10
 111.71
 20
  11.51
  0
POINT
  8
3
 10
  72.40
 20
  16.26
  0
POINT
  8
3
 10
  57.78
 20
  18.62
  0
POINT
  8
3
 10
  45.27
 20
  21.20
  0
POINT
  8
3
 10
  32.65
 20
  24.73
  0
POINT
  8
3
 10
  18.06
 20
  30.34
  0
POINT
  8
3
 10
  16.31
 20
  45.19
  0
POINT
  8
3
 10
  18.59
 20
  48.10
  0
POINT
  8
3
 10
  21.05
 20
  49.92
  0
POINT
  8
3
 10
  26.48
 20
  51.69
  0
POINT
  8
3
 10
  33.17
 20
  51.18
  0
POINT
  8
3
 10
  38.04
 20
  50.20
  0
POINT
  8
3
 10
  42.18
 20
  49.35
  0
POINT
  8
3
 10
  45.93
 20
  48.56
  0
POINT
  8
3
 10
  55.52
 20
  46.77
  0
POINT
  8
3
 10
  66.25
 20
  44.98
  0
POINT
  8
3
 10
  78.29
 20
  43.32
  0
POINT
  8
3
 10
 106.98
 20
  40.27
  0
POINT
  8
2
 10
 142.24
 20
  10.00
  0
POINT
  8
2
 10
  10.07
 20
  33.86
  0
POINT
  8
2
 10
 225.25
 20
  10.00
  0
POINT
  8
2
 10
  10.07
 20
  33.86
  0
POINT
  8
2
 10
 156.92
 20
  38.00
  0
POINT
  8
2
 10
 225.25
 20
  38.00
  0
POINT
  8
2
 10
  10.07
 20
  33.86
  0
POINT
  8
2
 10
 225.25
 20
  38.00
  0
LINE
  8
6
 10
 225.25
 20
  45.00
 11
 225.25
 21
   0.00
  0
TEXT
  8
15
 72
3
 10
  81.28
 20
  27.94
 11
 118.99
 21
  25.66
 40
   9.44
 50
  -3.47
  1
Steg
  0
TEXT
  8
2
 10
  81.28
 20
  27.94
 40
  10.00
  1
#-15
  0
TEXT
  8
2
 10
 118.99
 20
  25.66
 40
  10.00
  1
#-15
  0
LINE
  8
7
 10
 225.25
 20
  10.00
 11
 225.25
 21
  38.00
  0
TEXT
  8
2
 10
 225.25
 20
  38.00
 40
  10.00
  1
#-34
  0
TEXT
  8
2
 10
 225.25
 20
  10.00
 40
  10.00
  1
#-35
  0
POINT
  8
4
 10
 225.25
 20
  38.00
 30
   4.00
 50
 -90.07
  0
TEXT
  8
4
 10
 225.25
 20
  38.00
 40
  10.00
  1
#-27
  0
POINT
  8
4
 10
  33.17
 20
  51.18
 30
   4.00
 50
-117.94
  0
TEXT
  8
4
 10
  33.17
 20
  51.18
 40
  10.00
  1
#-29
  0
POINT
  8
4
 10
 225.25
 20
  10.00
 30
   4.00
 50
  90.00
  0
TEXT
  8
4
 10
 225.25
 20
  10.00
 40
  10.00
  1
#-33
  0
POINT
  8
4
 10
 225.25
 20
  45.00
 30
   4.00
 50
 -90.03
  0
TEXT
  8
4
 10
 225.25
 20
  45.00
 40
  10.00
  1
#-20
  0
POINT
  8
4
 10
  36.61
 20
  57.67
 30
   4.00
 50
-117.39
  0
TEXT
  8
4
 10
  36.61
 20
  57.67
 40
  10.00
  1
#-22
  0
POINT
  8
4
 10
 225.25
 20
   0.00
 30
   4.00
 50
  90.00
  0
TEXT
  8
4
 10
 225.25
 20
   0.00
 40
  10.00
  1
#-26
  0
POINT
  8
4
 10
 133.91
 20
   0.22
 30
   4.00
 50
  88.02
  0
TEXT
  8
4
 10
 133.91
 20
   0.22
 40
  10.00
  1
#-24
  0
POINT
  8
4
 10
 134.25
 20
  10.21
 30
   4.00
 50
  88.02
  0
TEXT
  8
4
 10
 134.25
 20
  10.21
 40
  10.00
  1
#-31
  0
TEXT
  8
1
 10
 225.25
 20
  48.10
 40
  10.00
  1
Piece Name: x2PH-B----BL-------S1K
  0
TEXT
  8
1
 10
 225.25
 20
  35.60
 40
  10.00
  1
Size: 38
  0
TEXT
  8
1
 10
 225.25
 20
  23.10
 40
  10.00
  1
Annotation: PH-B----BL-------S1KS----2X-02
  0
TEXT
  8
1
 10
 225.25
 20
  10.60
 40
  10.00
  1
Quantity: 1
  0
TEXT
  8
1
 10
 225.25
 20
  -1.90
 40
  10.00
  1
Category: 
  0
ENDBLK
  8
1
  0
BLOCK
  8
1
  2
Piece03
 70
  0
 10
   0.00
 20
   0.00
  0
POLYLINE
  8
1
 66
  1
 70
  1
  0
VERTEX
  8
1
 10
 348.38
 20
   0.23
  0
VERTEX
  8
1
 10
 344.08
 20
   0.09
  0
VERTEX
  8
1
 10
 321.85
 20
   0.00
  0
VERTEX
  8
1
 10
 308.60
 20
   0.09
  0
VERTEX
  8
1
 10
 295.39
 20
   0.09
  0
VERTEX
  8
1
 10
 268.89
 20
   0.09
  0
VERTEX
  8
1
 10
 246.96
 20
   0.09
  0
VERTEX
  8
1
 10
 246.77
 20
   0.09
  0
VERTEX
  8
1
 10
 246.46
 20
   0.10
  0
VERTEX
  8
1
 10
 122.92
 20
   5.92
  0
VERTEX
  8
1
 10
  18.67
 20
  14.67
  0
VERTEX
  8
1
 10
  10.05
 20
  15.54
  0
VERTEX
  8
1
 10
  10.14
 20
  30.61
  0
VERTEX
  8
1
 10
  12.74
 20
 129.93
  0
VERTEX
  8
1
 10
  15.24
 20
 174.72
  0
VERTEX
  8
1
 10
  18.78
 20
 219.96
  0
VERTEX
  8
1
 10
  22.67
 20
 257.38
  0
VERTEX
  8
1
 10
  26.67
 20
 292.01
  0
VERTEX
  8
1
 10
  27.64
 20
 300.41
  0
VERTEX
  8
1
 10
  28.56
 20
 308.20
  0
VERTEX
  8
1
 10
  28.40
 20
 328.66
  0
VERTEX
  8
1
 10
  27.29
 20
 349.13
  0
VERTEX
  8
1
 10
  24.73
 20
 382.17
  0
VERTEX
  8
1
 10
  24.11
 20
 391.36
  0
VERTEX
  8
1
 10
   0.00
 20
 415.35
  0
VERTEX
  8
1
 10
  11.32
 20
 447.46
  0
VERTEX
  8
1
 10
  12.44
 20
 450.63
  0
VERTEX
  8
1
 10
  15.34
 20
 461.35
  0
VERTEX
  8
1
 10
  18.40
 20
 473.06
  0
VERTEX
  8
1
 10
  26.87
 20
 507.62
  0
VERTEX
  8
1
 10
  31.61
 20
 527.57
  0
VERTEX
  8
1
 10
  33.80
 20
 536.89
  0
VERTEX
  8
1
 10
  43.21
 20
 535.10
  0
VERTEX
  8
1
 10
  47.41
 20
 534.31
  0
VERTEX
  8
1
 10
  51.25
 20
 533.58
  0
VERTEX
  8
1
 10
  61.55
 20
 533.24
  0
VERTEX
  8
1
 10
  72.04
 20
 535.88
  0
VERTEX
  8
1
 10
  78.87
 20
 540.14
  0
VERTEX
  8
1
 10
  82.68
 20
 544.66
  0
VERTEX
  8
1
 10
  83.67
 20
 546.24
  0
VERTEX
  8
1
 10
  88.37
 20
 558.46
  0
VERTEX
  8
1
 10
  92.94
 20
 575.81
  0
VERTEX
  8
1
 10
  95.90
 20
 597.88
  0
VERTEX
  8
1
 10
  96.55
 20
 608.48
  0
VERTEX
  8
1
 10
  96.70
 20
 614.67
  0
VERTEX
  8
1
 10
  96.39
 20
 630.35
  0
VERTEX
  8
1
 10
  95.07
 20
 645.84
  0
VERTEX
  8
1
 10
  92.55
 20
 662.07
  0
VERTEX
  8
1
 10
  89.06
 20
 678.59
  0
VERTEX
  8
1
 10
  87.51
 20
 684.61
  0
VERTEX
  8
1
 10
  84.97
 20
 694.06
  0
VERTEX
  8
1
 10
  94.33
 20
 696.83
  0
VERTEX
  8
1
 10
 183.55
 20
 722.91
  0
VERTEX
  8
1
 10
 208.85
 20
 730.17
  0
VERTEX
  8
1
 10
 218.96
 20
 733.06
  0
VERTEX
  8
1
 10
 221.32
 20
 722.94
  0
VERTEX
  8
1
 10
 227.60
 20
 702.85
  0
VERTEX
  8
1
 10
 240.21
 20
 678.43
  0
VERTEX
  8
1
 10
 249.10
 20
 666.69
  0
VERTEX
  8
1
 10
 257.10
 20
 659.35
  0
VERTEX
  8
1
 10
 268.83
 20
 652.99
  0
VERTEX
  8
1
 10
 271.44
 20
 652.20
  0
VERTEX
  8
1
 10
 281.94
 20
 651.08
  0
VERTEX
  8
1
 10
 282.53
 20
 651.09
  0
VERTEX
  8
1
 10
 295.39
 20
 649.95
  0
VERTEX
  8
1
 10
 307.67
 20
 651.04
  0
VERTEX
  8
1
 10
 320.77
 20
 652.43
  0
VERTEX
  8
1
 10
 321.89
 20
 652.56
  0
VERTEX
  8
1
 10
 323.01
 20
 652.43
  0
VERTEX
  8
1
 10
 336.11
 20
 651.04
  0
VERTEX
  8
1
 10
 348.39
 20
 649.95
  0
VERTEX
  8
1
 10
 348.38
 20
   0.23
  0
SEQEND
  8
1
  0
TEXT
  8
2
 10
 348.39
 20
 649.95
 40
  10.00
  1
#-36
  0
TEXT
  8
2
 10
 321.89
 20
 652.56
 40
  10.00
  1
#-37
  0
TEXT
  8
2
 10
 295.39
 20
 649.95
 40
  10.00
  1
#-38
  0
TEXT
  8
2
 10
 282.53
 20
 651.09
 40
  10.00
  1
#-39
  0
TEXT
  8
3
 10
 268.83
 20
 652.99
 40
  10.00
  1
#-40
  0
TEXT
  8
2
 10
 218.96
 20
 733.06
 40
  10.00
  1
#-41
  0
TEXT
  8
2
 10
  84.97
 20
 694.06
 40
  10.00
  1
#-42
  0
TEXT
  8
3
 10
  96.55
 20
 608.48
 40
  10.00
  1
#-43
  0
TEXT
  8
3
 10
  82.68
 20
 544.66
 40
  10.00
  1
#-44
  0
TEXT
  8
2
 10
  33.80
 20
 536.89
 40
  10.00
  1
#-45
  0
TEXT
  8
2
 10
  12.44
 20
 450.63
 40
  10.00
  1
#-46
  0
TEXT
  8
3
 10
  11.32
 20
 447.46
 40
  10.00
  1
#-47
  0
TEXT
  8
2
 10
   0.00
 20
 415.35
 40
  10.00
  1
#-48
  0
TEXT
  8
2
 10
  24.11
 20
 391.36
 40
  10.00
  1
#-49
  0
TEXT
  8
2
 10
  28.56
 20
 308.20
 40
  10.00
  1
#-50
  0
TEXT
  8
3
 10
  10.14
 20
  30.61
 40
  10.00
  1
#-51
  0
TEXT
  8
2
 10
  10.05
 20
  15.54
 40
  10.00
  1
#-52
  0
TEXT
  8
2
 10
 246.77
 20
   0.09
 40
  10.00
  1
#-53
  0
TEXT
  8
3
 10
 268.89
 20
   0.09
 40
  10.00
  1
#-54
  0
TEXT
  8
3
 10
 295.39
 20
   0.09
 40
  10.00
  1
#-55
  0
TEXT
  8
3
 10
 321.85
 20
   0.00
 40
  10.00
  1
#-56
  0
TEXT
  8
2
 10
 348.38
 20
   0.23
 40
  10.00
  1
#-57
  0
POINT
  8
3
 10
 344.08
 20
   0.09
  0
POINT
  8
3
 10
 321.85
 20
   0.00
  0
POINT
  8
3
 10
 308.60
 20
   0.09
  0
POINT
  8
3
 10
 295.39
 20
   0.09
  0
POINT
  8
3
 10
 268.89
 20
   0.09
  0
POINT
  8
3
 10
 246.96
 20
   0.09
  0
POINT
  8
3
 10
 246.46
 20
   0.10
  0
POINT
  8
3
 10
 122.92
 20
   5.92
  0
POINT
  8
3
 10
  18.67
 20
  14.67
  0
POINT
  8
3
 10
  10.14
 20
  30.61
  0
POINT
  8
3
 10
  12.74
 20
 129.93
  0
POINT
  8
3
 10
  15.24
 20
 174.72
  0
POINT
  8
3
 10
  18.78
 20
 219.96
  0
POINT
  8
3
 10
  22.67
 20
 257.38
  0
POINT
  8
3
 10
  26.67
 20
 292.01
  0
POINT
  8
3
 10
  27.64
 20
 300.41
  0
POINT
  8
3
 10
  28.40
 20
 328.66
  0
POINT
  8
3
 10
  27.29
 20
 349.13
  0
POINT
  8
3
 10
  24.73
 20
 382.17
  0
POINT
  8
3
 10
  11.32
 20
 447.46
  0
POINT
  8
3
 10
  15.34
 20
 461.35
  0
POINT
  8
3
 10
  18.40
 20
 473.06
  0
POINT
  8
3
 10
  26.87
 20
 507.62
  0
POINT
  8
3
 10
  31.61
 20
 527.57
  0
POINT
  8
3
 10
  43.21
 20
 535.10
  0
POINT
  8
3
 10
  47.41
 20
 534.31
  0
POINT
  8
3
 10
  51.25
 20
 533.58
  0
POINT
  8
3
 10
  61.55
 20
 533.24
  0
POINT
  8
3
 10
  72.04
 20
 535.88
  0
POINT
  8
3
 10
  78.87
 20
 540.14
  0
POINT
  8
3
 10
  82.68
 20
 544.66
  0
POINT
  8
3
 10
  83.67
 20
 546.24
  0
POINT
  8
3
 10
  88.37
 20
 558.46
  0
POINT
  8
3
 10
  92.94
 20
 575.81
  0
POINT
  8
3
 10
  95.90
 20
 597.88
  0
POINT
  8
3
 10
  96.55
 20
 608.48
  0
POINT
  8
3
 10
  96.70
 20
 614.67
  0
POINT
  8
3
 10
  96.39
 20
 630.35
  0
POINT
  8
3
 10
  95.07
 20
 645.84
  0
POINT
  8
3
 10
  92.55
 20
 662.07
  0
POINT
  8
3
 10
  89.06
 20
 678.59
  0
POINT
  8
3
 10
  87.51
 20
 684.61
  0
POINT
  8
3
 10
  94.33
 20
 696.83
  0
POINT
  8
3
 10
 183.55
 20
 722.91
  0
POINT
  8
3
 10
 208.85
 20
 730.17
  0
POINT
  8
3
 10
 221.32
 20
 722.94
  0
POINT
  8
3
 10
 227.60
 20
 702.85
  0
POINT
  8
3
 10
 240.21
 20
 678.43
  0
POINT
  8
3
 10
 249.10
 20
 666.69
  0
POINT
  8
3
 10
 257.10
 20
 659.35
  0
POINT
  8
3
 10
 268.83
 20
 652.99
  0
POINT
  8
3
 10
 271.44
 20
 652.20
  0
POINT
  8
3
 10
 281.94
 20
 651.08
  0
POINT
  8
3
 10
 307.67
 20
 651.04
  0
POINT
  8
3
 10
 320.77
 20
 652.43
  0
POINT
  8
3
 10
 323.01
 20
 652.43
  0
POINT
  8
3
 10
 336.11
 20
 651.04
  0
POINT
  8
2
 10
 246.77
 20
   0.09
  0
POINT
  8
2
 10
  10.05
 20
  15.54
  0
POINT
  8
2
 10
 348.38
 20
   0.23
  0
POINT
  8
2
 10
  10.05
 20
  15.54
  0
POINT
  8
2
 10
  28.56
 20
 308.20
  0
POINT
  8
2
 10
  10.05
 20
  15.54
  0
POINT
  8
2
 10
  28.56
 20
 308.20
  0
POINT
  8
2
 10
  24.11
 20
 391.36
  0
POINT
  8
2
 10
  28.56
 20
 308.20
  0
POINT
  8
2
 10
  24.11
 20
 391.36
  0
POINT
  8
2
 10
   0.00
 20
 415.35
  0
POINT
  8
2
 10
  24.11
 20
 391.36
  0
POINT
  8
2
 10
   0.00
 20
 415.35
  0
POINT
  8
2
 10
  12.44
 20
 450.63
  0
POINT
  8
2
 10
   0.00
 20
 415.35
  0
POINT
  8
2
 10
  12.44
 20
 450.63
  0
POINT
  8
2
 10
  33.80
 20
 536.89
  0
POINT
  8
2
 10
  12.44
 20
 450.63
  0
POINT
  8
2
 10
  33.80
 20
 536.89
  0
POINT
  8
2
 10
  84.97
 20
 694.06
  0
POINT
  8
2
 10
  33.80
 20
 536.89
  0
POINT
  8
2
 10
  84.97
 20
 694.06
  0
POINT
  8
2
 10
 218.96
 20
 733.06
  0
POINT
  8
2
 10
  84.97
 20
 694.06
  0
POINT
  8
2
 10
 218.96
 20
 733.06
  0
POINT
  8
2
 10
 282.53
 20
 651.09
  0
POINT
  8
2
 10
 295.39
 20
 649.95
  0
POINT
  8
2
 10
 218.96
 20
 733.06
  0
POINT
  8
2
 10
 295.39
 20
 649.95
  0
POINT
  8
2
 10
 321.89
 20
 652.56
  0
POINT
  8
2
 10
 295.39
 20
 649.95
  0
POINT
  8
2
 10
 321.89
 20
 652.56
  0
POINT
  8
2
 10
 348.39
 20
 649.95
  0
POINT
  8
2
 10
 321.89
 20
 652.56
  0
POINT
  8
2
 10
 348.39
 20
 649.95
  0
POINT
  8
2
 10
 348.38
 20
   0.23
  0
POLYLINE
  8
14
 66
  1
 70
  1
  0
VERTEX
  8
14
 10
 348.38
 20
  15.24
  0
VERTEX
  8
14
 10
 343.80
 20
  15.09
  0
VERTEX
  8
14
 10
 321.89
 20
  15.00
  0
VERTEX
  8
14
 10
 308.63
 20
  15.09
  0
VERTEX
  8
14
 10
 295.39
 20
  15.09
  0
VERTEX
  8
14
 10
 268.89
 20
  15.09
  0
VERTEX
  8
14
 10
 246.96
 20
  15.09
  0
VERTEX
  8
14
 10
 123.90
 20
  20.89
  0
VERTEX
  8
14
 10
  20.13
 20
  29.60
  0
VERTEX
  8
14
 10
  22.73
 20
 129.52
  0
VERTEX
  8
14
 10
  25.21
 20
 174.05
  0
VERTEX
  8
14
 10
  28.74
 20
 219.04
  0
VERTEX
  8
14
 10
  32.61
 20
 256.25
  0
VERTEX
  8
14
 10
  36.61
 20
 290.86
  0
VERTEX
  8
14
 10
  37.57
 20
 299.25
  0
VERTEX
  8
14
 10
  38.57
 20
 307.63
  0
VERTEX
  8
14
 10
  38.39
 20
 328.97
  0
VERTEX
  8
14
 10
  37.26
 20
 349.83
  0
VERTEX
  8
14
 10
  34.70
 20
 382.86
  0
VERTEX
  8
14
 10
  33.84
 20
 395.79
  0
VERTEX
  8
14
 10
  11.53
 20
 417.98
  0
VERTEX
  8
14
 10
  22.00
 20
 447.66
  0
VERTEX
  8
14
 10
  25.00
 20
 458.76
  0
VERTEX
  8
14
 10
  28.09
 20
 470.60
  0
VERTEX
  8
14
 10
  36.59
 20
 505.29
  0
VERTEX
  8
14
 10
  41.35
 20
 525.28
  0
VERTEX
  8
14
 10
  45.54
 20
 524.48
  0
VERTEX
  8
14
 10
  49.74
 20
 523.69
  0
VERTEX
  8
14
 10
  62.45
 20
 523.27
  0
VERTEX
  8
14
 10
  75.92
 20
 526.65
  0
VERTEX
  8
14
 10
  85.55
 20
 532.67
  0
VERTEX
  8
14
 10
  90.92
 20
 539.04
  0
VERTEX
  8
14
 10
  92.64
 20
 541.79
  0
VERTEX
  8
14
 10
  97.91
 20
 555.51
  0
VERTEX
  8
14
 10
 102.76
 20
 573.90
  0
VERTEX
  8
14
 10
 105.86
 20
 597.03
  0
VERTEX
  8
14
 10
 106.54
 20
 608.10
  0
VERTEX
  8
14
 10
 106.70
 20
 614.60
  0
VERTEX
  8
14
 10
 106.38
 20
 630.85
  0
VERTEX
  8
14
 10
 105.00
 20
 647.04
  0
VERTEX
  8
14
 10
 102.38
 20
 663.91
  0
VERTEX
  8
14
 10
  98.79
 20
 680.90
  0
VERTEX
  8
14
 10
  97.16
 20
 687.24
  0
VERTEX
  8
14
 10
 186.33
 20
 713.30
  0
VERTEX
  8
14
 10
 211.61
 20
 720.55
  0
VERTEX
  8
14
 10
 218.27
 20
 699.24
  0
VERTEX
  8
14
 10
 231.81
 20
 673.03
  0
VERTEX
  8
14
 10
 241.78
 20
 659.84
  0
VERTEX
  8
14
 10
 250.91
 20
 651.46
  0
VERTEX
  8
14
 10
 268.84
 20
 642.51
  0
VERTEX
  8
14
 10
 282.14
 20
 641.09
  0
VERTEX
  8
14
 10
 295.39
 20
 639.91
  0
VERTEX
  8
14
 10
 308.64
 20
 641.09
  0
VERTEX
  8
14
 10
 321.89
 20
 642.50
  0
VERTEX
  8
14
 10
 335.14
 20
 641.09
  0
VERTEX
  8
14
 10
 348.39
 20
 639.91
  0
VERTEX
  8
14
 10
 348.38
 20
  15.24
  0
SEQEND
  8
14
  0
TEXT
  8
2
 10
 348.39
 20
 639.91
 40
  10.00
  1
#-58
  0
TEXT
  8
2
 10
 321.89
 20
 642.50
 40
  10.00
  1
#-59
  0
TEXT
  8
2
 10
 295.39
 20
 639.91
 40
  10.00
  1
#-60
  0
TEXT
  8
2
 10
 282.14
 20
 641.09
 40
  10.00
  1
#-61
  0
TEXT
  8
3
 10
 268.84
 20
 642.51
 40
  10.00
  1
#-62
  0
TEXT
  8
2
 10
 211.61
 20
 720.55
 40
  10.00
  1
#-63
  0
TEXT
  8
3
 10
 186.33
 20
 713.30
 40
  10.00
  1
#-64
  0
TEXT
  8
2
 10
  97.16
 20
 687.24
 40
  10.00
  1
#-65
  0
TEXT
  8
3
 10
 106.54
 20
 608.10
 40
  10.00
  1
#-66
  0
TEXT
  8
3
 10
  90.92
 20
 539.04
 40
  10.00
  1
#-67
  0
TEXT
  8
2
 10
  41.35
 20
 525.28
 40
  10.00
  1
#-68
  0
TEXT
  8
3
 10
  36.59
 20
 505.29
 40
  10.00
  1
#-69
  0
TEXT
  8
3
 10
  28.09
 20
 470.60
 40
  10.00
  1
#-70
  0
TEXT
  8
3
 10
  25.00
 20
 458.76
 40
  10.00
  1
#-71
  0
TEXT
  8
2
 10
  22.00
 20
 447.66
 40
  10.00
  1
#-72
  0
TEXT
  8
2
 10
  11.53
 20
 417.98
 40
  10.00
  1
#-73
  0
TEXT
  8
2
 10
  33.84
 20
 395.79
 40
  10.00
  1
#-74
  0
TEXT
  8
3
 10
  34.70
 20
 382.86
 40
  10.00
  1
#-75
  0
TEXT
  8
2
 10
  38.57
 20
 307.63
 40
  10.00
  1
#-76
  0
TEXT
  8
3
 10
  36.61
 20
 290.86
 40
  10.00
  1
#-77
  0
TEXT
  8
3
 10
  32.61
 20
 256.25
 40
  10.00
  1
#-78
  0
TEXT
  8
3
 10
  28.74
 20
 219.04
 40
  10.00
  1
#-79
  0
TEXT
  8
3
 10
  25.21
 20
 174.05
 40
  10.00
  1
#-80
  0
TEXT
  8
3
 10
  22.73
 20
 129.52
 40
  10.00
  1
#-81
  0
TEXT
  8
2
 10
  20.13
 20
  29.60
 40
  10.00
  1
#-82
  0
TEXT
  8
2
 10
 246.96
 20
  15.09
 40
  10.00
  1
#-83
  0
TEXT
  8
3
 10
 268.89
 20
  15.09
 40
  10.00
  1
#-84
  0
TEXT
  8
3
 10
 295.39
 20
  15.09
 40
  10.00
  1
#-85
  0
TEXT
  8
3
 10
 321.89
 20
  15.00
 40
  10.00
  1
#-86
  0
TEXT
  8
2
 10
 348.38
 20
  15.24
 40
  10.00
  1
#-87
  0
POINT
  8
3
 10
 343.80
 20
  15.09
  0
POINT
  8
3
 10
 321.89
 20
  15.00
  0
POINT
  8
3
 10
 308.63
 20
  15.09
  0
POINT
  8
3
 10
 295.39
 20
  15.09
  0
POINT
  8
3
 10
 268.89
 20
  15.09
  0
POINT
  8
3
 10
 123.90
 20
  20.89
  0
POINT
  8
3
 10
  22.73
 20
 129.52
  0
POINT
  8
3
 10
  25.21
 20
 174.05
  0
POINT
  8
3
 10
  28.74
 20
 219.04
  0
POINT
  8
3
 10
  32.61
 20
 256.25
  0
POINT
  8
3
 10
  36.61
 20
 290.86
  0
POINT
  8
3
 10
  37.57
 20
 299.25
  0
POINT
  8
3
 10
  38.39
 20
 328.97
  0
POINT
  8
3
 10
  37.26
 20
 349.83
  0
POINT
  8
3
 10
  34.70
 20
 382.86
  0
POINT
  8
3
 10
  25.00
 20
 458.76
  0
POINT
  8
3
 10
  28.09
 20
 470.60
  0
POINT
  8
3
 10
  36.59
 20
 505.29
  0
POINT
  8
3
 10
  45.54
 20
 524.48
  0
POINT
  8
3
 10
  49.74
 20
 523.69
  0
POINT
  8
3
 10
  62.45
 20
 523.27
  0
POINT
  8
3
 10
  75.92
 20
 526.65
  0
POINT
  8
3
 10
  85.55
 20
 532.67
  0
POINT
  8
3
 10
  90.92
 20
 539.04
  0
POINT
  8
3
 10
  92.64
 20
 541.79
  0
POINT
  8
3
 10
  97.91
 20
 555.51
  0
POINT
  8
3
 10
 102.76
 20
 573.90
  0
POINT
  8
3
 10
 105.86
 20
 597.03
  0
POINT
  8
3
 10
 106.54
 20
 608.10
  0
POINT
  8
3
 10
 106.70
 20
 614.60
  0
POINT
  8
3
 10
 106.38
 20
 630.85
  0
POINT
  8
3
 10
 105.00
 20
 647.04
  0
POINT
  8
3
 10
 102.38
 20
 663.91
  0
POINT
  8
3
 10
  98.79
 20
 680.90
  0
POINT
  8
3
 10
 186.33
 20
 713.30
  0
POINT
  8
3
 10
 218.27
 20
 699.24
  0
POINT
  8
3
 10
 231.81
 20
 673.03
  0
POINT
  8
3
 10
 241.78
 20
 659.84
  0
POINT
  8
3
 10
 250.91
 20
 651.46
  0
POINT
  8
3
 10
 268.84
 20
 642.51
  0
POINT
  8
3
 10
 308.64
 20
 641.09
  0
POINT
  8
3
 10
 335.14
 20
 641.09
  0
POINT
  8
2
 10
 246.96
 20
  15.09
  0
POINT
  8
2
 10
  20.13
 20
  29.60
  0
POINT
  8
2
 10
 348.38
 20
  15.24
  0
POINT
  8
2
 10
  20.13
 20
  29.60
  0
POINT
  8
2
 10
  38.57
 20
 307.63
  0
POINT
  8
2
 10
  20.13
 20
  29.60
  0
POINT
  8
2
 10
  38.57
 20
 307.63
  0
POINT
  8
2
 10
  33.84
 20
 395.79
  0
POINT
  8
2
 10
  38.57
 20
 307.63
  0
POINT
  8
2
 10
  33.84
 20
 395.79
  0
POINT
  8
2
 10
  11.53
 20
 417.98
  0
POINT
  8
2
 10
  33.84
 20
 395.79
  0
POINT
  8
2
 10
  11.53
 20
 417.98
  0
POINT
  8
2
 10
  22.00
 20
 447.66
  0
POINT
  8
2
 10
  11.53
 20
 417.98
  0
POINT
  8
2
 10
  22.00
 20
 447.66
  0
POINT
  8
2
 10
  41.35
 20
 525.28
  0
POINT
  8
2
 10
  22.00
 20
 447.66
  0
POINT
  8
2
 10
  41.35
 20
 525.28
  0
POINT
  8
2
 10
  97.16
 20
 687.24
  0
POINT
  8
2
 10
  41.35
 20
 525.28
  0
POINT
  8
2
 10
  97.16
 20
 687.24
  0
POINT
  8
2
 10
 211.61
 20
 720.55
  0
POINT
  8
2
 10
  97.16
 20
 687.24
  0
POINT
  8
2
 10
 211.61
 20
 720.55
  0
POINT
  8
2
 10
 282.14
 20
 641.09
  0
POINT
  8
2
 10
 295.39
 20
 639.91
  0
POINT
  8
2
 10
 211.61
 20
 720.55
  0
POINT
  8
2
 10
 295.39
 20
 639.91
  0
POINT
  8
2
 10
 321.89
 20
 642.50
  0
POINT
  8
2
 10
 295.39
 20
 639.91
  0
POINT
  8
2
 10
 321.89
 20
 642.50
  0
POINT
  8
2
 10
 348.39
 20
 639.91
  0
POINT
  8
2
 10
 321.89
 20
 642.50
  0
POINT
  8
2
 10
 348.39
 20
 639.91
  0
POINT
  8
2
 10
 348.38
 20
  15.24
  0
POINT
  8
13
 10
 137.35
 20
 446.71
  0
TEXT
  8
13
 10
 137.35
 20
 446.71
 40
  10.00
  1
#-88
  0
POINT
  8
13
 10
 180.14
 20
 392.60
  0
TEXT
  8
13
 10
 180.14
 20
 392.60
 40
  10.00
  1
#-89
  0
POINT
  8
13
 10
 180.14
 20
 139.60
  0
TEXT
  8
13
 10
 180.14
 20
 139.60
 40
  10.00
  1
#-90
  0
POINT
  8
13
 10
 186.94
 20
 302.60
  0
TEXT
  8
13
 10
 186.94
 20
 302.60
 40
  10.00
  1
#-91
  0
POINT
  8
13
 10
 187.26
 20
 282.63
  0
TEXT
  8
13
 10
 187.26
 20
 282.63
 40
  10.00
  1
#-92
  0
POINT
  8
13
 10
 173.59
 20
 302.58
  0
TEXT
  8
13
 10
 173.59
 20
 302.58
 40
  10.00
  1
#-93
  0
POINT
  8
13
 10
 173.17
 20
 282.64
  0
TEXT
  8
13
 10
 173.17
 20
 282.64
 40
  10.00
  1
#-94
  0
TEXT
  8
15
 72
3
 10
 132.78
 20
 498.90
 11
 202.19
 21
 498.90
 40
  13.88
 50
   0.00
  1
VT RE
  0
TEXT
  8
2
 10
 132.78
 20
 498.90
 40
  10.00
  1
#-15
  0
TEXT
  8
2
 10
 202.19
 20
 498.90
 40
  10.00
  1
#-15
  0
LINE
  8
8
 10
  11.53
 20
 417.98
 11
 151.97
 21
 450.05
  0
TEXT
  8
2
 10
 151.97
 20
 450.05
 40
  10.00
  1
#-95
  0
TEXT
  8
2
 10
  11.53
 20
 417.98
 40
  10.00
  1
#-96
  0
LINE
  8
8
 10
 282.13
 20
  15.09
 11
 282.14
 21
 641.09
  0
TEXT
  8
2
 10
 282.14
 20
 641.09
 40
  10.00
  1
#-97
  0
TEXT
  8
2
 10
 282.13
 20
  15.09
 40
  10.00
  1
#-15
  0
LINE
  8
8
 10
 282.14
 20
 641.09
 11
 282.14
 21
 720.55
  0
TEXT
  8
2
 10
 282.14
 20
 720.55
 40
  10.00
  1
#-98
  0
TEXT
  8
2
 10
 282.14
 20
 641.09
 40
  10.00
  1
#-99
  0
LINE
  8
8
 10
  21.58
 20
 101.24
 11
 282.13
 21
 101.24
  0
TEXT
  8
2
 10
 282.13
 20
 101.24
 40
  10.00
  1
#-100
  0
TEXT
  8
2
 10
  21.58
 20
 101.24
 40
  10.00
  1
#-101
  0
LINE
  8
8
 10
 102.04
 20
 570.56
 11
 282.14
 21
 570.56
  0
TEXT
  8
2
 10
 282.14
 20
 570.56
 40
  10.00
  1
#-102
  0
TEXT
  8
2
 10
 102.04
 20
 570.56
 40
  10.00
  1
#-103
  0
LINE
  8
8
 10
 185.13
 20
 457.63
 11
 282.12
 21
 457.63
  0
TEXT
  8
2
 10
 282.12
 20
 457.63
 40
  10.00
  1
#-104
  0
TEXT
  8
2
 10
 185.13
 20
 457.63
 40
  10.00
  1
#-105
  0
LINE
  8
8
 10
  36.70
 20
 505.82
 11
 185.13
 21
 457.63
  0
TEXT
  8
2
 10
 185.13
 20
 457.63
 40
  10.00
  1
#-106
  0
TEXT
  8
2
 10
  36.70
 20
 505.82
 40
  10.00
  1
#-107
  0
LINE
  8
8
 10
  20.13
 20
  29.60
 11
 282.13
 21
  29.61
  0
TEXT
  8
2
 10
 282.13
 20
  29.61
 40
  10.00
  1
#-108
  0
TEXT
  8
2
 10
  20.13
 20
  29.60
 40
  10.00
  1
#-109
  0
LINE
  8
8
 10
 192.63
 20
 292.63
 11
 282.09
 21
 292.63
  0
TEXT
  8
2
 10
 282.09
 20
 292.63
 40
  10.00
  1
#-110
  0
TEXT
  8
2
 10
 192.63
 20
 292.63
 40
  10.00
  1
#-111
  0
LINE
  8
8
 10
 167.63
 20
 292.63
 11
  38.56
 21
 307.63
  0
TEXT
  8
2
 10
  38.56
 20
 307.63
 40
  10.00
  1
#-112
  0
TEXT
  8
2
 10
 167.63
 20
 292.63
 40
  10.00
  1
#-113
  0
LINE
  8
8
 10
  33.84
 20
 395.80
 11
 151.97
 21
 450.05
  0
TEXT
  8
2
 10
 151.97
 20
 450.05
 40
  10.00
  1
#-114
  0
TEXT
  8
2
 10
  33.84
 20
 395.80
 40
  10.00
  1
#-115
  0
POLYLINE
  8
8
 66
  1
 70
  0
  0
VERTEX
  8
8
 10
 180.14
 20
 407.60
  0
VERTEX
  8
8
 10
 182.75
 20
 381.14
  0
VERTEX
  8
8
 10
 186.60
 20
 353.41
  0
VERTEX
  8
8
 10
 190.35
 20
 324.03
  0
VERTEX
  8
8
 10
 192.64
 20
 292.62
  0
SEQEND
  8
8
  0
TEXT
  8
2
 10
 192.64
 20
 292.62
 40
  10.00
  1
#-116
  0
TEXT
  8
2
 10
 180.14
 20
 407.60
 40
  10.00
  1
#-117
  0
POINT
  8
3
 10
 182.75
 20
 381.14
  0
POINT
  8
3
 10
 186.60
 20
 353.41
  0
POINT
  8
3
 10
 190.35
 20
 324.03
  0
POINT
  8
2
 10
 192.64
 20
 292.62
  0
POINT
  8
2
 10
 180.14
 20
 407.60
  0
POINT
  8
2
 10
 192.64
 20
 292.62
  0
POLYLINE
  8
8
 66
  1
 70
  0
  0
VERTEX
  8
8
 10
 167.64
 20
 292.63
  0
VERTEX
  8
8
 10
 170.11
 20
 253.61
  0
VERTEX
  8
8
 10
 180.13
 20
 124.60
  0
SEQEND
  8
8
  0
TEXT
  8
2
 10
 180.13
 20
 124.60
 40
  10.00
  1
#-118
  0
TEXT
  8
2
 10
 167.64
 20
 292.63
 40
  10.00
  1
#-119
  0
POINT
  8
3
 10
 170.11
 20
 253.61
  0
POINT
  8
2
 10
 180.13
 20
 124.60
  0
POINT
  8
2
 10
 167.64
 20
 292.63
  0
POINT
  8
2
 10
 180.13
 20
 124.60
  0
POLYLINE
  8
8
 66
  1
 70
  0
  0
VERTEX
  8
8
 10
 180.13
 20
 124.60
  0
VERTEX
  8
8
 10
 185.28
 20
 189.38
  0
VERTEX
  8
8
 10
 190.43
 20
 254.15
  0
VERTEX
  8
8
 10
 192.25
 20
 280.86
  0
VERTEX
  8
8
 10
 192.64
 20
 292.62
  0
SEQEND
  8
8
  0
TEXT
  8
2
 10
 192.64
 20
 292.62
 40
  10.00
  1
#-120
  0
TEXT
  8
2
 10
 180.13
 20
 124.60
 40
  10.00
  1
#-121
  0
POINT
  8
3
 10
 185.28
 20
 189.38
  0
POINT
  8
3
 10
 190.43
 20
 254.15
  0
POINT
  8
3
 10
 192.25
 20
 280.86
  0
POINT
  8
2
 10
 192.64
 20
 292.62
  0
POINT
  8
2
 10
 180.13
 20
 124.60
  0
POINT
  8
2
 10
 192.64
 20
 292.62
  0
POLYLINE
  8
8
 66
  1
 70
  0
  0
VERTEX
  8
8
 10
 180.14
 20
 407.60
  0
VERTEX
  8
8
 10
 177.48
 20
 380.43
  0
VERTEX
  8
8
 10
 174.11
 20
 353.09
  0
VERTEX
  8
8
 10
 170.62
 20
 324.26
  0
VERTEX
  8
8
 10
 167.64
 20
 292.63
  0
SEQEND
  8
8
  0
TEXT
  8
2
 10
 167.64
 20
 292.63
 40
  10.00
  1
#-122
  0
TEXT
  8
2
 10
 180.14
 20
 407.60
 40
  10.00
  1
#-123
  0
POINT
  8
3
 10
 177.48
 20
 380.43
  0
POINT
  8
3
 10
 174.11
 20
 353.09
  0
POINT
  8
3
 10
 170.62
 20
 324.26
  0
POINT
  8
2
 10
 167.64
 20
 292.63
  0
POINT
  8
2
 10
 180.14
 20
 407.60
  0
POINT
  8
2
 10
 167.64
 20
 292.63
  0
LINE
  8
8
 10
 151.97
 20
 450.05
 11
  22.00
 21
 447.66
  0
TEXT
  8
2
 10
  22.00
 20
 447.66
 40
  10.00
  1
#-124
  0
TEXT
  8
2
 10
 151.97
 20
 450.05
 40
  10.00
  1
#-125
  0
TEXT
  8
15
 72
3
 10
 283.74
 20
  40.59
 11
 283.74
 21
  52.59
 40
   6.00
 50
  90.00
  1
VM
  0
TEXT
  8
2
 10
 283.74
 20
  40.59
 40
  10.00
  1
#-15
  0
TEXT
  8
2
 10
 283.74
 20
  52.59
 40
  10.00
  1
#-15
  0
LINE
  8
8
 10
 321.88
 20
 117.53
 11
 321.89
 21
 593.18
  0
TEXT
  8
2
 10
 321.89
 20
 593.18
 40
  10.00
  1
#-126
  0
TEXT
  8
2
 10
 321.88
 20
 117.53
 40
  10.00
  1
#-127
  0
LINE
  8
8
 10
 295.38
 20
 118.76
 11
 295.39
 21
 590.71
  0
TEXT
  8
2
 10
 295.39
 20
 590.71
 40
  10.00
  1
#-128
  0
TEXT
  8
2
 10
 295.38
 20
 118.76
 40
  10.00
  1
#-129
  0
LINE
  8
8
 10
 211.61
 20
 720.55
 11
 211.61
 21
 292.63
  0
TEXT
  8
2
 10
 211.61
 20
 292.63
 40
  10.00
  1
#-130
  0
TEXT
  8
2
 10
 211.61
 20
 720.55
 40
  10.00
  1
#-131
  0
LINE
  8
8
 10
 211.61
 20
 720.55
 11
 282.14
 21
 720.55
  0
TEXT
  8
2
 10
 282.14
 20
 720.55
 40
  10.00
  1
#-132
  0
TEXT
  8
2
 10
 211.61
 20
 720.55
 40
  10.00
  1
#-133
  0
LINE
  8
7
 10
 282.13
 20
  15.09
 11
 282.14
 21
 641.09
  0
TEXT
  8
2
 10
 282.14
 20
 641.09
 40
  10.00
  1
#-134
  0
TEXT
  8
2
 10
 282.13
 20
  15.09
 40
  10.00
  1
#-135
  0
LINE
  8
8
 10
 268.88
 20
 118.76
 11
 268.89
 21
 590.71
  0
TEXT
  8
2
 10
 268.89
 20
 590.71
 40
  10.00
  1
#-136
  0
TEXT
  8
2
 10
 268.88
 20
 118.76
 40
  10.00
  1
#-137
  0
POINT
  8
4
 10
 106.54
 20
 608.10
 30
   4.00
 50
  -2.21
  0
TEXT
  8
4
 10
 106.54
 20
 608.10
 40
  10.00
  1
#-66
  0
POINT
  8
4
 10
  90.92
 20
 539.04
 30
   4.00
 50
 -34.29
  0
TEXT
  8
4
 10
  90.92
 20
 539.04
 40
  10.00
  1
#-67
  0
POINT
  8
4
 10
 295.39
 20
 639.91
 30
   4.00
 50
 -90.00
  0
TEXT
  8
4
 10
 295.39
 20
 639.91
 40
  10.00
  1
#-60
  0
POINT
  8
4
 10
 295.39
 20
  15.09
 30
   4.00
 50
  90.00
  0
TEXT
  8
4
 10
 295.39
 20
  15.09
 40
  10.00
  1
#-85
  0
POINT
  8
4
 10
 268.89
 20
  15.09
 30
   4.00
 50
  90.00
  0
TEXT
  8
4
 10
 268.89
 20
  15.09
 40
  10.00
  1
#-84
  0
POINT
  8
4
 10
 321.89
 20
  15.00
 30
   4.00
 50
  89.84
  0
TEXT
  8
4
 10
 321.89
 20
  15.00
 40
  10.00
  1
#-86
  0
POINT
  8
4
 10
  38.57
 20
 307.63
 30
   4.00
 50
  -0.86
  0
TEXT
  8
4
 10
  38.57
 20
 307.63
 40
  10.00
  1
#-76
  0
POINT
  8
4
 10
  33.84
 20
 395.79
 30
   4.00
 50
  24.66
  0
TEXT
  8
4
 10
  33.84
 20
 395.79
 40
  10.00
  1
#-74
  0
POINT
  8
4
 10
  22.00
 20
 447.66
 30
   4.00
 50
   1.06
  0
TEXT
  8
4
 10
  22.00
 20
 447.66
 40
  10.00
  1
#-72
  0
POINT
  8
4
 10
 321.89
 20
 642.50
 30
   4.00
 50
 -90.00
  0
TEXT
  8
4
 10
 321.89
 20
 642.50
 40
  10.00
  1
#-59
  0
POINT
  8
4
 10
 268.84
 20
 642.51
 30
   4.00
 50
 -89.99
  0
TEXT
  8
4
 10
 268.84
 20
 642.51
 40
  10.00
  1
#-62
  0
POINT
  8
4
 10
 268.89
 20
   0.09
 30
   4.00
 50
  90.00
  0
TEXT
  8
4
 10
 268.89
 20
   0.09
 40
  10.00
  1
#-54
  0
POINT
  8
4
 10
 321.85
 20
   0.00
 30
   4.00
 50
  89.86
  0
TEXT
  8
4
 10
 321.85
 20
   0.00
 40
  10.00
  1
#-56
  0
POINT
  8
4
 10
 295.39
 20
   0.09
 30
   4.00
 50
  89.99
  0
TEXT
  8
4
 10
 295.39
 20
   0.09
 40
  10.00
  1
#-55
  0
POINT
  8
4
 10
  28.56
 20
 308.20
 30
   4.00
 50
  -0.87
  0
TEXT
  8
4
 10
  28.56
 20
 308.20
 40
  10.00
  1
#-50
  0
POINT
  8
4
 10
  24.11
 20
 391.36
 30
   4.00
 50
  24.68
  0
TEXT
  8
4
 10
  24.11
 20
 391.36
 40
  10.00
  1
#-49
  0
POINT
  8
4
 10
  11.32
 20
 447.46
 30
   4.00
 50
   1.05
  0
TEXT
  8
4
 10
  11.32
 20
 447.46
 40
  10.00
  1
#-47
  0
POINT
  8
4
 10
  82.68
 20
 544.66
 30
   4.00
 50
 -34.30
  0
TEXT
  8
4
 10
  82.68
 20
 544.66
 40
  10.00
  1
#-44
  0
POINT
  8
4
 10
  96.55
 20
 608.48
 30
   4.00
 50
  -2.18
  0
TEXT
  8
4
 10
  96.55
 20
 608.48
 40
  10.00
  1
#-43
  0
POINT
  8
4
 10
 268.83
 20
 652.99
 30
   4.00
 50
 -89.40
  0
TEXT
  8
4
 10
 268.83
 20
 652.99
 40
  10.00
  1
#-40
  0
POINT
  8
4
 10
 295.39
 20
 649.95
 30
   4.00
 50
 -90.11
  0
TEXT
  8
4
 10
 295.39
 20
 649.95
 40
  10.00
  1
#-38
  0
POINT
  8
4
 10
 321.89
 20
 652.56
 30
   4.00
 50
 -90.00
  0
TEXT
  8
4
 10
 321.89
 20
 652.56
 40
  10.00
  1
#-37
  0
POINT
  8
4
 10
  10.14
 20
  30.61
 30
   4.00
 50
  -5.78
  0
TEXT
  8
4
 10
  10.14
 20
  30.61
 40
  10.00
  1
#-51
  0
TEXT
  8
1
 10
 174.20
 20
 385.28
 40
  10.00
  1
Piece Name: x3--------BL-------S1V
  0
TEXT
  8
1
 10
 174.20
 20
 372.78
 40
  10.00
  1
Size: 38
  0
TEXT
  8
1
 10
 174.20
 20
 360.28
 40
  10.00
  1
Annotation: --------BL-------S1VT--RE1X-02
  0
TEXT
  8
1
 10
 174.20
 20
 347.78
 40
  10.00
  1
Quantity: 1
  0
TEXT
  8
1
 10
 174.20
 20
 335.28
 40
  10.00
  1
Category: 
  0
ENDBLK
  8
1
  0
BLOCK
  8
1
  2
Piece04
 70
  0
 10
   0.00
 20
   0.00
  0
POLYLINE
  8
1
 66
  1
 70
  0
  0
VERTEX
  8
1
 10
 227.98
 20
  27.72
  0
VERTEX
  8
1
 10
 200.82
 20
  27.72
  0
VERTEX
  8
1
 10
 162.31
 20
  24.55
  0
VERTEX
  8
1
 10
 114.55
 20
  17.90
  0
VERTEX
  8
1
 10
  73.74
 20
  10.00
  0
VERTEX
  8
1
 10
  38.83
 20
   1.46
  0
VERTEX
  8
1
 10
  33.39
 20
   0.00
  0
VERTEX
  8
1
 10
   0.00
 20
  65.56
  0
VERTEX
  8
1
 10
   9.73
 20
  66.92
  0
VERTEX
  8
1
 10
  31.72
 20
  70.20
  0
VERTEX
  8
1
 10
  73.87
 20
  77.67
  0
VERTEX
  8
1
 10
 106.56
 20
  83.44
  0
VERTEX
  8
1
 10
 130.31
 20
  87.08
  0
VERTEX
  8
1
 10
 170.33
 20
  91.79
  0
VERTEX
  8
1
 10
 201.20
 20
  94.21
  0
VERTEX
  8
1
 10
 227.98
 20
  94.87
  0
VERTEX
  8
1
 10
 227.98
 20
  27.72
  0
SEQEND
  8
1
  0
TEXT
  8
2
 10
 227.98
 20
  94.87
 40
  10.00
  1
#-138
  0
TEXT
  8
2
 10
   0.00
 20
  65.56
 40
  10.00
  1
#-139
  0
TEXT
  8
2
 10
  33.39
 20
   0.00
 40
  10.00
  1
#-140
  0
TEXT
  8
2
 10
 200.82
 20
  27.72
 40
  10.00
  1
#-141
  0
TEXT
  8
2
 10
 227.98
 20
  27.72
 40
  10.00
  1
#-142
  0
POINT
  8
3
 10
 162.31
 20
  24.55
  0
POINT
  8
3
 10
 114.55
 20
  17.90
  0
POINT
  8
3
 10
  73.74
 20
  10.00
  0
POINT
  8
3
 10
  38.83
 20
   1.46
  0
POINT
  8
3
 10
   9.73
 20
  66.92
  0
POINT
  8
3
 10
  31.72
 20
  70.20
  0
POINT
  8
3
 10
  73.87
 20
  77.67
  0
POINT
  8
3
 10
 106.56
 20
  83.44
  0
POINT
  8
3
 10
 130.31
 20
  87.08
  0
POINT
  8
3
 10
 170.33
 20
  91.79
  0
POINT
  8
3
 10
 201.20
 20
  94.21
  0
POINT
  8
2
 10
 200.82
 20
  27.72
  0
POINT
  8
2
 10
  33.39
 20
   0.00
  0
POINT
  8
2
 10
 227.98
 20
  27.72
  0
POINT
  8
2
 10
  33.39
 20
   0.00
  0
POINT
  8
2
 10
   0.00
 20
  65.56
  0
POINT
  8
2
 10
 227.98
 20
  94.87
  0
POINT
  8
2
 10
   0.00
 20
  65.56
  0
POINT
  8
2
 10
 227.98
 20
  94.87
  0
POLYLINE
  8
14
 66
  1
 70
  0
  0
VERTEX
  8
14
 10
 227.98
 20
  34.72
  0
VERTEX
  8
14
 10
 200.55
 20
  34.72
  0
VERTEX
  8
14
 10
 161.55
 20
  31.51
  0
VERTEX
  8
14
 10
 113.39
 20
  24.80
  0
VERTEX
  8
14
 10
  72.22
 20
  16.83
  0
VERTEX
  8
14
 10
  37.05
 20
   8.23
  0
VERTEX
  8
14
 10
  10.69
 20
  59.98
  0
VERTEX
  8
14
 10
  32.86
 20
  63.30
  0
VERTEX
  8
14
 10
  75.09
 20
  70.78
  0
VERTEX
  8
14
 10
 107.72
 20
  76.54
  0
VERTEX
  8
14
 10
 131.26
 20
  80.14
  0
VERTEX
  8
14
 10
 171.03
 20
  84.82
  0
VERTEX
  8
14
 10
 201.55
 20
  87.22
  0
VERTEX
  8
14
 10
 227.98
 20
  87.87
  0
SEQEND
  8
14
  0
TEXT
  8
2
 10
 227.98
 20
  87.87
 40
  10.00
  1
#-143
  0
TEXT
  8
3
 10
 201.55
 20
  87.22
 40
  10.00
  1
#-144
  0
TEXT
  8
3
 10
 171.03
 20
  84.82
 40
  10.00
  1
#-145
  0
TEXT
  8
3
 10
 131.26
 20
  80.14
 40
  10.00
  1
#-146
  0
TEXT
  8
3
 10
 107.72
 20
  76.54
 40
  10.00
  1
#-147
  0
TEXT
  8
3
 10
  32.86
 20
  63.30
 40
  10.00
  1
#-148
  0
TEXT
  8
2
 10
  10.69
 20
  59.98
 40
  10.00
  1
#-149
  0
TEXT
  8
2
 10
  37.05
 20
   8.23
 40
  10.00
  1
#-150
  0
TEXT
  8
3
 10
  72.22
 20
  16.83
 40
  10.00
  1
#-151
  0
TEXT
  8
3
 10
 113.39
 20
  24.80
 40
  10.00
  1
#-152
  0
TEXT
  8
3
 10
 161.55
 20
  31.51
 40
  10.00
  1
#-153
  0
TEXT
  8
2
 10
 200.55
 20
  34.72
 40
  10.00
  1
#-154
  0
TEXT
  8
2
 10
 227.98
 20
  34.72
 40
  10.00
  1
#-155
  0
POINT
  8
3
 10
 161.55
 20
  31.51
  0
POINT
  8
3
 10
 113.39
 20
  24.80
  0
POINT
  8
3
 10
  72.22
 20
  16.83
  0
POINT
  8
3
 10
  32.86
 20
  63.30
  0
POINT
  8
3
 10
  75.09
 20
  70.78
  0
POINT
  8
3
 10
 107.72
 20
  76.54
  0
POINT
  8
3
 10
 131.26
 20
  80.14
  0
POINT
  8
3
 10
 171.03
 20
  84.82
  0
POINT
  8
3
 10
 201.55
 20
  87.22
  0
POINT
  8
2
 10
 200.55
 20
  34.72
  0
POINT
  8
2
 10
  37.05
 20
   8.23
  0
POINT
  8
2
 10
 227.98
 20
  34.72
  0
POINT
  8
2
 10
  37.05
 20
   8.23
  0
POINT
  8
2
 10
  10.69
 20
  59.98
  0
POINT
  8
2
 10
 227.98
 20
  87.87
  0
POINT
  8
2
 10
  10.69
 20
  59.98
  0
POINT
  8
2
 10
 227.98
 20
  87.87
  0
LINE
  8
6
 10
 227.98
 20
  94.87
 11
 227.98
 21
  27.72
  0
TEXT
  8
15
 72
3
 10
  71.14
 20
  44.19
 11
 133.42
 21
  53.90
 40
   6.30
 50
   8.87
  1
Oberkragen
  0
TEXT
  8
2
 10
  71.14
 20
  44.19
 40
  10.00
  1
#-15
  0
TEXT
  8
2
 10
 133.42
 20
  53.90
 40
  10.00
  1
#-15
  0
LINE
  8
8
 10
 227.98
 20
  87.87
 11
 227.98
 21
  34.72
  0
TEXT
  8
2
 10
 227.98
 20
  34.72
 40
  10.00
  1
#-15
  0
TEXT
  8
2
 10
 227.98
 20
  87.87
 40
  10.00
  1
#-156
  0
TEXT
  8
8
 10
 227.98
 20
  87.87
 40
  10.00
  1
NM
  0
LINE
  8
7
 10
 227.98
 20
  34.72
 11
 227.98
 21
  87.87
  0
TEXT
  8
2
 10
 227.98
 20
  87.87
 40
  10.00
  1
#-157
  0
TEXT
  8
2
 10
 227.98
 20
  34.72
 40
  10.00
  1
#-15
  0
POINT
  8
4
 10
 227.98
 20
  34.72
 30
   4.00
 50
  90.00
  0
TEXT
  8
4
 10
 227.98
 20
  34.72
 40
  10.00
  1
#-155
  0
POINT
  8
4
 10
 227.98
 20
  87.87
 30
   4.00
 50
 -90.00
  0
TEXT
  8
4
 10
 227.98
 20
  87.87
 40
  10.00
  1
#-143
  0
POINT
  8
4
 10
 227.98
 20
  94.87
 30
   4.00
 50
 -90.06
  0
TEXT
  8
4
 10
 227.98
 20
  94.87
 40
  10.00
  1
#-138
  0
POINT
  8
4
 10
 227.98
 20
  27.72
 30
   4.00
 50
  90.00
  0
TEXT
  8
4
 10
 227.98
 20
  27.72
 40
  10.00
  1
#-142
  0
TEXT
  8
1
 10
 227.98
 20
  66.19
 40
  10.00
  1
Piece Name: x4--------BL-------S1O
  0
TEXT
  8
1
 10
 227.98
 20
  53.69
 40
  10.00
  1
Size: 38
  0
TEXT
  8
1
 10
 227.98
 20
  41.19
 40
  10.00
  1
Annotation: --------BL-------S1OK----1X-03
  0
TEXT
  8
1
 10
 227.98
 20
  28.69
 40
  10.00
  1
Quantity: 1
  0
TEXT
  8
1
 10
 227.98
 20
  16.19
 40
  10.00
  1
Category: 
  0
ENDBLK
  8
1
  0
BLOCK
  8
1
  2
Piece05
 70
  0
 10
   0.00
 20
   0.00
  0
POLYLINE
  8
1
 66
  1
 70
  0
  0
VERTEX
  8
1
 10
 285.01
 20
   0.23
  0
VERTEX
  8
1
 10
 245.61
 20
   0.00
  0
VERTEX
  8
1
 10
 197.91
 20
   3.00
  0
VERTEX
  8
1
 10
 148.96
 20
   6.69
  0
VERTEX
  8
1
 10
 113.19
 20
  10.72
  0
VERTEX
  8
1
 10
  77.78
 20
  15.47
  0
VERTEX
  8
1
 10
  42.92
 20
  20.10
  0
VERTEX
  8
1
 10
   8.80
 20
  23.81
  0
VERTEX
  8
1
 10
   0.00
 20
  24.66
  0
VERTEX
  8
1
 10
   0.30
 20
  39.70
  0
VERTEX
  8
1
 10
   2.31
 20
 138.97
  0
VERTEX
  8
1
 10
   2.32
 20
 139.16
  0
VERTEX
  8
1
 10
   7.82
 20
 228.96
  0
VERTEX
  8
1
 10
  11.16
 20
 266.47
  0
VERTEX
  8
1
 10
  15.19
 20
 301.33
  0
VERTEX
  8
1
 10
  17.10
 20
 317.38
  0
VERTEX
  8
1
 10
  16.76
 20
 341.19
  0
VERTEX
  8
1
 10
  13.29
 20
 391.14
  0
VERTEX
  8
1
 10
  11.91
 20
 403.94
  0
VERTEX
  8
1
 10
  11.29
 20
 410.22
  0
VERTEX
  8
1
 10
   9.44
 20
 437.25
  0
VERTEX
  8
1
 10
   7.44
 20
 464.59
  0
VERTEX
  8
1
 10
   7.18
 20
 484.88
  0
VERTEX
  8
1
 10
   7.31
 20
 494.95
  0
VERTEX
  8
1
 10
  17.28
 20
 494.78
  0
VERTEX
  8
1
 10
  23.43
 20
 494.91
  0
VERTEX
  8
1
 10
  30.31
 20
 495.62
  0
VERTEX
  8
1
 10
  40.12
 20
 498.10
  0
VERTEX
  8
1
 10
  50.85
 20
 503.17
  0
VERTEX
  8
1
 10
  58.06
 20
 508.47
  0
VERTEX
  8
1
 10
  68.73
 20
 521.87
  0
VERTEX
  8
1
 10
  74.64
 20
 534.50
  0
VERTEX
  8
1
 10
  78.47
 20
 549.67
  0
VERTEX
  8
1
 10
  79.52
 20
 558.76
  0
VERTEX
  8
1
 10
  79.86
 20
 564.03
  0
VERTEX
  8
1
 10
  80.24
 20
 572.58
  0
VERTEX
  8
1
 10
  80.75
 20
 602.08
  0
VERTEX
  8
1
 10
  79.98
 20
 622.36
  0
VERTEX
  8
1
 10
  79.44
 20
 632.59
  0
VERTEX
  8
1
 10
  78.23
 20
 654.36
  0
VERTEX
  8
1
 10
  76.98
 20
 668.11
  0
VERTEX
  8
1
 10
  75.21
 20
 683.61
  0
VERTEX
  8
1
 10
  72.34
 20
 700.50
  0
VERTEX
  8
1
 10
  70.44
 20
 710.07
  0
VERTEX
  8
1
 10
  80.05
 20
 712.15
  0
VERTEX
  8
1
 10
  91.81
 20
 714.72
  0
VERTEX
  8
1
 10
 203.33
 20
 740.96
  0
VERTEX
  8
1
 10
 212.30
 20
 743.21
  0
VERTEX
  8
1
 10
 215.09
 20
 734.69
  0
VERTEX
  8
1
 10
 219.02
 20
 726.56
  0
VERTEX
  8
1
 10
 223.84
 20
 721.03
  0
VERTEX
  8
1
 10
 230.57
 20
 716.37
  0
VERTEX
  8
1
 10
 238.41
 20
 713.37
  0
VERTEX
  8
1
 10
 250.22
 20
 711.13
  0
VERTEX
  8
1
 10
 252.60
 20
 710.83
  0
VERTEX
  8
1
 10
 276.22
 20
 709.52
  0
VERTEX
  8
1
 10
 285.01
 20
 709.41
  0
VERTEX
  8
1
 10
 285.01
 20
   0.23
  0
SEQEND
  8
1
  0
TEXT
  8
2
 10
 285.01
 20
 709.41
 40
  10.00
  1
#-158
  0
TEXT
  8
3
 10
 250.22
 20
 711.13
 40
  10.00
  1
#-159
  0
TEXT
  8
2
 10
 212.30
 20
 743.21
 40
  10.00
  1
#-160
  0
TEXT
  8
2
 10
  70.44
 20
 710.07
 40
  10.00
  1
#-161
  0
TEXT
  8
3
 10
  79.98
 20
 622.36
 40
  10.00
  1
#-162
  0
TEXT
  8
3
 10
  79.52
 20
 558.76
 40
  10.00
  1
#-163
  0
TEXT
  8
3
 10
  78.47
 20
 549.67
 40
  10.00
  1
#-164
  0
TEXT
  8
2
 10
   7.31
 20
 494.95
 40
  10.00
  1
#-165
  0
TEXT
  8
3
 10
  11.91
 20
 403.94
 40
  10.00
  1
#-166
  0
TEXT
  8
2
 10
  17.10
 20
 317.38
 40
  10.00
  1
#-167
  0
TEXT
  8
2
 10
   2.31
 20
 138.97
 40
  10.00
  1
#-168
  0
TEXT
  8
3
 10
   0.30
 20
  39.70
 40
  10.00
  1
#-169
  0
TEXT
  8
2
 10
   0.00
 20
  24.66
 40
  10.00
  1
#-170
  0
TEXT
  8
2
 10
 285.01
 20
   0.23
 40
  10.00
  1
#-171
  0
POINT
  8
3
 10
 245.61
 20
   0.00
  0
POINT
  8
3
 10
 197.91
 20
   3.00
  0
POINT
  8
3
 10
 148.96
 20
   6.69
  0
POINT
  8
3
 10
 113.19
 20
  10.72
  0
POINT
  8
3
 10
  77.78
 20
  15.47
  0
POINT
  8
3
 10
  42.92
 20
  20.10
  0
POINT
  8
3
 10
   8.80
 20
  23.81
  0
POINT
  8
3
 10
   0.30
 20
  39.70
  0
POINT
  8
3
 10
   2.32
 20
 139.16
  0
POINT
  8
3
 10
   7.82
 20
 228.96
  0
POINT
  8
3
 10
  11.16
 20
 266.47
  0
POINT
  8
3
 10
  15.19
 20
 301.33
  0
POINT
  8
3
 10
  16.76
 20
 341.19
  0
POINT
  8
3
 10
  13.29
 20
 391.14
  0
POINT
  8
3
 10
  11.91
 20
 403.94
  0
POINT
  8
3
 10
  11.29
 20
 410.22
  0
POINT
  8
3
 10
   9.44
 20
 437.25
  0
POINT
  8
3
 10
   7.44
 20
 464.59
  0
POINT
  8
3
 10
   7.18
 20
 484.88
  0
POINT
  8
3
 10
  17.28
 20
 494.78
  0
POINT
  8
3
 10
  23.43
 20
 494.91
  0
POINT
  8
3
 10
  30.31
 20
 495.62
  0
POINT
  8
3
 10
  40.12
 20
 498.10
  0
POINT
  8
3
 10
  50.85
 20
 503.17
  0
POINT
  8
3
 10
  58.06
 20
 508.47
  0
POINT
  8
3
 10
  68.73
 20
 521.87
  0
POINT
  8
3
 10
  74.64
 20
 534.50
  0
POINT
  8
3
 10
  78.47
 20
 549.67
  0
POINT
  8
3
 10
  79.52
 20
 558.76
  0
POINT
  8
3
 10
  79.86
 20
 564.03
  0
POINT
  8
3
 10
  80.24
 20
 572.58
  0
POINT
  8
3
 10
  80.75
 20
 602.08
  0
POINT
  8
3
 10
  79.98
 20
 622.36
  0
POINT
  8
3
 10
  79.44
 20
 632.59
  0
POINT
  8
3
 10
  78.23
 20
 654.36
  0
POINT
  8
3
 10
  76.98
 20
 668.11
  0
POINT
  8
3
 10
  75.21
 20
 683.61
  0
POINT
  8
3
 10
  72.34
 20
 700.50
  0
POINT
  8
3
 10
  80.05
 20
 712.15
  0
POINT
  8
3
 10
  91.81
 20
 714.72
  0
POINT
  8
3
 10
 203.33
 20
 740.96
  0
POINT
  8
3
 10
 215.09
 20
 734.69
  0
POINT
  8
3
 10
 219.02
 20
 726.56
  0
POINT
  8
3
 10
 223.84
 20
 721.03
  0
POINT
  8
3
 10
 230.57
 20
 716.37
  0
POINT
  8
3
 10
 238.41
 20
 713.37
  0
POINT
  8
3
 10
 250.22
 20
 711.13
  0
POINT
  8
3
 10
 252.60
 20
 710.83
  0
POINT
  8
3
 10
 276.22
 20
 709.52
  0
POINT
  8
2
 10
   0.00
 20
  24.66
  0
POINT
  8
2
 10
 285.01
 20
   0.23
  0
POINT
  8
2
 10
   0.00
 20
  24.66
  0
POINT
  8
2
 10
   2.31
 20
 138.97
  0
POINT
  8
2
 10
  17.10
 20
 317.38
  0
POINT
  8
2
 10
   0.00
 20
  24.66
  0
POINT
  8
2
 10
  17.10
 20
 317.38
  0
POINT
  8
2
 10
   7.31
 20
 494.95
  0
POINT
  8
2
 10
  17.10
 20
 317.38
  0
POINT
  8
2
 10
   7.31
 20
 494.95
  0
POINT
  8
2
 10
  70.44
 20
 710.07
  0
POINT
  8
2
 10
   7.31
 20
 494.95
  0
POINT
  8
2
 10
  70.44
 20
 710.07
  0
POINT
  8
2
 10
 212.30
 20
 743.21
  0
POINT
  8
2
 10
  70.44
 20
 710.07
  0
POINT
  8
2
 10
 212.30
 20
 743.21
  0
POINT
  8
2
 10
 285.01
 20
 709.41
  0
POINT
  8
2
 10
 212.30
 20
 743.21
  0
POINT
  8
2
 10
 285.01
 20
 709.41
  0
POLYLINE
  8
14
 66
  1
 70
  0
  0
VERTEX
  8
14
 10
 285.01
 20
  15.23
  0
VERTEX
  8
14
 10
 246.05
 20
  15.00
  0
VERTEX
  8
14
 10
 199.19
 20
  17.94
  0
VERTEX
  8
14
 10
 150.36
 20
  21.62
  0
VERTEX
  8
14
 10
 115.09
 20
  25.60
  0
VERTEX
  8
14
 10
  79.77
 20
  30.34
  0
VERTEX
  8
14
 10
  44.73
 20
  34.99
  0
VERTEX
  8
14
 10
  10.29
 20
  38.74
  0
VERTEX
  8
14
 10
  12.31
 20
 138.67
  0
VERTEX
  8
14
 10
  17.79
 20
 228.22
  0
VERTEX
  8
14
 10
  21.10
 20
 265.43
  0
VERTEX
  8
14
 10
  25.10
 20
 300.04
  0
VERTEX
  8
14
 10
  27.10
 20
 316.84
  0
VERTEX
  8
14
 10
  26.76
 20
 341.60
  0
VERTEX
  8
14
 10
  23.25
 20
 392.07
  0
VERTEX
  8
14
 10
  21.86
 20
 404.96
  0
VERTEX
  8
14
 10
  21.25
 20
 411.06
  0
VERTEX
  8
14
 10
  19.44
 20
 437.63
  0
VERTEX
  8
14
 10
  17.43
 20
 465.02
  0
VERTEX
  8
14
 10
  17.18
 20
 484.78
  0
VERTEX
  8
14
 10
  23.90
 20
 484.92
  0
VERTEX
  8
14
 10
  31.93
 20
 485.75
  0
VERTEX
  8
14
 10
  43.45
 20
 488.66
  0
VERTEX
  8
14
 10
  55.88
 20
 494.54
  0
VERTEX
  8
14
 10
  64.86
 20
 501.14
  0
VERTEX
  8
14
 10
  77.54
 20
 517.06
  0
VERTEX
  8
14
 10
  84.09
 20
 531.19
  0
VERTEX
  8
14
 10
  88.32
 20
 548.01
  0
VERTEX
  8
14
 10
  89.48
 20
 557.92
  0
VERTEX
  8
14
 10
  89.85
 20
 563.53
  0
VERTEX
  8
14
 10
  90.24
 20
 572.21
  0
VERTEX
  8
14
 10
  90.75
 20
 602.19
  0
VERTEX
  8
14
 10
  89.97
 20
 622.84
  0
VERTEX
  8
14
 10
  89.44
 20
 632.91
  0
VERTEX
  8
14
 10
  88.20
 20
 655.08
  0
VERTEX
  8
14
 10
  86.93
 20
 669.09
  0
VERTEX
  8
14
 10
  85.11
 20
 685.01
  0
VERTEX
  8
14
 10
  82.16
 20
 702.38
  0
VERTEX
  8
14
 10
  94.00
 20
 704.96
  0
VERTEX
  8
14
 10
 205.70
 20
 731.25
  0
VERTEX
  8
14
 10
 210.60
 20
 721.13
  0
VERTEX
  8
14
 10
 217.20
 20
 713.55
  0
VERTEX
  8
14
 10
 225.97
 20
 707.48
  0
VERTEX
  8
14
 10
 235.85
 20
 703.70
  0
VERTEX
  8
14
 10
 248.84
 20
 701.23
  0
VERTEX
  8
14
 10
 251.70
 20
 700.87
  0
VERTEX
  8
14
 10
 275.96
 20
 699.52
  0
VERTEX
  8
14
 10
 285.01
 20
 699.41
  0
SEQEND
  8
14
  0
TEXT
  8
2
 10
 285.01
 20
 699.41
 40
  10.00
  1
#-172
  0
TEXT
  8
3
 10
 248.84
 20
 701.23
 40
  10.00
  1
#-173
  0
TEXT
  8
2
 10
 205.70
 20
 731.25
 40
  10.00
  1
#-174
  0
TEXT
  8
3
 10
  94.00
 20
 704.96
 40
  10.00
  1
#-175
  0
TEXT
  8
2
 10
  82.16
 20
 702.38
 40
  10.00
  1
#-176
  0
TEXT
  8
3
 10
  89.97
 20
 622.84
 40
  10.00
  1
#-177
  0
TEXT
  8
3
 10
  89.48
 20
 557.92
 40
  10.00
  1
#-178
  0
TEXT
  8
3
 10
  88.32
 20
 548.01
 40
  10.00
  1
#-179
  0
TEXT
  8
2
 10
  17.18
 20
 484.78
 40
  10.00
  1
#-180
  0
TEXT
  8
3
 10
  21.86
 20
 404.96
 40
  10.00
  1
#-181
  0
TEXT
  8
2
 10
  27.10
 20
 316.84
 40
  10.00
  1
#-182
  0
TEXT
  8
3
 10
  25.10
 20
 300.04
 40
  10.00
  1
#-183
  0
TEXT
  8
3
 10
  21.10
 20
 265.43
 40
  10.00
  1
#-184
  0
TEXT
  8
3
 10
  17.79
 20
 228.22
 40
  10.00
  1
#-185
  0
TEXT
  8
2
 10
  12.31
 20
 138.67
 40
  10.00
  1
#-186
  0
TEXT
  8
2
 10
  10.29
 20
  38.74
 40
  10.00
  1
#-187
  0
TEXT
  8
3
 10
 150.36
 20
  21.62
 40
  10.00
  1
#-188
  0
TEXT
  8
3
 10
 246.05
 20
  15.00
 40
  10.00
  1
#-189
  0
TEXT
  8
2
 10
 285.01
 20
  15.23
 40
  10.00
  1
#-190
  0
POINT
  8
3
 10
 246.05
 20
  15.00
  0
POINT
  8
3
 10
 199.19
 20
  17.94
  0
POINT
  8
3
 10
 150.36
 20
  21.62
  0
POINT
  8
3
 10
 115.09
 20
  25.60
  0
POINT
  8
3
 10
  79.77
 20
  30.34
  0
POINT
  8
3
 10
  44.73
 20
  34.99
  0
POINT
  8
3
 10
  17.79
 20
 228.22
  0
POINT
  8
3
 10
  21.10
 20
 265.43
  0
POINT
  8
3
 10
  25.10
 20
 300.04
  0
POINT
  8
3
 10
  26.76
 20
 341.60
  0
POINT
  8
3
 10
  23.25
 20
 392.07
  0
POINT
  8
3
 10
  21.86
 20
 404.96
  0
POINT
  8
3
 10
  21.25
 20
 411.06
  0
POINT
  8
3
 10
  19.44
 20
 437.63
  0
POINT
  8
3
 10
  17.43
 20
 465.02
  0
POINT
  8
3
 10
  23.90
 20
 484.92
  0
POINT
  8
3
 10
  31.93
 20
 485.75
  0
POINT
  8
3
 10
  43.45
 20
 488.66
  0
POINT
  8
3
 10
  55.88
 20
 494.54
  0
POINT
  8
3
 10
  64.86
 20
 501.14
  0
POINT
  8
3
 10
  77.54
 20
 517.06
  0
POINT
  8
3
 10
  84.09
 20
 531.19
  0
POINT
  8
3
 10
  88.32
 20
 548.01
  0
POINT
  8
3
 10
  89.48
 20
 557.92
  0
POINT
  8
3
 10
  89.85
 20
 563.53
  0
POINT
  8
3
 10
  90.24
 20
 572.21
  0
POINT
  8
3
 10
  90.75
 20
 602.19
  0
POINT
  8
3
 10
  89.97
 20
 622.84
  0
POINT
  8
3
 10
  89.44
 20
 632.91
  0
POINT
  8
3
 10
  88.20
 20
 655.08
  0
POINT
  8
3
 10
  86.93
 20
 669.09
  0
POINT
  8
3
 10
  85.11
 20
 685.01
  0
POINT
  8
3
 10
  94.00
 20
 704.96
  0
POINT
  8
3
 10
 210.60
 20
 721.13
  0
POINT
  8
3
 10
 217.20
 20
 713.55
  0
POINT
  8
3
 10
 225.97
 20
 707.48
  0
POINT
  8
3
 10
 235.85
 20
 703.70
  0
POINT
  8
3
 10
 248.84
 20
 701.23
  0
POINT
  8
3
 10
 251.70
 20
 700.87
  0
POINT
  8
3
 10
 275.96
 20
 699.52
  0
POINT
  8
2
 10
  10.29
 20
  38.74
  0
POINT
  8
2
 10
 285.01
 20
  15.23
  0
POINT
  8
2
 10
  10.29
 20
  38.74
  0
POINT
  8
2
 10
  12.31
 20
 138.67
  0
POINT
  8
2
 10
  27.10
 20
 316.84
  0
POINT
  8
2
 10
  10.29
 20
  38.74
  0
POINT
  8
2
 10
  27.10
 20
 316.84
  0
POINT
  8
2
 10
  17.18
 20
 484.78
  0
POINT
  8
2
 10
  27.10
 20
 316.84
  0
POINT
  8
2
 10
  17.18
 20
 484.78
  0
POINT
  8
2
 10
  82.16
 20
 702.38
  0
POINT
  8
2
 10
  17.18
 20
 484.78
  0
POINT
  8
2
 10
  82.16
 20
 702.38
  0
POINT
  8
2
 10
 205.70
 20
 731.25
  0
POINT
  8
2
 10
  82.16
 20
 702.38
  0
POINT
  8
2
 10
 205.70
 20
 731.25
  0
POINT
  8
2
 10
 285.01
 20
 699.41
  0
POINT
  8
2
 10
 205.70
 20
 731.25
  0
POINT
  8
2
 10
 285.01
 20
 699.41
  0
LINE
  8
6
 10
 285.01
 20
 709.41
 11
 285.01
 21
   0.23
  0
POINT
  8
13
 10
 174.68
 20
 297.73
  0
TEXT
  8
13
 10
 174.68
 20
 297.73
 40
  10.00
  1
#-191
  0
POINT
  8
13
 10
 173.91
 20
 317.69
  0
TEXT
  8
13
 10
 173.91
 20
 317.69
 40
  10.00
  1
#-192
  0
POINT
  8
13
 10
 188.20
 20
 297.81
  0
TEXT
  8
13
 10
 188.20
 20
 297.81
 40
  10.00
  1
#-193
  0
POINT
  8
13
 10
 188.87
 20
 317.78
  0
TEXT
  8
13
 10
 188.87
 20
 317.78
 40
  10.00
  1
#-194
  0
POINT
  8
13
 10
 182.22
 20
 162.74
  0
TEXT
  8
13
 10
 182.22
 20
 162.74
 40
  10.00
  1
#-195
  0
POINT
  8
13
 10
 180.45
 20
 465.74
  0
TEXT
  8
13
 10
 180.45
 20
 465.74
 40
  10.00
  1
#-196
  0
TEXT
  8
15
 72
3
 10
 147.26
 20
 511.75
 11
 186.68
 21
 511.75
 40
  19.71
 50
   0.00
  1
RT
  0
TEXT
  8
2
 10
 147.26
 20
 511.75
 40
  10.00
  1
#-15
  0
TEXT
  8
2
 10
 186.68
 20
 511.75
 40
  10.00
  1
#-15
  0
LINE
  8
8
 10
 205.73
 20
 731.20
 11
 205.73
 21
 307.76
  0
TEXT
  8
2
 10
 205.73
 20
 307.76
 40
  10.00
  1
#-197
  0
TEXT
  8
2
 10
 205.73
 20
 731.20
 40
  10.00
  1
#-198
  0
POLYLINE
  8
8
 66
  1
 70
  0
  0
VERTEX
  8
8
 10
 285.01
 20
 580.53
  0
VERTEX
  8
8
 10
  90.52
 20
 580.53
  0
SEQEND
  8
8
  0
TEXT
  8
2
 10
  90.52
 20
 580.53
 40
  10.00
  1
#-199
  0
TEXT
  8
2
 10
 285.01
 20
 580.53
 40
  10.00
  1
#-200
  0
POINT
  8
2
 10
  90.52
 20
 580.53
  0
POINT
  8
2
 10
 285.01
 20
 580.53
  0
POINT
  8
2
 10
  90.52
 20
 580.53
  0
LINE
  8
8
 10
 285.01
 20
 699.41
 11
 285.01
 21
 731.20
  0
TEXT
  8
2
 10
 285.01
 20
 731.20
 40
  10.00
  1
#-201
  0
TEXT
  8
2
 10
 285.01
 20
 699.41
 40
  10.00
  1
#-202
  0
TEXT
  8
8
 10
 285.01
 20
 699.41
 40
  10.00
  1
NM
  0
LINE
  8
8
 10
 285.01
 20
 307.81
 11
 193.87
 21
 307.81
  0
TEXT
  8
2
 10
 193.87
 20
 307.81
 40
  10.00
  1
#-203
  0
TEXT
  8
2
 10
 285.01
 20
 307.81
 40
  10.00
  1
#-204
  0
LINE
  8
8
 10
 168.87
 20
 307.67
 11
  27.06
 21
 316.81
  0
TEXT
  8
2
 10
  27.06
 20
 316.81
 40
  10.00
  1
#-205
  0
TEXT
  8
2
 10
 168.87
 20
 307.67
 40
  10.00
  1
#-206
  0
LINE
  8
8
 10
  11.73
 20
 110.37
 11
 285.01
 21
 110.37
  0
TEXT
  8
2
 10
 285.01
 20
 110.37
 40
  10.00
  1
#-15
  0
TEXT
  8
2
 10
  11.73
 20
 110.37
 40
  10.00
  1
#-207
  0
LINE
  8
8
 10
 285.01
 20
  38.71
 11
  10.19
 21
  38.71
  0
TEXT
  8
2
 10
  10.19
 20
  38.71
 40
  10.00
  1
#-208
  0
TEXT
  8
2
 10
 285.01
 20
  38.71
 40
  10.00
  1
#-209
  0
LINE
  8
8
 10
 285.01
 20
 464.76
 11
  17.42
 21
 464.76
  0
TEXT
  8
2
 10
  17.42
 20
 464.76
 40
  10.00
  1
#-210
  0
TEXT
  8
2
 10
 285.01
 20
 464.76
 40
  10.00
  1
#-211
  0
POLYLINE
  8
8
 66
  1
 70
  0
  0
VERTEX
  8
8
 10
 182.30
 20
 147.74
  0
VERTEX
  8
8
 10
 183.08
 20
 165.08
  0
VERTEX
  8
8
 10
 184.88
 20
 191.54
  0
VERTEX
  8
8
 10
 189.39
 20
 249.67
  0
VERTEX
  8
8
 10
 193.87
 20
 307.81
  0
SEQEND
  8
8
  0
TEXT
  8
2
 10
 193.87
 20
 307.81
 40
  10.00
  1
#-212
  0
TEXT
  8
2
 10
 182.30
 20
 147.74
 40
  10.00
  1
#-213
  0
POINT
  8
3
 10
 183.08
 20
 165.08
  0
POINT
  8
3
 10
 184.88
 20
 191.54
  0
POINT
  8
3
 10
 189.39
 20
 249.67
  0
POINT
  8
2
 10
 193.87
 20
 307.81
  0
POINT
  8
2
 10
 182.30
 20
 147.74
  0
POINT
  8
2
 10
 193.87
 20
 307.81
  0
POLYLINE
  8
8
 66
  1
 70
  0
  0
VERTEX
  8
8
 10
 193.87
 20
 307.81
  0
VERTEX
  8
8
 10
 192.82
 20
 331.17
  0
VERTEX
  8
8
 10
 188.50
 20
 376.53
  0
VERTEX
  8
8
 10
 184.63
 20
 414.79
  0
VERTEX
  8
8
 10
 182.39
 20
 439.55
  0
VERTEX
  8
8
 10
 180.85
 20
 462.03
  0
VERTEX
  8
8
 10
 180.36
 20
 480.74
  0
SEQEND
  8
8
  0
TEXT
  8
2
 10
 180.36
 20
 480.74
 40
  10.00
  1
#-214
  0
TEXT
  8
2
 10
 193.87
 20
 307.81
 40
  10.00
  1
#-212
  0
POINT
  8
3
 10
 192.82
 20
 331.17
  0
POINT
  8
3
 10
 188.50
 20
 376.53
  0
POINT
  8
3
 10
 184.63
 20
 414.79
  0
POINT
  8
3
 10
 182.39
 20
 439.55
  0
POINT
  8
3
 10
 180.85
 20
 462.03
  0
POINT
  8
2
 10
 180.36
 20
 480.74
  0
POINT
  8
2
 10
 193.87
 20
 307.81
  0
POINT
  8
2
 10
 180.36
 20
 480.74
  0
POLYLINE
  8
8
 66
  1
 70
  0
  0
VERTEX
  8
8
 10
 180.36
 20
 480.74
  0
VERTEX
  8
8
 10
 179.36
 20
 451.90
  0
VERTEX
  8
8
 10
 174.51
 20
 388.97
  0
VERTEX
  8
8
 10
 170.08
 20
 335.08
  0
VERTEX
  8
8
 10
 168.87
 20
 307.67
  0
SEQEND
  8
8
  0
TEXT
  8
2
 10
 168.87
 20
 307.67
 40
  10.00
  1
#-215
  0
TEXT
  8
2
 10
 180.36
 20
 480.74
 40
  10.00
  1
#-216
  0
POINT
  8
3
 10
 179.36
 20
 451.90
  0
POINT
  8
3
 10
 174.51
 20
 388.97
  0
POINT
  8
3
 10
 170.08
 20
 335.08
  0
POINT
  8
2
 10
 168.87
 20
 307.67
  0
POINT
  8
2
 10
 180.36
 20
 480.74
  0
POINT
  8
2
 10
 168.87
 20
 307.67
  0
POLYLINE
  8
8
 66
  1
 70
  0
  0
VERTEX
  8
8
 10
 168.87
 20
 307.67
  0
VERTEX
  8
8
 10
 173.93
 20
 252.85
  0
VERTEX
  8
8
 10
 178.88
 20
 198.03
  0
VERTEX
  8
8
 10
 181.15
 20
 169.08
  0
VERTEX
  8
8
 10
 182.30
 20
 147.74
  0
SEQEND
  8
8
  0
TEXT
  8
2
 10
 182.30
 20
 147.74
 40
  10.00
  1
#-217
  0
TEXT
  8
2
 10
 168.87
 20
 307.67
 40
  10.00
  1
#-215
  0
POINT
  8
3
 10
 173.93
 20
 252.85
  0
POINT
  8
3
 10
 178.88
 20
 198.03
  0
POINT
  8
3
 10
 181.15
 20
 169.08
  0
POINT
  8
2
 10
 182.30
 20
 147.74
  0
POINT
  8
2
 10
 168.87
 20
 307.67
  0
POINT
  8
2
 10
 182.30
 20
 147.74
  0
LINE
  8
8
 10
 205.73
 20
 731.20
 11
 285.01
 21
 731.20
  0
TEXT
  8
2
 10
 285.01
 20
 731.20
 40
  10.00
  1
#-218
  0
TEXT
  8
2
 10
 205.73
 20
 731.20
 40
  10.00
  1
#-219
  0
LINE
  8
7
 10
 285.01
 20
  15.23
 11
 285.01
 21
 699.41
  0
TEXT
  8
2
 10
 285.01
 20
 699.41
 40
  10.00
  1
#-220
  0
TEXT
  8
2
 10
 285.01
 20
  15.23
 40
  10.00
  1
#-221
  0
POINT
  8
4
 10
 248.84
 20
 701.23
 30
   4.00
 50
 -97.93
  0
TEXT
  8
4
 10
 248.84
 20
 701.23
 40
  10.00
  1
#-173
  0
POINT
  8
4
 10
 285.01
 20
 699.41
 30
   4.00
 50
 -90.09
  0
TEXT
  8
4
 10
 285.01
 20
 699.41
 40
  10.00
  1
#-172
  0
POINT
  8
4
 10
  27.10
 20
 316.84
 30
   4.00
 50
  -6.85
  0
TEXT
  8
4
 10
  27.10
 20
 316.84
 40
  10.00
  1
#-182
  0
POINT
  8
4
 10
  89.97
 20
 622.84
 30
   4.00
 50
   2.77
  0
TEXT
  8
4
 10
  89.97
 20
 622.84
 40
  10.00
  1
#-177
  0
POINT
  8
4
 10
  88.32
 20
 548.01
 30
   4.00
 50
  -9.56
  0
TEXT
  8
4
 10
  88.32
 20
 548.01
 40
  10.00
  1
#-179
  0
POINT
  8
4
 10
  89.48
 20
 557.92
 30
   4.00
 50
  -4.79
  0
TEXT
  8
4
 10
  89.48
 20
 557.92
 40
  10.00
  1
#-178
  0
POINT
  8
4
 10
  11.91
 20
 403.94
 30
   4.00
 50
   5.83
  0
TEXT
  8
4
 10
  11.91
 20
 403.94
 40
  10.00
  1
#-166
  0
POINT
  8
4
 10
  17.10
 20
 317.38
 30
   4.00
 50
  -6.91
  0
TEXT
  8
4
 10
  17.10
 20
 317.38
 40
  10.00
  1
#-167
  0
POINT
  8
4
 10
  21.86
 20
 404.96
 30
   4.00
 50
   5.85
  0
TEXT
  8
4
 10
  21.86
 20
 404.96
 40
  10.00
  1
#-181
  0
POINT
  8
4
 10
   0.30
 20
  39.70
 30
   4.00
 50
  -5.53
  0
TEXT
  8
4
 10
   0.30
 20
  39.70
 40
  10.00
  1
#-169
  0
POINT
  8
4
 10
 250.22
 20
 711.13
 30
   4.00
 50
 -97.93
  0
TEXT
  8
4
 10
 250.22
 20
 711.13
 40
  10.00
  1
#-159
  0
POINT
  8
4
 10
 285.01
 20
 709.41
 30
   4.00
 50
 -90.06
  0
TEXT
  8
4
 10
 285.01
 20
 709.41
 40
  10.00
  1
#-158
  0
POINT
  8
4
 10
  79.98
 20
 622.36
 30
   4.00
 50
   2.78
  0
TEXT
  8
4
 10
  79.98
 20
 622.36
 40
  10.00
  1
#-162
  0
POINT
  8
4
 10
  79.52
 20
 558.76
 30
   4.00
 50
  -4.88
  0
TEXT
  8
4
 10
  79.52
 20
 558.76
 40
  10.00
  1
#-163
  0
POINT
  8
4
 10
  78.47
 20
 549.67
 30
   4.00
 50
  -9.60
  0
TEXT
  8
4
 10
  78.47
 20
 549.67
 40
  10.00
  1
#-164
  0
TEXT
  8
1
 10
 285.01
 20
 390.36
 40
  10.00
  1
Piece Name: x5--------BL-------S1R
  0
TEXT
  8
1
 10
 285.01
 20
 377.86
 40
  10.00
  1
Size: 38
  0
TEXT
  8
1
 10
 285.01
 20
 365.36
 40
  10.00
  1
Annotation: --------BL-------S1RT----1X-02
  0
TEXT
  8
1
 10
 285.01
 20
 352.86
 40
  10.00
  1
Quantity: 1
  0
TEXT
  8
1
 10
 285.01
 20
 340.36
 40
  10.00
  1
Category: 
  0
ENDBLK
  8
1
  0
BLOCK
  8
1
  2
Piece06
 70
  0
 10
   0.00
 20
   0.00
  0
POLYLINE
  8
1
 66
  1
 70
  1
  0
VERTEX
  8
1
 10
   0.00
 20
 444.42
  0
VERTEX
  8
1
 10
  11.20
 20
 444.67
  0
VERTEX
  8
1
 10
  20.69
 20
 445.78
  0
VERTEX
  8
1
 10
  29.86
 20
 448.75
  0
VERTEX
  8
1
 10
  36.32
 20
 452.52
  0
VERTEX
  8
1
 10
  41.68
 20
 457.11
  0
VERTEX
  8
1
 10
  46.34
 20
 462.70
  0
VERTEX
  8
1
 10
  48.89
 20
 466.39
  0
VERTEX
  8
1
 10
  49.66
 20
 467.58
  0
VERTEX
  8
1
 10
  55.92
 20
 478.72
  0
VERTEX
  8
1
 10
  60.51
 20
 488.28
  0
VERTEX
  8
1
 10
  69.79
 20
 509.59
  0
VERTEX
  8
1
 10
  75.14
 20
 522.48
  0
VERTEX
  8
1
 10
  79.23
 20
 531.48
  0
VERTEX
  8
1
 10
  85.08
 20
 542.60
  0
VERTEX
  8
1
 10
  95.60
 20
 557.65
  0
VERTEX
  8
1
 10
 111.35
 20
 573.54
  0
VERTEX
  8
1
 10
 122.34
 20
 580.55
  0
VERTEX
  8
1
 10
 133.51
 20
 585.21
  0
VERTEX
  8
1
 10
 142.60
 20
 587.33
  0
VERTEX
  8
1
 10
 150.33
 20
 588.11
  0
VERTEX
  8
1
 10
 150.49
 20
 588.12
  0
VERTEX
  8
1
 10
 157.18
 20
 588.10
  0
VERTEX
  8
1
 10
 187.28
 20
 584.10
  0
VERTEX
  8
1
 10
 206.05
 20
 578.67
  0
VERTEX
  8
1
 10
 223.24
 20
 571.34
  0
VERTEX
  8
1
 10
 236.83
 20
 563.55
  0
VERTEX
  8
1
 10
 241.39
 20
 560.57
  0
VERTEX
  8
1
 10
 256.91
 20
 548.91
  0
VERTEX
  8
1
 10
 275.81
 20
 529.29
  0
VERTEX
  8
1
 10
 289.48
 20
 512.45
  0
VERTEX
  8
1
 10
 295.73
 20
 504.74
  0
VERTEX
  8
1
 10
 299.14
 20
 500.63
  0
VERTEX
  8
1
 10
 311.95
 20
 486.12
  0
VERTEX
  8
1
 10
 336.27
 20
 460.88
  0
VERTEX
  8
1
 10
 344.00
 20
 454.45
  0
VERTEX
  8
1
 10
 350.42
 20
 450.72
  0
VERTEX
  8
1
 10
 356.70
 20
 448.06
  0
VERTEX
  8
1
 10
 364.93
 20
 445.76
  0
VERTEX
  8
1
 10
 371.37
 20
 444.58
  0
VERTEX
  8
1
 10
 380.43
 20
 443.28
  0
VERTEX
  8
1
 10
 378.10
 20
 404.71
  0
VERTEX
  8
1
 10
 378.08
 20
 404.54
  0
VERTEX
  8
1
 10
 361.87
 20
 228.40
  0
VERTEX
  8
1
 10
 344.91
 20
  10.48
  0
VERTEX
  8
1
 10
 344.24
 20
   0.96
  0
VERTEX
  8
1
 10
 334.81
 20
   1.20
  0
VERTEX
  8
1
 10
 259.40
 20
   0.84
  0
VERTEX
  8
1
 10
 249.89
 20
   0.47
  0
VERTEX
  8
1
 10
 241.71
 20
   0.19
  0
VERTEX
  8
1
 10
 222.95
 20
   0.00
  0
VERTEX
  8
1
 10
 207.32
 20
   0.14
  0
VERTEX
  8
1
 10
 202.73
 20
   0.23
  0
VERTEX
  8
1
 10
 192.59
 20
   0.56
  0
VERTEX
  8
1
 10
 172.51
 20
   1.55
  0
VERTEX
  8
1
 10
 141.65
 20
   3.01
  0
VERTEX
  8
1
 10
  93.24
 20
   3.97
  0
VERTEX
  8
1
 10
  51.31
 20
   1.25
  0
VERTEX
  8
1
 10
  41.07
 20
   0.18
  0
VERTEX
  8
1
 10
  25.70
 20
 228.37
  0
VERTEX
  8
1
 10
   6.26
 20
 404.11
  0
VERTEX
  8
1
 10
   0.00
 20
 444.42
  0
SEQEND
  8
1
  0
TEXT
  8
2
 10
   6.26
 20
 404.11
 40
  10.00
  1
#-222
  0
TEXT
  8
2
 10
  25.70
 20
 228.37
 40
  10.00
  1
#-223
  0
TEXT
  8
2
 10
  41.07
 20
   0.18
 40
  10.00
  1
#-224
  0
TEXT
  8
3
 10
 172.51
 20
   1.55
 40
  10.00
  1
#-225
  0
TEXT
  8
3
 10
 192.59
 20
   0.56
 40
  10.00
  1
#-226
  0
TEXT
  8
3
 10
 202.73
 20
   0.23
 40
  10.00
  1
#-227
  0
TEXT
  8
3
 10
 222.95
 20
   0.00
 40
  10.00
  1
#-228
  0
TEXT
  8
3
 10
 249.89
 20
   0.47
 40
  10.00
  1
#-229
  0
TEXT
  8
2
 10
 344.24
 20
   0.96
 40
  10.00
  1
#-230
  0
TEXT
  8
2
 10
 378.10
 20
 404.71
 40
  10.00
  1
#-231
  0
TEXT
  8
2
 10
 380.43
 20
 443.28
 40
  10.00
  1
#-232
  0
TEXT
  8
2
 10
 336.27
 20
 460.88
 40
  10.00
  1
#-233
  0
TEXT
  8
3
 10
 295.73
 20
 504.74
 40
  10.00
  1
#-234
  0
TEXT
  8
3
 10
 289.48
 20
 512.45
 40
  10.00
  1
#-235
  0
TEXT
  8
3
 10
 236.83
 20
 563.55
 40
  10.00
  1
#-236
  0
TEXT
  8
2
 10
 150.49
 20
 588.12
 40
  10.00
  1
#-237
  0
TEXT
  8
3
 10
  79.23
 20
 531.48
 40
  10.00
  1
#-238
  0
TEXT
  8
3
 10
  48.89
 20
 466.39
 40
  10.00
  1
#-239
  0
TEXT
  8
2
 10
   0.00
 20
 444.42
 40
  10.00
  1
#-240
  0
POINT
  8
3
 10
  11.20
 20
 444.67
  0
POINT
  8
3
 10
  20.69
 20
 445.78
  0
POINT
  8
3
 10
  29.86
 20
 448.75
  0
POINT
  8
3
 10
  36.32
 20
 452.52
  0
POINT
  8
3
 10
  41.68
 20
 457.11
  0
POINT
  8
3
 10
  46.34
 20
 462.70
  0
POINT
  8
3
 10
  48.89
 20
 466.39
  0
POINT
  8
3
 10
  49.66
 20
 467.58
  0
POINT
  8
3
 10
  55.92
 20
 478.72
  0
POINT
  8
3
 10
  60.51
 20
 488.28
  0
POINT
  8
3
 10
  69.79
 20
 509.59
  0
POINT
  8
3
 10
  75.14
 20
 522.48
  0
POINT
  8
3
 10
  79.23
 20
 531.48
  0
POINT
  8
3
 10
  85.08
 20
 542.60
  0
POINT
  8
3
 10
  95.60
 20
 557.65
  0
POINT
  8
3
 10
 111.35
 20
 573.54
  0
POINT
  8
3
 10
 122.34
 20
 580.55
  0
POINT
  8
3
 10
 133.51
 20
 585.21
  0
POINT
  8
3
 10
 142.60
 20
 587.33
  0
POINT
  8
3
 10
 150.33
 20
 588.11
  0
POINT
  8
3
 10
 157.18
 20
 588.10
  0
POINT
  8
3
 10
 187.28
 20
 584.10
  0
POINT
  8
3
 10
 206.05
 20
 578.67
  0
POINT
  8
3
 10
 223.24
 20
 571.34
  0
POINT
  8
3
 10
 236.83
 20
 563.55
  0
POINT
  8
3
 10
 241.39
 20
 560.57
  0
POINT
  8
3
 10
 256.91
 20
 548.91
  0
POINT
  8
3
 10
 275.81
 20
 529.29
  0
POINT
  8
3
 10
 289.48
 20
 512.45
  0
POINT
  8
3
 10
 295.73
 20
 504.74
  0
POINT
  8
3
 10
 299.14
 20
 500.63
  0
POINT
  8
3
 10
 311.95
 20
 486.12
  0
POINT
  8
3
 10
 344.00
 20
 454.45
  0
POINT
  8
3
 10
 350.42
 20
 450.72
  0
POINT
  8
3
 10
 356.70
 20
 448.06
  0
POINT
  8
3
 10
 364.93
 20
 445.76
  0
POINT
  8
3
 10
 371.37
 20
 444.58
  0
POINT
  8
3
 10
 378.08
 20
 404.54
  0
POINT
  8
3
 10
 361.87
 20
 228.40
  0
POINT
  8
3
 10
 344.91
 20
  10.48
  0
POINT
  8
3
 10
 334.81
 20
   1.20
  0
POINT
  8
3
 10
 259.40
 20
   0.84
  0
POINT
  8
3
 10
 249.89
 20
   0.47
  0
POINT
  8
3
 10
 241.71
 20
   0.19
  0
POINT
  8
3
 10
 222.95
 20
   0.00
  0
POINT
  8
3
 10
 207.32
 20
   0.14
  0
POINT
  8
3
 10
 202.73
 20
   0.23
  0
POINT
  8
3
 10
 192.59
 20
   0.56
  0
POINT
  8
3
 10
 172.51
 20
   1.55
  0
POINT
  8
3
 10
 141.65
 20
   3.01
  0
POINT
  8
3
 10
  93.24
 20
   3.97
  0
POINT
  8
3
 10
  51.31
 20
   1.25
  0
POINT
  8
2
 10
 150.49
 20
 588.12
  0
POINT
  8
2
 10
   0.00
 20
 444.42
  0
POINT
  8
2
 10
 150.49
 20
 588.12
  0
POINT
  8
2
 10
 336.27
 20
 460.88
  0
POINT
  8
2
 10
 380.43
 20
 443.28
  0
POINT
  8
2
 10
 150.49
 20
 588.12
  0
POINT
  8
2
 10
 380.43
 20
 443.28
  0
POINT
  8
2
 10
 378.10
 20
 404.71
  0
POINT
  8
2
 10
 344.24
 20
   0.96
  0
POINT
  8
2
 10
 380.43
 20
 443.28
  0
POINT
  8
2
 10
 344.24
 20
   0.96
  0
POINT
  8
2
 10
  41.07
 20
   0.18
  0
POINT
  8
2
 10
 344.24
 20
   0.96
  0
POINT
  8
2
 10
  41.07
 20
   0.18
  0
POINT
  8
2
 10
  25.70
 20
 228.37
  0
POINT
  8
2
 10
   6.26
 20
 404.11
  0
POINT
  8
2
 10
   0.00
 20
 444.42
  0
POINT
  8
2
 10
  41.07
 20
   0.18
  0
POINT
  8
2
 10
   0.00
 20
 444.42
  0
POLYLINE
  8
14
 66
  1
 70
  1
  0
VERTEX
  8
14
 10
  11.63
 20
 434.69
  0
VERTEX
  8
14
 10
  22.70
 20
 435.98
  0
VERTEX
  8
14
 10
  33.97
 20
 439.62
  0
VERTEX
  8
14
 10
  42.17
 20
 444.42
  0
VERTEX
  8
14
 10
  48.86
 20
 450.15
  0
VERTEX
  8
14
 10
  54.41
 20
 456.80
  0
VERTEX
  8
14
 10
  57.24
 20
 460.89
  0
VERTEX
  8
14
 10
  58.21
 20
 462.39
  0
VERTEX
  8
14
 10
  64.80
 20
 474.12
  0
VERTEX
  8
14
 10
  69.63
 20
 484.17
  0
VERTEX
  8
14
 10
  78.99
 20
 505.69
  0
VERTEX
  8
14
 10
  84.34
 20
 518.56
  0
VERTEX
  8
14
 10
  88.22
 20
 527.12
  0
VERTEX
  8
14
 10
  93.69
 20
 537.50
  0
VERTEX
  8
14
 10
 103.45
 20
 551.47
  0
VERTEX
  8
14
 10
 117.38
 20
 565.52
  0
VERTEX
  8
14
 10
 136.83
 20
 575.77
  0
VERTEX
  8
14
 10
 143.94
 20
 577.43
  0
VERTEX
  8
14
 10
 150.86
 20
 578.13
  0
VERTEX
  8
14
 10
 156.72
 20
 578.11
  0
VERTEX
  8
14
 10
 184.98
 20
 574.36
  0
VERTEX
  8
14
 10
 202.73
 20
 569.23
  0
VERTEX
  8
14
 10
 218.94
 20
 562.30
  0
VERTEX
  8
14
 10
 231.48
 20
 555.11
  0
VERTEX
  8
14
 10
 235.82
 20
 552.26
  0
VERTEX
  8
14
 10
 250.29
 20
 541.40
  0
VERTEX
  8
14
 10
 268.16
 20
 522.85
  0
VERTEX
  8
14
 10
 281.71
 20
 506.15
  0
VERTEX
  8
14
 10
 288.01
 20
 498.38
  0
VERTEX
  8
14
 10
 291.52
 20
 494.16
  0
VERTEX
  8
14
 10
 304.60
 20
 479.34
  0
VERTEX
  8
14
 10
 329.31
 20
 453.69
  0
VERTEX
  8
14
 10
 338.25
 20
 446.26
  0
VERTEX
  8
14
 10
 346.01
 20
 441.75
  0
VERTEX
  8
14
 10
 353.43
 20
 438.61
  0
VERTEX
  8
14
 10
 362.77
 20
 435.99
  0
VERTEX
  8
14
 10
 369.89
 20
 434.69
  0
VERTEX
  8
14
 10
 368.13
 20
 405.50
  0
VERTEX
  8
14
 10
 351.90
 20
 229.25
  0
VERTEX
  8
14
 10
 334.93
 20
  11.20
  0
VERTEX
  8
14
 10
 259.17
 20
  10.83
  0
VERTEX
  8
14
 10
 249.94
 20
  10.48
  0
VERTEX
  8
14
 10
 241.47
 20
  10.18
  0
VERTEX
  8
14
 10
 222.95
 20
  10.00
  0
VERTEX
  8
14
 10
 207.47
 20
  10.14
  0
VERTEX
  8
14
 10
 202.96
 20
  10.23
  0
VERTEX
  8
14
 10
 192.97
 20
  10.55
  0
VERTEX
  8
14
 10
 172.99
 20
  11.54
  0
VERTEX
  8
14
 10
 142.15
 20
  13.00
  0
VERTEX
  8
14
 10
  93.02
 20
  13.97
  0
VERTEX
  8
14
 10
  50.35
 20
  11.20
  0
VERTEX
  8
14
 10
  35.66
 20
 229.25
  0
VERTEX
  8
14
 10
  16.18
 20
 405.43
  0
VERTEX
  8
14
 10
  11.63
 20
 434.69
  0
SEQEND
  8
14
  0
TEXT
  8
2
 10
  16.18
 20
 405.43
 40
  10.00
  1
#-241
  0
TEXT
  8
2
 10
  35.66
 20
 229.25
 40
  10.00
  1
#-242
  0
TEXT
  8
2
 10
  50.35
 20
  11.20
 40
  10.00
  1
#-243
  0
TEXT
  8
3
 10
 172.99
 20
  11.54
 40
  10.00
  1
#-244
  0
TEXT
  8
3
 10
 192.97
 20
  10.55
 40
  10.00
  1
#-245
  0
TEXT
  8
3
 10
 202.96
 20
  10.23
 40
  10.00
  1
#-246
  0
TEXT
  8
3
 10
 222.95
 20
  10.00
 40
  10.00
  1
#-247
  0
TEXT
  8
3
 10
 249.94
 20
  10.48
 40
  10.00
  1
#-248
  0
TEXT
  8
2
 10
 334.93
 20
  11.20
 40
  10.00
  1
#-249
  0
TEXT
  8
3
 10
 351.90
 20
 229.25
 40
  10.00
  1
#-250
  0
TEXT
  8
2
 10
 368.13
 20
 405.50
 40
  10.00
  1
#-251
  0
TEXT
  8
2
 10
 369.89
 20
 434.69
 40
  10.00
  1
#-252
  0
TEXT
  8
2
 10
 329.31
 20
 453.69
 40
  10.00
  1
#-253
  0
TEXT
  8
3
 10
 288.01
 20
 498.38
 40
  10.00
  1
#-254
  0
TEXT
  8
3
 10
 281.71
 20
 506.15
 40
  10.00
  1
#-255
  0
TEXT
  8
3
 10
 231.48
 20
 555.11
 40
  10.00
  1
#-256
  0
TEXT
  8
2
 10
 150.86
 20
 578.13
 40
  10.00
  1
#-257
  0
TEXT
  8
3
 10
  88.22
 20
 527.12
 40
  10.00
  1
#-258
  0
TEXT
  8
3
 10
  57.24
 20
 460.89
 40
  10.00
  1
#-259
  0
TEXT
  8
2
 10
  11.63
 20
 434.69
 40
  10.00
  1
#-260
  0
POINT
  8
3
 10
  22.70
 20
 435.98
  0
POINT
  8
3
 10
  33.97
 20
 439.62
  0
POINT
  8
3
 10
  42.17
 20
 444.42
  0
POINT
  8
3
 10
  48.86
 20
 450.15
  0
POINT
  8
3
 10
  54.41
 20
 456.80
  0
POINT
  8
3
 10
  57.24
 20
 460.89
  0
POINT
  8
3
 10
  58.21
 20
 462.39
  0
POINT
  8
3
 10
  64.80
 20
 474.12
  0
POINT
  8
3
 10
  69.63
 20
 484.17
  0
POINT
  8
3
 10
  78.99
 20
 505.69
  0
POINT
  8
3
 10
  84.34
 20
 518.56
  0
POINT
  8
3
 10
  88.22
 20
 527.12
  0
POINT
  8
3
 10
  93.69
 20
 537.50
  0
POINT
  8
3
 10
 103.45
 20
 551.47
  0
POINT
  8
3
 10
 117.38
 20
 565.52
  0
POINT
  8
3
 10
 136.83
 20
 575.77
  0
POINT
  8
3
 10
 143.94
 20
 577.43
  0
POINT
  8
3
 10
 156.72
 20
 578.11
  0
POINT
  8
3
 10
 184.98
 20
 574.36
  0
POINT
  8
3
 10
 202.73
 20
 569.23
  0
POINT
  8
3
 10
 218.94
 20
 562.30
  0
POINT
  8
3
 10
 231.48
 20
 555.11
  0
POINT
  8
3
 10
 235.82
 20
 552.26
  0
POINT
  8
3
 10
 250.29
 20
 541.40
  0
POINT
  8
3
 10
 268.16
 20
 522.85
  0
POINT
  8
3
 10
 281.71
 20
 506.15
  0
POINT
  8
3
 10
 288.01
 20
 498.38
  0
POINT
  8
3
 10
 291.52
 20
 494.16
  0
POINT
  8
3
 10
 304.60
 20
 479.34
  0
POINT
  8
3
 10
 338.25
 20
 446.26
  0
POINT
  8
3
 10
 346.01
 20
 441.75
  0
POINT
  8
3
 10
 353.43
 20
 438.61
  0
POINT
  8
3
 10
 362.77
 20
 435.99
  0
POINT
  8
3
 10
 351.90
 20
 229.25
  0
POINT
  8
3
 10
 259.17
 20
  10.83
  0
POINT
  8
3
 10
 249.94
 20
  10.48
  0
POINT
  8
3
 10
 241.47
 20
  10.18
  0
POINT
  8
3
 10
 222.95
 20
  10.00
  0
POINT
  8
3
 10
 207.47
 20
  10.14
  0
POINT
  8
3
 10
 202.96
 20
  10.23
  0
POINT
  8
3
 10
 192.97
 20
  10.55
  0
POINT
  8
3
 10
 172.99
 20
  11.54
  0
POINT
  8
3
 10
 142.15
 20
  13.00
  0
POINT
  8
3
 10
  93.02
 20
  13.97
  0
POINT
  8
2
 10
 150.86
 20
 578.13
  0
POINT
  8
2
 10
  11.63
 20
 434.69
  0
POINT
  8
2
 10
 150.86
 20
 578.13
  0
POINT
  8
2
 10
 329.31
 20
 453.69
  0
POINT
  8
2
 10
 369.89
 20
 434.69
  0
POINT
  8
2
 10
 150.86
 20
 578.13
  0
POINT
  8
2
 10
 369.89
 20
 434.69
  0
POINT
  8
2
 10
 368.13
 20
 405.50
  0
POINT
  8
2
 10
 334.93
 20
  11.20
  0
POINT
  8
2
 10
 369.89
 20
 434.69
  0
POINT
  8
2
 10
 334.93
 20
  11.20
  0
POINT
  8
2
 10
  50.35
 20
  11.20
  0
POINT
  8
2
 10
 334.93
 20
  11.20
  0
POINT
  8
2
 10
  50.35
 20
  11.20
  0
POINT
  8
2
 10
  35.66
 20
 229.25
  0
POINT
  8
2
 10
  16.18
 20
 405.43
  0
POINT
  8
2
 10
  11.63
 20
 434.69
  0
POINT
  8
2
 10
  50.35
 20
  11.20
  0
POINT
  8
2
 10
  11.63
 20
 434.69
  0
TEXT
  8
15
 72
3
 10
 183.77
 20
 219.75
 11
 302.37
 21
 219.75
 40
   9.12
 50
   0.00
  1
Aermel gerade
  0
TEXT
  8
2
 10
 183.77
 20
 219.75
 40
  10.00
  1
#-15
  0
TEXT
  8
2
 10
 302.37
 20
 219.75
 40
  10.00
  1
#-15
  0
LINE
  8
8
 10
  11.63
 20
 434.69
 11
 369.89
 21
 434.69
  0
TEXT
  8
2
 10
 369.89
 20
 434.69
 40
  10.00
  1
#-261
  0
TEXT
  8
2
 10
  11.63
 20
 434.69
 40
  10.00
  1
#-262
  0
LINE
  8
8
 10
 189.07
 20
  26.93
 11
 184.17
 21
  22.88
  0
TEXT
  8
2
 10
 184.17
 20
  22.88
 40
  10.00
  1
#-263
  0
TEXT
  8
2
 10
 189.07
 20
  26.93
 40
  10.00
  1
#-264
  0
LINE
  8
8
 10
 189.07
 20
  26.93
 11
 184.81
 21
  32.89
  0
TEXT
  8
2
 10
 184.81
 20
  32.89
 40
  10.00
  1
#-265
  0
TEXT
  8
2
 10
 189.07
 20
  26.93
 40
  10.00
  1
#-266
  0
LINE
  8
8
 10
 172.66
 20
  28.84
 11
 189.07
 21
  26.93
  0
TEXT
  8
2
 10
 189.07
 20
  26.93
 40
  10.00
  1
#-267
  0
TEXT
  8
2
 10
 172.66
 20
  28.84
 40
  10.00
  1
#-268
  0
LINE
  8
8
 10
 218.13
 20
  25.06
 11
 213.45
 21
  20.16
  0
TEXT
  8
2
 10
 213.45
 20
  20.16
 40
  10.00
  1
#-269
  0
TEXT
  8
2
 10
 218.13
 20
  25.06
 40
  10.00
  1
#-270
  0
LINE
  8
8
 10
 218.13
 20
  25.06
 11
 213.87
 21
  31.24
  0
TEXT
  8
2
 10
 213.87
 20
  31.24
 40
  10.00
  1
#-271
  0
TEXT
  8
2
 10
 218.13
 20
  25.06
 40
  10.00
  1
#-272
  0
LINE
  8
8
 10
 201.72
 20
  25.28
 11
 218.13
 21
  25.06
  0
TEXT
  8
2
 10
 218.13
 20
  25.06
 40
  10.00
  1
#-273
  0
TEXT
  8
2
 10
 201.72
 20
  25.28
 40
  10.00
  1
#-274
  0
LINE
  8
8
 10
  35.66
 20
 229.25
 11
 351.90
 21
 229.25
  0
TEXT
  8
2
 10
 351.90
 20
 229.25
 40
  10.00
  1
#-275
  0
TEXT
  8
2
 10
  35.66
 20
 229.25
 40
  10.00
  1
#-276
  0
LINE
  8
7
 10
 150.86
 20
  13.58
 11
 150.86
 21
 578.13
  0
TEXT
  8
2
 10
 150.86
 20
 578.13
 40
  10.00
  1
#-277
  0
TEXT
  8
2
 10
 150.86
 20
  13.58
 40
  10.00
  1
#-278
  0
LINE
  8
8
 10
 249.94
 20
  81.91
 11
 249.94
 21
  10.48
  0
TEXT
  8
2
 10
 249.94
 20
  10.48
 40
  10.00
  1
#-279
  0
TEXT
  8
2
 10
 249.94
 20
  81.91
 40
  10.00
  1
#-280
  0
POINT
  8
4
 10
 222.95
 20
  10.00
 30
   4.00
 50
  89.99
  0
TEXT
  8
4
 10
 222.95
 20
  10.00
 40
  10.00
  1
#-247
  0
POINT
  8
4
 10
 192.97
 20
  10.55
 30
   4.00
 50
  87.82
  0
TEXT
  8
4
 10
 192.97
 20
  10.55
 40
  10.00
  1
#-245
  0
POINT
  8
4
 10
 202.96
 20
  10.23
 30
   4.00
 50
  88.65
  0
TEXT
  8
4
 10
 202.96
 20
  10.23
 40
  10.00
  1
#-246
  0
POINT
  8
4
 10
 249.94
 20
  10.48
 30
   4.00
 50
  89.74
  0
TEXT
  8
4
 10
 249.94
 20
  10.48
 40
  10.00
  1
#-248
  0
POINT
  8
4
 10
 172.99
 20
  11.54
 30
   4.00
 50
  87.23
  0
TEXT
  8
4
 10
 172.99
 20
  11.54
 40
  10.00
  1
#-244
  0
POINT
  8
4
 10
 231.48
 20
 555.11
 30
   4.00
 50
-122.35
  0
TEXT
  8
4
 10
 231.48
 20
 555.11
 40
  10.00
  1
#-256
  0
POINT
  8
4
 10
 288.01
 20
 498.38
 30
   4.00
 50
-140.51
  0
TEXT
  8
4
 10
 288.01
 20
 498.38
 40
  10.00
  1
#-254
  0
POINT
  8
4
 10
 281.71
 20
 506.15
 30
   4.00
 50
-140.94
  0
TEXT
  8
4
 10
 281.71
 20
 506.15
 40
  10.00
  1
#-255
  0
POINT
  8
4
 10
  88.22
 20
 527.12
 30
   4.00
 50
 -25.85
  0
TEXT
  8
4
 10
  88.22
 20
 527.12
 40
  10.00
  1
#-258
  0
POINT
  8
4
 10
  57.24
 20
 460.89
 30
   4.00
 50
 -33.33
  0
TEXT
  8
4
 10
  57.24
 20
 460.89
 40
  10.00
  1
#-259
  0
POINT
  8
4
 10
 222.95
 20
   0.00
 30
   4.00
 50
  89.99
  0
TEXT
  8
4
 10
 222.95
 20
   0.00
 40
  10.00
  1
#-228
  0
POINT
  8
4
 10
 172.51
 20
   1.55
 30
   4.00
 50
  87.22
  0
TEXT
  8
4
 10
 172.51
 20
   1.55
 40
  10.00
  1
#-225
  0
POINT
  8
4
 10
 249.89
 20
   0.47
 30
   4.00
 50
  89.70
  0
TEXT
  8
4
 10
 249.89
 20
   0.47
 40
  10.00
  1
#-229
  0
POINT
  8
4
 10
 202.73
 20
   0.23
 30
   4.00
 50
  88.67
  0
TEXT
  8
4
 10
 202.73
 20
   0.23
 40
  10.00
  1
#-227
  0
POINT
  8
4
 10
 192.59
 20
   0.56
 30
   4.00
 50
  87.84
  0
TEXT
  8
4
 10
 192.59
 20
   0.56
 40
  10.00
  1
#-226
  0
POINT
  8
4
 10
 236.83
 20
 563.55
 30
   4.00
 50
-122.35
  0
TEXT
  8
4
 10
 236.83
 20
 563.55
 40
  10.00
  1
#-236
  0
POINT
  8
4
 10
 289.48
 20
 512.45
 30
   4.00
 50
-140.96
  0
TEXT
  8
4
 10
 289.48
 20
 512.45
 40
  10.00
  1
#-235
  0
POINT
  8
4
 10
 295.73
 20
 504.74
 30
   4.00
 50
-140.51
  0
TEXT
  8
4
 10
 295.73
 20
 504.74
 40
  10.00
  1
#-234
  0
POINT
  8
4
 10
  79.23
 20
 531.48
 30
   4.00
 50
 -25.91
  0
TEXT
  8
4
 10
  79.23
 20
 531.48
 40
  10.00
  1
#-238
  0
POINT
  8
4
 10
 150.86
 20
 578.13
 30
   4.00
 50
 -87.79
  0
TEXT
  8
4
 10
 150.86
 20
 578.13
 40
  10.00
  1
#-257
  0
POINT
  8
4
 10
 150.49
 20
 588.12
 30
   4.00
 50
 -87.84
  0
TEXT
  8
4
 10
 150.49
 20
 588.12
 40
  10.00
  1
#-237
  0
POINT
  8
4
 10
  48.89
 20
 466.39
 30
   4.00
 50
 -33.35
  0
TEXT
  8
4
 10
  48.89
 20
 466.39
 40
  10.00
  1
#-239
  0
TEXT
  8
1
 10
 190.21
 20
 312.81
 40
  10.00
  1
Piece Name: x6--------BL-------S1A
  0
TEXT
  8
1
 10
 190.21
 20
 300.31
 40
  10.00
  1
Size: 38
  0
TEXT
  8
1
 10
 190.21
 20
 287.81
 40
  10.00
  1
Annotation: --------BL-------S1AE----2X-02
  0
TEXT
  8
1
 10
 190.21
 20
 275.31
 40
  10.00
  1
Quantity: 1
  0
TEXT
  8
1
 10
 190.21
 20
 262.81
 40
  10.00
  1
Category: 
  0
ENDBLK
  8
1
  0
BLOCK
  8
1
  2
Piece07
 70
  0
 10
   0.00
 20
   0.00
  0
POLYLINE
  8
1
 66
  1
 70
  0
  0
VERTEX
  8
1
 10
 224.68
 20
  28.15
  0
VERTEX
  8
1
 10
 197.53
 20
  28.15
  0
VERTEX
  8
1
 10
 159.02
 20
  24.98
  0
VERTEX
  8
1
 10
 111.26
 20
  18.33
  0
VERTEX
  8
1
 10
  70.44
 20
  10.43
  0
VERTEX
  8
1
 10
  35.54
 20
   1.89
  0
VERTEX
  8
1
 10
  29.90
 20
   0.38
  0
VERTEX
  8
1
 10
   0.00
 20
  64.41
  0
VERTEX
  8
1
 10
   9.37
 20
  65.74
  0
VERTEX
  8
1
 10
  28.75
 20
  68.66
  0
VERTEX
  8
1
 10
  70.92
 20
  76.13
  0
VERTEX
  8
1
 10
 103.60
 20
  81.90
  0
VERTEX
  8
1
 10
 127.29
 20
  85.53
  0
VERTEX
  8
1
 10
 167.24
 20
  90.22
  0
VERTEX
  8
1
 10
 198.01
 20
  92.64
  0
VERTEX
  8
1
 10
 224.74
 20
  93.30
  0
VERTEX
  8
1
 10
 224.68
 20
  28.15
  0
SEQEND
  8
1
  0
TEXT
  8
2
 10
 224.74
 20
  93.30
 40
  10.00
  1
#-281
  0
TEXT
  8
2
 10
   0.00
 20
  64.41
 40
  10.00
  1
#-282
  0
TEXT
  8
2
 10
  29.90
 20
   0.38
 40
  10.00
  1
#-283
  0
TEXT
  8
2
 10
 197.53
 20
  28.15
 40
  10.00
  1
#-284
  0
TEXT
  8
2
 10
 224.68
 20
  28.15
 40
  10.00
  1
#-285
  0
POINT
  8
3
 10
 159.02
 20
  24.98
  0
POINT
  8
3
 10
 111.26
 20
  18.33
  0
POINT
  8
3
 10
  70.44
 20
  10.43
  0
POINT
  8
3
 10
  35.54
 20
   1.89
  0
POINT
  8
3
 10
   9.37
 20
  65.74
  0
POINT
  8
3
 10
  28.75
 20
  68.66
  0
POINT
  8
3
 10
  70.92
 20
  76.13
  0
POINT
  8
3
 10
 103.60
 20
  81.90
  0
POINT
  8
3
 10
 127.29
 20
  85.53
  0
POINT
  8
3
 10
 167.24
 20
  90.22
  0
POINT
  8
3
 10
 198.01
 20
  92.64
  0
POINT
  8
2
 10
 197.53
 20
  28.15
  0
POINT
  8
2
 10
  29.90
 20
   0.38
  0
POINT
  8
2
 10
 224.68
 20
  28.15
  0
POINT
  8
2
 10
  29.90
 20
   0.38
  0
POINT
  8
2
 10
   0.00
 20
  64.41
  0
POINT
  8
2
 10
 224.74
 20
  93.30
  0
POINT
  8
2
 10
   0.00
 20
  64.41
  0
POINT
  8
2
 10
 224.74
 20
  93.30
  0
POLYLINE
  8
14
 66
  1
 70
  0
  0
VERTEX
  8
14
 10
 224.69
 20
  35.15
  0
VERTEX
  8
14
 10
 197.26
 20
  35.15
  0
VERTEX
  8
14
 10
 158.26
 20
  31.94
  0
VERTEX
  8
14
 10
 110.10
 20
  25.23
  0
VERTEX
  8
14
 10
  68.93
 20
  17.26
  0
VERTEX
  8
14
 10
  33.76
 20
   8.66
  0
VERTEX
  8
14
 10
  10.34
 20
  58.81
  0
VERTEX
  8
14
 10
  29.89
 20
  61.75
  0
VERTEX
  8
14
 10
  72.14
 20
  69.24
  0
VERTEX
  8
14
 10
 104.76
 20
  74.99
  0
VERTEX
  8
14
 10
 128.24
 20
  78.59
  0
VERTEX
  8
14
 10
 167.94
 20
  83.26
  0
VERTEX
  8
14
 10
 198.36
 20
  85.65
  0
VERTEX
  8
14
 10
 224.74
 20
  86.30
  0
SEQEND
  8
14
  0
TEXT
  8
2
 10
 224.74
 20
  86.30
 40
  10.00
  1
#-286
  0
TEXT
  8
3
 10
 198.36
 20
  85.65
 40
  10.00
  1
#-287
  0
TEXT
  8
3
 10
 167.94
 20
  83.26
 40
  10.00
  1
#-288
  0
TEXT
  8
3
 10
 128.24
 20
  78.59
 40
  10.00
  1
#-289
  0
TEXT
  8
3
 10
 104.76
 20
  74.99
 40
  10.00
  1
#-290
  0
TEXT
  8
3
 10
  29.89
 20
  61.75
 40
  10.00
  1
#-291
  0
TEXT
  8
2
 10
  10.34
 20
  58.81
 40
  10.00
  1
#-292
  0
TEXT
  8
2
 10
  33.76
 20
   8.66
 40
  10.00
  1
#-293
  0
TEXT
  8
3
 10
  68.93
 20
  17.26
 40
  10.00
  1
#-294
  0
TEXT
  8
3
 10
 110.10
 20
  25.23
 40
  10.00
  1
#-295
  0
TEXT
  8
3
 10
 158.26
 20
  31.94
 40
  10.00
  1
#-296
  0
TEXT
  8
2
 10
 197.26
 20
  35.15
 40
  10.00
  1
#-297
  0
TEXT
  8
2
 10
 224.69
 20
  35.15
 40
  10.00
  1
#-298
  0
POINT
  8
3
 10
 158.26
 20
  31.94
  0
POINT
  8
3
 10
 110.10
 20
  25.23
  0
POINT
  8
3
 10
  68.93
 20
  17.26
  0
POINT
  8
3
 10
  29.89
 20
  61.75
  0
POINT
  8
3
 10
  72.14
 20
  69.24
  0
POINT
  8
3
 10
 104.76
 20
  74.99
  0
POINT
  8
3
 10
 128.24
 20
  78.59
  0
POINT
  8
3
 10
 167.94
 20
  83.26
  0
POINT
  8
3
 10
 198.36
 20
  85.65
  0
POINT
  8
2
 10
 197.26
 20
  35.15
  0
POINT
  8
2
 10
  33.76
 20
   8.66
  0
POINT
  8
2
 10
 224.69
 20
  35.15
  0
POINT
  8
2
 10
  33.76
 20
   8.66
  0
POINT
  8
2
 10
  10.34
 20
  58.81
  0
POINT
  8
2
 10
 224.74
 20
  86.30
  0
POINT
  8
2
 10
  10.34
 20
  58.81
  0
POINT
  8
2
 10
 224.74
 20
  86.30
  0
LINE
  8
6
 10
 224.74
 20
  93.30
 11
 224.68
 21
  28.15
  0
TEXT
  8
15
 72
3
 10
  74.83
 20
  46.25
 11
 138.82
 21
  56.54
 40
   5.89
 50
   9.13
  1
Unterkragen
  0
TEXT
  8
2
 10
  74.83
 20
  46.25
 40
  10.00
  1
#-15
  0
TEXT
  8
2
 10
 138.82
 20
  56.54
 40
  10.00
  1
#-15
  0
LINE
  8
7
 10
 224.69
 20
  35.15
 11
 224.73
 21
  86.31
  0
TEXT
  8
2
 10
 224.73
 20
  86.31
 40
  10.00
  1
#-15
  0
TEXT
  8
2
 10
 224.69
 20
  35.15
 40
  10.00
  1
#-15
  0
LINE
  8
8
 10
 224.69
 20
  86.30
 11
 224.69
 21
  35.15
  0
TEXT
  8
2
 10
 224.69
 20
  35.15
 40
  10.00
  1
#-15
  0
TEXT
  8
2
 10
 224.69
 20
  86.30
 40
  10.00
  1
#-299
  0
TEXT
  8
8
 10
 224.69
 20
  86.30
 40
  10.00
  1
NM
  0
POINT
  8
4
 10
 224.74
 20
  86.30
 30
   4.00
 50
 -90.01
  0
TEXT
  8
4
 10
 224.74
 20
  86.30
 40
  10.00
  1
#-286
  0
POINT
  8
4
 10
 224.74
 20
  93.30
 30
   4.00
 50
 -90.17
  0
TEXT
  8
4
 10
 224.74
 20
  93.30
 40
  10.00
  1
#-281
  0
POINT
  8
4
 10
 224.68
 20
  28.15
 30
   4.00
 50
  89.94
  0
TEXT
  8
4
 10
 224.68
 20
  28.15
 40
  10.00
  1
#-285
  0
POINT
  8
4
 10
 224.69
 20
  35.15
 30
   4.00
 50
  90.00
  0
TEXT
  8
4
 10
 224.69
 20
  35.15
 40
  10.00
  1
#-298
  0
TEXT
  8
1
 10
 224.71
 20
  65.40
 40
  10.00
  1
Piece Name: x7--------BL-------S1U
  0
TEXT
  8
1
 10
 224.71
 20
  52.90
 40
  10.00
  1
Size: 38
  0
TEXT
  8
1
 10
 224.71
 20
  40.40
 40
  10.00
  1
Annotation: --------BL-------S1UK----1X-02
  0
TEXT
  8
1
 10
 224.71
 20
  27.90
 40
  10.00
  1
Quantity: 1
  0
TEXT
  8
1
 10
 224.71
 20
  15.40
 40
  10.00
  1
Category: 
  0
ENDBLK
  8
1
  0
BLOCK
  8
1
  2
Piece08
 70
  0
 10
   0.00
 20
   0.00
  0
POLYLINE
  8
1
 66
  1
 70
  1
  0
VERTEX
  8
1
 10
  20.25
 20
 627.25
  0
VERTEX
  8
1
 10
  43.75
 20
 624.95
  0
VERTEX
  8
1
 10
  43.75
 20
   0.00
  0
VERTEX
  8
1
 10
  20.25
 20
   0.00
  0
VERTEX
  8
1
 10
  20.25
 20
 627.25
  0
SEQEND
  8
1
  0
TEXT
  8
2
 10
  20.25
 20
   0.00
 40
  10.00
  1
#-300
  0
TEXT
  8
2
 10
  43.75
 20
   0.00
 40
  10.00
  1
#-301
  0
TEXT
  8
2
 10
  43.75
 20
 624.95
 40
  10.00
  1
#-302
  0
TEXT
  8
2
 10
  20.25
 20
 627.25
 40
  10.00
  1
#-303
  0
POINT
  8
2
 10
  20.25
 20
 627.25
  0
POINT
  8
2
 10
  43.75
 20
 624.95
  0
POINT
  8
2
 10
  43.75
 20
   0.00
  0
POINT
  8
2
 10
  20.25
 20
   0.00
  0
POINT
  8
2
 10
  20.25
 20
 627.25
  0
POINT
  8
13
 10
  32.00
 20
 382.04
  0
TEXT
  8
13
 10
  32.00
 20
 382.04
 40
  10.00
  1
#-304
  0
POINT
  8
13
 10
  32.00
 20
 436.53
  0
TEXT
  8
13
 10
  32.00
 20
 436.53
 40
  10.00
  1
#-305
  0
POINT
  8
13
 10
  32.00
 20
 327.55
  0
TEXT
  8
13
 10
  32.00
 20
 327.55
 40
  10.00
  1
#-306
  0
POINT
  8
13
 10
  32.00
 20
 273.06
  0
TEXT
  8
13
 10
  32.00
 20
 273.06
 40
  10.00
  1
#-307
  0
POINT
  8
13
 10
  32.00
 20
 218.57
  0
TEXT
  8
13
 10
  32.00
 20
 218.57
 40
  10.00
  1
#-308
  0
POINT
  8
13
 10
  32.00
 20
 164.08
  0
TEXT
  8
13
 10
  32.00
 20
 164.08
 40
  10.00
  1
#-309
  0
POINT
  8
13
 10
  32.00
 20
 177.08
  0
TEXT
  8
13
 10
  32.00
 20
 177.08
 40
  10.00
  1
#-310
  0
POINT
  8
13
 10
  32.00
 20
 231.57
  0
TEXT
  8
13
 10
  32.00
 20
 231.57
 40
  10.00
  1
#-311
  0
POINT
  8
13
 10
  32.00
 20
 286.06
  0
TEXT
  8
13
 10
  32.00
 20
 286.06
 40
  10.00
  1
#-312
  0
POINT
  8
13
 10
  32.00
 20
 340.55
  0
TEXT
  8
13
 10
  32.00
 20
 340.55
 40
  10.00
  1
#-313
  0
POINT
  8
13
 10
  32.00
 20
 395.04
  0
TEXT
  8
13
 10
  32.00
 20
 395.04
 40
  10.00
  1
#-314
  0
POINT
  8
13
 10
  32.00
 20
 558.51
  0
TEXT
  8
13
 10
  32.00
 20
 558.51
 40
  10.00
  1
#-315
  0
POINT
  8
13
 10
  32.00
 20
 504.02
  0
TEXT
  8
13
 10
  32.00
 20
 504.02
 40
  10.00
  1
#-316
  0
POINT
  8
13
 10
  32.00
 20
 600.00
  0
TEXT
  8
13
 10
  32.00
 20
 600.00
 40
  10.00
  1
#-317
  0
POINT
  8
13
 10
  32.00
 20
 611.00
  0
TEXT
  8
13
 10
  32.00
 20
 611.00
 40
  10.00
  1
#-318
  0
POINT
  8
13
 10
  32.00
 20
 545.51
  0
TEXT
  8
13
 10
  32.00
 20
 545.51
 40
  10.00
  1
#-319
  0
POINT
  8
13
 10
  32.00
 20
 491.02
  0
TEXT
  8
13
 10
  32.00
 20
 491.02
 40
  10.00
  1
#-320
  0
POINT
  8
13
 10
  32.00
 20
 382.04
  0
TEXT
  8
13
 10
  32.00
 20
 382.04
 40
  10.00
  1
#-321
  0
POINT
  8
13
 10
  32.00
 20
 166.08
  0
TEXT
  8
13
 10
  32.00
 20
 166.08
 40
  10.00
  1
#-322
  0
POINT
  8
13
 10
  32.00
 20
 449.53
  0
TEXT
  8
13
 10
  32.00
 20
 449.53
 40
  10.00
  1
#-323
  0
POINT
  8
13
 10
  32.00
 20
 613.00
  0
TEXT
  8
13
 10
  32.00
 20
 613.00
 40
  10.00
  1
#-324
  0
LINE
  8
8
 10
  32.00
 20
 340.55
 11
  32.00
 21
 327.55
  0
TEXT
  8
2
 10
  32.00
 20
 327.55
 40
  10.00
  1
#-325
  0
TEXT
  8
2
 10
  32.00
 20
 340.55
 40
  10.00
  1
#-326
  0
LINE
  8
8
 10
  32.00
 20
 504.02
 11
  32.00
 21
 491.02
  0
TEXT
  8
2
 10
  32.00
 20
 491.02
 40
  10.00
  1
#-327
  0
TEXT
  8
2
 10
  32.00
 20
 504.02
 40
  10.00
  1
#-328
  0
LINE
  8
8
 10
  32.00
 20
 558.51
 11
  32.00
 21
 545.51
  0
TEXT
  8
2
 10
  32.00
 20
 545.51
 40
  10.00
  1
#-329
  0
TEXT
  8
2
 10
  32.00
 20
 558.51
 40
  10.00
  1
#-330
  0
LINE
  8
8
 10
  32.00
 20
 613.00
 11
  32.00
 21
 600.00
  0
TEXT
  8
2
 10
  32.00
 20
 600.00
 40
  10.00
  1
#-331
  0
TEXT
  8
2
 10
  32.00
 20
 613.00
 40
  10.00
  1
#-332
  0
LINE
  8
8
 10
  32.00
 20
 436.54
 11
  32.00
 21
 449.53
  0
TEXT
  8
2
 10
  32.00
 20
 449.53
 40
  10.00
  1
#-333
  0
TEXT
  8
2
 10
  32.00
 20
 436.54
 40
  10.00
  1
#-334
  0
LINE
  8
8
 10
  32.00
 20
 395.04
 11
  32.00
 21
 382.04
  0
TEXT
  8
2
 10
  32.00
 20
 382.04
 40
  10.00
  1
#-335
  0
TEXT
  8
2
 10
  32.00
 20
 395.04
 40
  10.00
  1
#-336
  0
TEXT
  8
15
 72
3
 10
  29.38
 20
 382.37
 11
  29.38
 21
 472.37
 40
   6.00
 50
  90.00
  1
BL PHA GR:46-56
  0
TEXT
  8
2
 10
  29.38
 20
 382.37
 40
  10.00
  1
#-15
  0
TEXT
  8
2
 10
  29.38
 20
 472.37
 40
  10.00
  1
#-15
  0
TEXT
  8
15
 72
3
 10
  37.16
 20
  72.43
 11
  37.16
 21
 168.43
 40
   6.00
 50
  90.00
  1
FLR Knopfloch SC
  0
TEXT
  8
2
 10
  37.16
 20
  72.43
 40
  10.00
  1
#-15
  0
TEXT
  8
2
 10
  37.16
 20
 168.43
 40
  10.00
  1
#-15
  0
TEXT
  8
15
 72
3
 10
   0.00
 20
 308.62
 11
  16.00
 21
 308.62
 40
   8.00
 50
   0.00
  1
SC
  0
TEXT
  8
2
 10
   0.00
 20
 308.62
 40
  10.00
  1
#-15
  0
TEXT
  8
2
 10
  16.00
 20
 308.62
 40
  10.00
  1
#-15
  0
LINE
  8
8
 10
  32.00
 20
 286.06
 11
  32.00
 21
 273.06
  0
TEXT
  8
2
 10
  32.00
 20
 273.06
 40
  10.00
  1
#-337
  0
TEXT
  8
2
 10
  32.00
 20
 286.06
 40
  10.00
  1
#-338
  0
LINE
  8
8
 10
  32.00
 20
 177.08
 11
  32.00
 21
 164.08
  0
TEXT
  8
2
 10
  32.00
 20
 164.08
 40
  10.00
  1
#-339
  0
TEXT
  8
2
 10
  32.00
 20
 177.08
 40
  10.00
  1
#-340
  0
LINE
  8
8
 10
  32.00
 20
 231.57
 11
  32.00
 21
 218.58
  0
TEXT
  8
2
 10
  32.00
 20
 218.58
 40
  10.00
  1
#-341
  0
TEXT
  8
2
 10
  32.00
 20
 231.57
 40
  10.00
  1
#-342
  0
TEXT
  8
1
 10
  21.88
 20
 332.37
 40
  10.00
  1
Piece Name: x8--------BL-------SBV
  0
TEXT
  8
1
 10
  21.88
 20
 319.87
 40
  10.00
  1
Size: 38
  0
TEXT
  8
1
 10
  21.88
 20
 307.37
 40
  10.00
  1
Annotation: --------BL-------SBVT--021X-03
  0
TEXT
  8
1
 10
  21.88
 20
 294.87
 40
  10.00
  1
Quantity: 1
  0
TEXT
  8
1
 10
  21.88
 20
 282.37
 40
  10.00
  1
Category: 
  0
ENDBLK
  8
1
  0
BLOCK
  8
1
  2
Piece09
 70
  0
 10
   0.00
 20
   0.00
  0
POLYLINE
  8
1
 66
  1
 70
  1
  0
VERTEX
  8
1
 10
   0.00
 20
   0.00
  0
VERTEX
  8
1
 10
   0.00
 20
  50.00
  0
VERTEX
  8
1
 10
 237.83
 20
  50.00
  0
VERTEX
  8
1
 10
 237.83
 20
   0.00
  0
VERTEX
  8
1
 10
   0.00
 20
   0.00
  0
SEQEND
  8
1
  0
TEXT
  8
2
 10
 237.83
 20
   0.00
 40
  10.00
  1
#-343
  0
TEXT
  8
2
 10
 237.83
 20
  50.00
 40
  10.00
  1
#-344
  0
TEXT
  8
2
 10
   0.00
 20
  50.00
 40
  10.00
  1
#-345
  0
TEXT
  8
2
 10
   0.00
 20
   0.00
 40
  10.00
  1
#-346
  0
POINT
  8
2
 10
   0.00
 20
   0.00
  0
POINT
  8
2
 10
   0.00
 20
  50.00
  0
POINT
  8
2
 10
 237.83
 20
  50.00
  0
POINT
  8
2
 10
 237.83
 20
   0.00
  0
POINT
  8
2
 10
   0.00
 20
   0.00
  0
POINT
  8
13
 10
  10.58
 20
  15.00
  0
TEXT
  8
13
 10
  10.58
 20
  15.00
 40
  10.00
  1
#-347
  0
POINT
  8
13
 10
 214.83
 20
  15.00
  0
TEXT
  8
13
 10
 214.83
 20
  15.00
 40
  10.00
  1
#-348
  0
POINT
  8
13
 10
 227.83
 20
  15.00
  0
TEXT
  8
13
 10
 227.83
 20
  15.00
 40
  10.00
  1
#-349
  0
POINT
  8
13
 10
 227.83
 20
  35.00
  0
TEXT
  8
13
 10
 227.83
 20
  35.00
 40
  10.00
  1
#-350
  0
POINT
  8
13
 10
 214.83
 20
  35.00
  0
TEXT
  8
13
 10
 214.83
 20
  35.00
 40
  10.00
  1
#-351
  0
POINT
  8
13
 10
  10.58
 20
  35.00
  0
TEXT
  8
13
 10
  10.58
 20
  35.00
 40
  10.00
  1
#-352
  0
LINE
  8
8
 10
   4.08
 20
  15.00
 11
  10.58
 21
  21.50
  0
TEXT
  8
2
 10
  10.58
 20
  21.50
 40
  10.00
  1
#-353
  0
TEXT
  8
2
 10
   4.08
 20
  15.00
 40
  10.00
  1
#-354
  0
LINE
  8
8
 10
  10.58
 20
  21.50
 11
  17.08
 21
  15.00
  0
TEXT
  8
2
 10
  17.08
 20
  15.00
 40
  10.00
  1
#-355
  0
TEXT
  8
2
 10
  10.58
 20
  21.50
 40
  10.00
  1
#-353
  0
LINE
  8
7
 10
 122.55
 20
   5.00
 11
 122.55
 21
  45.00
  0
TEXT
  8
2
 10
 122.55
 20
  45.00
 40
  10.00
  1
#-356
  0
TEXT
  8
2
 10
 122.55
 20
   5.00
 40
  10.00
  1
#-357
  0
TEXT
  8
15
 72
3
 10
  48.93
 20
  33.06
 11
  84.93
 21
  33.06
 40
   6.00
 50
   0.00
  1
BL PHA
  0
TEXT
  8
2
 10
  48.93
 20
  33.06
 40
  10.00
  1
#-15
  0
TEXT
  8
2
 10
  84.93
 20
  33.06
 40
  10.00
  1
#-15
  0
TEXT
  8
15
 72
3
 10
  48.93
 20
  23.06
 11
 174.93
 21
  23.06
 40
   6.00
 50
   0.00
  1
MA Knopf/Knopfloch SC
  0
TEXT
  8
2
 10
  48.93
 20
  23.06
 40
  10.00
  1
#-15
  0
TEXT
  8
2
 10
 174.93
 20
  23.06
 40
  10.00
  1
#-358
  0
LINE
  8
8
 10
  17.08
 20
  35.00
 11
  10.58
 21
  28.50
  0
TEXT
  8
2
 10
  10.58
 20
  28.50
 40
  10.00
  1
#-359
  0
TEXT
  8
2
 10
  17.08
 20
  35.00
 40
  10.00
  1
#-360
  0
LINE
  8
8
 10
  10.58
 20
  28.50
 11
   4.08
 21
  35.00
  0
TEXT
  8
2
 10
   4.08
 20
  35.00
 40
  10.00
  1
#-361
  0
TEXT
  8
2
 10
  10.58
 20
  28.50
 40
  10.00
  1
#-359
  0
LINE
  8
8
 10
   4.08
 20
  35.00
 11
  10.58
 21
  41.50
  0
TEXT
  8
2
 10
  10.58
 20
  41.50
 40
  10.00
  1
#-362
  0
TEXT
  8
2
 10
   4.08
 20
  35.00
 40
  10.00
  1
#-363
  0
LINE
  8
8
 10
  10.58
 20
  41.50
 11
  17.08
 21
  35.00
  0
TEXT
  8
2
 10
  17.08
 20
  35.00
 40
  10.00
  1
#-364
  0
TEXT
  8
2
 10
  10.58
 20
  41.50
 40
  10.00
  1
#-362
  0
LINE
  8
8
 10
 227.83
 20
  35.00
 11
 214.83
 21
  35.00
  0
TEXT
  8
2
 10
 214.83
 20
  35.00
 40
  10.00
  1
#-365
  0
TEXT
  8
2
 10
 227.83
 20
  35.00
 40
  10.00
  1
#-366
  0
LINE
  8
8
 10
  17.08
 20
  15.00
 11
  10.58
 21
   8.50
  0
TEXT
  8
2
 10
  10.58
 20
   8.50
 40
  10.00
  1
#-367
  0
TEXT
  8
2
 10
  17.08
 20
  15.00
 40
  10.00
  1
#-368
  0
LINE
  8
8
 10
  10.58
 20
   8.50
 11
   4.08
 21
  15.00
  0
TEXT
  8
2
 10
   4.08
 20
  15.00
 40
  10.00
  1
#-369
  0
TEXT
  8
2
 10
  10.58
 20
   8.50
 40
  10.00
  1
#-367
  0
LINE
  8
8
 10
 227.83
 20
  15.00
 11
 214.83
 21
  15.00
  0
TEXT
  8
2
 10
 214.83
 20
  15.00
 40
  10.00
  1
#-370
  0
TEXT
  8
2
 10
 227.83
 20
  15.00
 40
  10.00
  1
#-371
  0
TEXT
  8
1
 10
 118.91
 20
  43.75
 40
  10.00
  1
Piece Name: x9-----22-BL-------SBM
  0
TEXT
  8
1
 10
 118.91
 20
  31.25
 40
  10.00
  1
Size: 38
  0
TEXT
  8
1
 10
 118.91
 20
  18.75
 40
  10.00
  1
Annotation: -----22-BL-------SBMA----1X-01
  0
TEXT
  8
1
 10
 118.91
 20
   6.25
 40
  10.00
  1
Quantity: 1
  0
TEXT
  8
1
 10
 118.91
 20
  -6.25
 40
  10.00
  1
Category: 
  0
ENDBLK
  8
1
  0
BLOCK
  8
1
  2
Piece10
 70
  0
 10
   0.00
 20
   0.00
  0
POLYLINE
  8
1
 66
  1
 70
  1
  0
VERTEX
  8
1
 10
  23.50
 20
 652.31
  0
VERTEX
  8
1
 10
  24.62
 20
 652.18
  0
VERTEX
  8
1
 10
  36.21
 20
 650.95
  0
VERTEX
  8
1
 10
  47.00
 20
 649.99
  0
VERTEX
  8
1
 10
  62.22
 20
 651.35
  0
VERTEX
  8
1
 10
  69.08
 20
 651.98
  0
VERTEX
  8
1
 10
  70.41
 20
 652.44
  0
VERTEX
  8
1
 10
  83.87
 20
 659.35
  0
VERTEX
  8
1
 10
  91.81
 20
 666.60
  0
VERTEX
  8
1
 10
 100.68
 20
 678.33
  0
VERTEX
  8
1
 10
 113.30
 20
 702.76
  0
VERTEX
  8
1
 10
 119.57
 20
 722.85
  0
VERTEX
  8
1
 10
 121.93
 20
 732.96
  0
VERTEX
  8
1
 10
 132.03
 20
 730.08
  0
VERTEX
  8
1
 10
 157.34
 20
 722.82
  0
VERTEX
  8
1
 10
 246.56
 20
 696.74
  0
VERTEX
  8
1
 10
 255.92
 20
 693.97
  0
VERTEX
  8
1
 10
 253.38
 20
 684.51
  0
VERTEX
  8
1
 10
 251.83
 20
 678.49
  0
VERTEX
  8
1
 10
 248.34
 20
 661.98
  0
VERTEX
  8
1
 10
 245.82
 20
 645.75
  0
VERTEX
  8
1
 10
 244.50
 20
 630.26
  0
VERTEX
  8
1
 10
 244.19
 20
 614.58
  0
VERTEX
  8
1
 10
 244.34
 20
 608.40
  0
VERTEX
  8
1
 10
 244.99
 20
 597.78
  0
VERTEX
  8
1
 10
 247.95
 20
 575.72
  0
VERTEX
  8
1
 10
 252.52
 20
 558.37
  0
VERTEX
  8
1
 10
 257.22
 20
 546.14
  0
VERTEX
  8
1
 10
 258.20
 20
 544.58
  0
VERTEX
  8
1
 10
 262.02
 20
 540.05
  0
VERTEX
  8
1
 10
 268.85
 20
 535.78
  0
VERTEX
  8
1
 10
 279.34
 20
 533.14
  0
VERTEX
  8
1
 10
 289.64
 20
 533.48
  0
VERTEX
  8
1
 10
 293.48
 20
 534.21
  0
VERTEX
  8
1
 10
 297.68
 20
 535.01
  0
VERTEX
  8
1
 10
 307.08
 20
 536.79
  0
VERTEX
  8
1
 10
 309.28
 20
 527.48
  0
VERTEX
  8
1
 10
 314.03
 20
 507.52
  0
VERTEX
  8
1
 10
 322.49
 20
 472.97
  0
VERTEX
  8
1
 10
 325.55
 20
 461.26
  0
VERTEX
  8
1
 10
 328.45
 20
 450.54
  0
VERTEX
  8
1
 10
 329.57
 20
 447.37
  0
VERTEX
  8
1
 10
 340.89
 20
 415.26
  0
VERTEX
  8
1
 10
 316.78
 20
 391.27
  0
VERTEX
  8
1
 10
 316.16
 20
 382.08
  0
VERTEX
  8
1
 10
 313.60
 20
 349.03
  0
VERTEX
  8
1
 10
 312.49
 20
 328.57
  0
VERTEX
  8
1
 10
 312.33
 20
 308.11
  0
VERTEX
  8
1
 10
 313.25
 20
 300.32
  0
VERTEX
  8
1
 10
 314.22
 20
 291.91
  0
VERTEX
  8
1
 10
 318.21
 20
 257.29
  0
VERTEX
  8
1
 10
 322.11
 20
 219.86
  0
VERTEX
  8
1
 10
 325.64
 20
 174.63
  0
VERTEX
  8
1
 10
 328.15
 20
 129.84
  0
VERTEX
  8
1
 10
 330.75
 20
  30.52
  0
VERTEX
  8
1
 10
 330.83
 20
  15.45
  0
VERTEX
  8
1
 10
 322.21
 20
  14.58
  0
VERTEX
  8
1
 10
 217.97
 20
   5.83
  0
VERTEX
  8
1
 10
  94.42
 20
   0.01
  0
VERTEX
  8
1
 10
  94.12
 20
   0.00
  0
VERTEX
  8
1
 10
  93.93
 20
   0.00
  0
VERTEX
  8
1
 10
  70.50
 20
   0.00
  0
VERTEX
  8
1
 10
  47.00
 20
   0.00
  0
VERTEX
  8
1
 10
  23.50
 20
   0.00
  0
VERTEX
  8
1
 10
   0.00
 20
   0.00
  0
VERTEX
  8
1
 10
   0.00
 20
 649.99
  0
VERTEX
  8
1
 10
  10.79
 20
 650.95
  0
VERTEX
  8
1
 10
  22.38
 20
 652.18
  0
VERTEX
  8
1
 10
  23.50
 20
 652.31
  0
SEQEND
  8
1
  0
TEXT
  8
2
 10
   0.00
 20
 649.99
 40
  10.00
  1
#-372
  0
TEXT
  8
2
 10
   0.00
 20
   0.00
 40
  10.00
  1
#-373
  0
TEXT
  8
3
 10
  23.50
 20
   0.00
 40
  10.00
  1
#-374
  0
TEXT
  8
3
 10
  47.00
 20
   0.00
 40
  10.00
  1
#-375
  0
TEXT
  8
3
 10
  70.50
 20
   0.00
 40
  10.00
  1
#-376
  0
TEXT
  8
2
 10
  94.12
 20
   0.00
 40
  10.00
  1
#-377
  0
TEXT
  8
2
 10
 330.83
 20
  15.45
 40
  10.00
  1
#-378
  0
TEXT
  8
3
 10
 330.75
 20
  30.52
 40
  10.00
  1
#-379
  0
TEXT
  8
2
 10
 312.33
 20
 308.11
 40
  10.00
  1
#-380
  0
TEXT
  8
2
 10
 316.78
 20
 391.27
 40
  10.00
  1
#-381
  0
TEXT
  8
2
 10
 340.89
 20
 415.26
 40
  10.00
  1
#-382
  0
TEXT
  8
3
 10
 329.57
 20
 447.37
 40
  10.00
  1
#-383
  0
TEXT
  8
2
 10
 328.45
 20
 450.54
 40
  10.00
  1
#-384
  0
TEXT
  8
2
 10
 307.08
 20
 536.79
 40
  10.00
  1
#-385
  0
TEXT
  8
3
 10
 258.20
 20
 544.58
 40
  10.00
  1
#-386
  0
TEXT
  8
3
 10
 244.34
 20
 608.40
 40
  10.00
  1
#-387
  0
TEXT
  8
2
 10
 255.92
 20
 693.97
 40
  10.00
  1
#-388
  0
TEXT
  8
2
 10
 121.93
 20
 732.96
 40
  10.00
  1
#-389
  0
TEXT
  8
3
 10
  70.41
 20
 652.44
 40
  10.00
  1
#-390
  0
TEXT
  8
2
 10
  69.08
 20
 651.98
 40
  10.00
  1
#-391
  0
TEXT
  8
2
 10
  47.00
 20
 649.99
 40
  10.00
  1
#-392
  0
TEXT
  8
2
 10
  23.50
 20
 652.31
 40
  10.00
  1
#-393
  0
POINT
  8
3
 10
  24.62
 20
 652.18
  0
POINT
  8
3
 10
  36.21
 20
 650.95
  0
POINT
  8
3
 10
  62.22
 20
 651.35
  0
POINT
  8
3
 10
  70.41
 20
 652.44
  0
POINT
  8
3
 10
  83.87
 20
 659.35
  0
POINT
  8
3
 10
  91.81
 20
 666.60
  0
POINT
  8
3
 10
 100.68
 20
 678.33
  0
POINT
  8
3
 10
 113.30
 20
 702.76
  0
POINT
  8
3
 10
 119.57
 20
 722.85
  0
POINT
  8
3
 10
 132.03
 20
 730.08
  0
POINT
  8
3
 10
 157.34
 20
 722.82
  0
POINT
  8
3
 10
 246.56
 20
 696.74
  0
POINT
  8
3
 10
 253.38
 20
 684.51
  0
POINT
  8
3
 10
 251.83
 20
 678.49
  0
POINT
  8
3
 10
 248.34
 20
 661.98
  0
POINT
  8
3
 10
 245.82
 20
 645.75
  0
POINT
  8
3
 10
 244.50
 20
 630.26
  0
POINT
  8
3
 10
 244.19
 20
 614.58
  0
POINT
  8
3
 10
 244.34
 20
 608.40
  0
POINT
  8
3
 10
 244.99
 20
 597.78
  0
POINT
  8
3
 10
 247.95
 20
 575.72
  0
POINT
  8
3
 10
 252.52
 20
 558.37
  0
POINT
  8
3
 10
 257.22
 20
 546.14
  0
POINT
  8
3
 10
 258.20
 20
 544.58
  0
POINT
  8
3
 10
 262.02
 20
 540.05
  0
POINT
  8
3
 10
 268.85
 20
 535.78
  0
POINT
  8
3
 10
 279.34
 20
 533.14
  0
POINT
  8
3
 10
 289.64
 20
 533.48
  0
POINT
  8
3
 10
 293.48
 20
 534.21
  0
POINT
  8
3
 10
 297.68
 20
 535.01
  0
POINT
  8
3
 10
 309.28
 20
 527.48
  0
POINT
  8
3
 10
 314.03
 20
 507.52
  0
POINT
  8
3
 10
 322.49
 20
 472.97
  0
POINT
  8
3
 10
 325.55
 20
 461.26
  0
POINT
  8
3
 10
 329.57
 20
 447.37
  0
POINT
  8
3
 10
 316.16
 20
 382.08
  0
POINT
  8
3
 10
 313.60
 20
 349.03
  0
POINT
  8
3
 10
 312.49
 20
 328.57
  0
POINT
  8
3
 10
 313.25
 20
 300.32
  0
POINT
  8
3
 10
 314.22
 20
 291.91
  0
POINT
  8
3
 10
 318.21
 20
 257.29
  0
POINT
  8
3
 10
 322.11
 20
 219.86
  0
POINT
  8
3
 10
 325.64
 20
 174.63
  0
POINT
  8
3
 10
 328.15
 20
 129.84
  0
POINT
  8
3
 10
 330.75
 20
  30.52
  0
POINT
  8
3
 10
 322.21
 20
  14.58
  0
POINT
  8
3
 10
 217.97
 20
   5.83
  0
POINT
  8
3
 10
  94.42
 20
   0.01
  0
POINT
  8
3
 10
  93.93
 20
   0.00
  0
POINT
  8
3
 10
  70.50
 20
   0.00
  0
POINT
  8
3
 10
  47.00
 20
   0.00
  0
POINT
  8
3
 10
  23.50
 20
   0.00
  0
POINT
  8
3
 10
  10.79
 20
 650.95
  0
POINT
  8
3
 10
  22.38
 20
 652.18
  0
POINT
  8
2
 10
  47.00
 20
 649.99
  0
POINT
  8
2
 10
  23.50
 20
 652.31
  0
POINT
  8
2
 10
  47.00
 20
 649.99
  0
POINT
  8
2
 10
  69.08
 20
 651.98
  0
POINT
  8
2
 10
 121.93
 20
 732.96
  0
POINT
  8
2
 10
  47.00
 20
 649.99
  0
POINT
  8
2
 10
 121.93
 20
 732.96
  0
POINT
  8
2
 10
 255.92
 20
 693.97
  0
POINT
  8
2
 10
 121.93
 20
 732.96
  0
POINT
  8
2
 10
 255.92
 20
 693.97
  0
POINT
  8
2
 10
 307.08
 20
 536.79
  0
POINT
  8
2
 10
 255.92
 20
 693.97
  0
POINT
  8
2
 10
 307.08
 20
 536.79
  0
POINT
  8
2
 10
 328.45
 20
 450.54
  0
POINT
  8
2
 10
 307.08
 20
 536.79
  0
POINT
  8
2
 10
 328.45
 20
 450.54
  0
POINT
  8
2
 10
 340.89
 20
 415.26
  0
POINT
  8
2
 10
 328.45
 20
 450.54
  0
POINT
  8
2
 10
 340.89
 20
 415.26
  0
POINT
  8
2
 10
 316.78
 20
 391.27
  0
POINT
  8
2
 10
 340.89
 20
 415.26
  0
POINT
  8
2
 10
 316.78
 20
 391.27
  0
POINT
  8
2
 10
 312.33
 20
 308.11
  0
POINT
  8
2
 10
 316.78
 20
 391.27
  0
POINT
  8
2
 10
 312.33
 20
 308.11
  0
POINT
  8
2
 10
 330.83
 20
  15.45
  0
POINT
  8
2
 10
 312.33
 20
 308.11
  0
POINT
  8
2
 10
 330.83
 20
  15.45
  0
POINT
  8
2
 10
  94.12
 20
   0.00
  0
POINT
  8
2
 10
   0.00
 20
   0.00
  0
POINT
  8
2
 10
 330.83
 20
  15.45
  0
POINT
  8
2
 10
   0.00
 20
   0.00
  0
POINT
  8
2
 10
   0.00
 20
 649.99
  0
POINT
  8
2
 10
  23.50
 20
 652.31
  0
POINT
  8
2
 10
   0.00
 20
 649.99
  0
POINT
  8
2
 10
  23.50
 20
 652.31
  0
POLYLINE
  8
14
 66
  1
 70
  1
  0
VERTEX
  8
14
 10
  23.50
 20
 642.25
  0
VERTEX
  8
14
 10
  35.24
 20
 641.00
  0
VERTEX
  8
14
 10
  47.00
 20
 639.95
  0
VERTEX
  8
14
 10
  58.75
 20
 641.00
  0
VERTEX
  8
14
 10
  70.51
 20
 642.08
  0
VERTEX
  8
14
 10
  72.00
 20
 642.41
  0
VERTEX
  8
14
 10
  89.98
 20
 651.37
  0
VERTEX
  8
14
 10
  99.11
 20
 659.75
  0
VERTEX
  8
14
 10
 109.08
 20
 672.93
  0
VERTEX
  8
14
 10
 122.62
 20
 699.15
  0
VERTEX
  8
14
 10
 129.28
 20
 720.46
  0
VERTEX
  8
14
 10
 154.56
 20
 713.21
  0
VERTEX
  8
14
 10
 243.73
 20
 687.15
  0
VERTEX
  8
14
 10
 242.11
 20
 680.81
  0
VERTEX
  8
14
 10
 238.51
 20
 663.82
  0
VERTEX
  8
14
 10
 235.89
 20
 646.95
  0
VERTEX
  8
14
 10
 234.51
 20
 630.75
  0
VERTEX
  8
14
 10
 234.19
 20
 614.51
  0
VERTEX
  8
14
 10
 234.35
 20
 608.02
  0
VERTEX
  8
14
 10
 235.03
 20
 596.94
  0
VERTEX
  8
14
 10
 238.13
 20
 573.81
  0
VERTEX
  8
14
 10
 242.97
 20
 555.42
  0
VERTEX
  8
14
 10
 248.24
 20
 541.70
  0
VERTEX
  8
14
 10
 249.95
 20
 538.96
  0
VERTEX
  8
14
 10
 255.34
 20
 532.58
  0
VERTEX
  8
14
 10
 264.97
 20
 526.56
  0
VERTEX
  8
14
 10
 278.44
 20
 523.17
  0
VERTEX
  8
14
 10
 291.15
 20
 523.59
  0
VERTEX
  8
14
 10
 295.34
 20
 524.39
  0
VERTEX
  8
14
 10
 299.54
 20
 525.18
  0
VERTEX
  8
14
 10
 304.30
 20
 505.20
  0
VERTEX
  8
14
 10
 312.80
 20
 470.51
  0
VERTEX
  8
14
 10
 315.89
 20
 458.67
  0
VERTEX
  8
14
 10
 318.89
 20
 447.57
  0
VERTEX
  8
14
 10
 329.36
 20
 417.89
  0
VERTEX
  8
14
 10
 307.05
 20
 395.70
  0
VERTEX
  8
14
 10
 306.19
 20
 382.77
  0
VERTEX
  8
14
 10
 303.63
 20
 349.74
  0
VERTEX
  8
14
 10
 302.50
 20
 328.88
  0
VERTEX
  8
14
 10
 302.32
 20
 307.54
  0
VERTEX
  8
14
 10
 303.32
 20
 299.16
  0
VERTEX
  8
14
 10
 304.28
 20
 290.77
  0
VERTEX
  8
14
 10
 308.27
 20
 256.15
  0
VERTEX
  8
14
 10
 312.15
 20
 218.95
  0
VERTEX
  8
14
 10
 315.67
 20
 173.95
  0
VERTEX
  8
14
 10
 318.15
 20
 129.43
  0
VERTEX
  8
14
 10
 320.76
 20
  29.51
  0
VERTEX
  8
14
 10
 216.98
 20
  20.80
  0
VERTEX
  8
14
 10
  93.93
 20
  15.00
  0
VERTEX
  8
14
 10
  70.50
 20
  15.00
  0
VERTEX
  8
14
 10
  47.00
 20
  15.00
  0
VERTEX
  8
14
 10
  23.50
 20
  15.00
  0
VERTEX
  8
14
 10
   0.00
 20
  15.00
  0
VERTEX
  8
14
 10
   0.00
 20
 639.95
  0
VERTEX
  8
14
 10
  11.76
 20
 641.00
  0
VERTEX
  8
14
 10
  23.50
 20
 642.25
  0
SEQEND
  8
14
  0
TEXT
  8
2
 10
   0.00
 20
 639.95
 40
  10.00
  1
#-394
  0
TEXT
  8
2
 10
   0.00
 20
  15.00
 40
  10.00
  1
#-395
  0
TEXT
  8
3
 10
  23.50
 20
  15.00
 40
  10.00
  1
#-396
  0
TEXT
  8
3
 10
  47.00
 20
  15.00
 40
  10.00
  1
#-397
  0
TEXT
  8
3
 10
  70.50
 20
  15.00
 40
  10.00
  1
#-398
  0
TEXT
  8
2
 10
  93.93
 20
  15.00
 40
  10.00
  1
#-399
  0
TEXT
  8
2
 10
 320.76
 20
  29.51
 40
  10.00
  1
#-400
  0
TEXT
  8
3
 10
 318.15
 20
 129.43
 40
  10.00
  1
#-401
  0
TEXT
  8
3
 10
 315.67
 20
 173.95
 40
  10.00
  1
#-402
  0
TEXT
  8
3
 10
 312.15
 20
 218.95
 40
  10.00
  1
#-403
  0
TEXT
  8
3
 10
 308.27
 20
 256.15
 40
  10.00
  1
#-404
  0
TEXT
  8
3
 10
 304.28
 20
 290.77
 40
  10.00
  1
#-405
  0
TEXT
  8
2
 10
 302.32
 20
 307.54
 40
  10.00
  1
#-406
  0
TEXT
  8
3
 10
 306.19
 20
 382.77
 40
  10.00
  1
#-407
  0
TEXT
  8
2
 10
 307.05
 20
 395.70
 40
  10.00
  1
#-408
  0
TEXT
  8
2
 10
 329.36
 20
 417.89
 40
  10.00
  1
#-409
  0
TEXT
  8
2
 10
 318.89
 20
 447.57
 40
  10.00
  1
#-410
  0
TEXT
  8
3
 10
 315.89
 20
 458.67
 40
  10.00
  1
#-411
  0
TEXT
  8
3
 10
 312.80
 20
 470.51
 40
  10.00
  1
#-412
  0
TEXT
  8
3
 10
 304.30
 20
 505.20
 40
  10.00
  1
#-413
  0
TEXT
  8
2
 10
 299.54
 20
 525.18
 40
  10.00
  1
#-414
  0
TEXT
  8
3
 10
 249.95
 20
 538.96
 40
  10.00
  1
#-415
  0
TEXT
  8
3
 10
 234.35
 20
 608.02
 40
  10.00
  1
#-416
  0
TEXT
  8
2
 10
 243.73
 20
 687.15
 40
  10.00
  1
#-417
  0
TEXT
  8
3
 10
 154.56
 20
 713.21
 40
  10.00
  1
#-418
  0
TEXT
  8
2
 10
 129.28
 20
 720.46
 40
  10.00
  1
#-419
  0
TEXT
  8
3
 10
  70.51
 20
 642.08
 40
  10.00
  1
#-420
  0
TEXT
  8
2
 10
  47.00
 20
 639.95
 40
  10.00
  1
#-421
  0
TEXT
  8
2
 10
  23.50
 20
 642.25
 40
  10.00
  1
#-422
  0
POINT
  8
3
 10
  35.24
 20
 641.00
  0
POINT
  8
3
 10
  58.75
 20
 641.00
  0
POINT
  8
3
 10
  70.51
 20
 642.08
  0
POINT
  8
3
 10
  72.00
 20
 642.41
  0
POINT
  8
3
 10
  89.98
 20
 651.37
  0
POINT
  8
3
 10
  99.11
 20
 659.75
  0
POINT
  8
3
 10
 109.08
 20
 672.93
  0
POINT
  8
3
 10
 122.62
 20
 699.15
  0
POINT
  8
3
 10
 154.56
 20
 713.21
  0
POINT
  8
3
 10
 242.11
 20
 680.81
  0
POINT
  8
3
 10
 238.51
 20
 663.82
  0
POINT
  8
3
 10
 235.89
 20
 646.95
  0
POINT
  8
3
 10
 234.51
 20
 630.75
  0
POINT
  8
3
 10
 234.19
 20
 614.51
  0
POINT
  8
3
 10
 234.35
 20
 608.02
  0
POINT
  8
3
 10
 235.03
 20
 596.94
  0
POINT
  8
3
 10
 238.13
 20
 573.81
  0
POINT
  8
3
 10
 242.97
 20
 555.42
  0
POINT
  8
3
 10
 248.24
 20
 541.70
  0
POINT
  8
3
 10
 249.95
 20
 538.96
  0
POINT
  8
3
 10
 255.34
 20
 532.58
  0
POINT
  8
3
 10
 264.97
 20
 526.56
  0
POINT
  8
3
 10
 278.44
 20
 523.17
  0
POINT
  8
3
 10
 291.15
 20
 523.59
  0
POINT
  8
3
 10
 295.34
 20
 524.39
  0
POINT
  8
3
 10
 304.30
 20
 505.20
  0
POINT
  8
3
 10
 312.80
 20
 470.51
  0
POINT
  8
3
 10
 315.89
 20
 458.67
  0
POINT
  8
3
 10
 306.19
 20
 382.77
  0
POINT
  8
3
 10
 303.63
 20
 349.74
  0
POINT
  8
3
 10
 302.50
 20
 328.88
  0
POINT
  8
3
 10
 303.32
 20
 299.16
  0
POINT
  8
3
 10
 304.28
 20
 290.77
  0
POINT
  8
3
 10
 308.27
 20
 256.15
  0
POINT
  8
3
 10
 312.15
 20
 218.95
  0
POINT
  8
3
 10
 315.67
 20
 173.95
  0
POINT
  8
3
 10
 318.15
 20
 129.43
  0
POINT
  8
3
 10
 216.98
 20
  20.80
  0
POINT
  8
3
 10
  70.50
 20
  15.00
  0
POINT
  8
3
 10
  47.00
 20
  15.00
  0
POINT
  8
3
 10
  23.50
 20
  15.00
  0
POINT
  8
3
 10
  11.76
 20
 641.00
  0
POINT
  8
2
 10
  47.00
 20
 639.95
  0
POINT
  8
2
 10
  23.50
 20
 642.25
  0
POINT
  8
2
 10
  47.00
 20
 639.95
  0
POINT
  8
2
 10
 129.28
 20
 720.46
  0
POINT
  8
2
 10
  47.00
 20
 639.95
  0
POINT
  8
2
 10
 129.28
 20
 720.46
  0
POINT
  8
2
 10
 243.73
 20
 687.15
  0
POINT
  8
2
 10
 129.28
 20
 720.46
  0
POINT
  8
2
 10
 243.73
 20
 687.15
  0
POINT
  8
2
 10
 299.54
 20
 525.18
  0
POINT
  8
2
 10
 243.73
 20
 687.15
  0
POINT
  8
2
 10
 299.54
 20
 525.18
  0
POINT
  8
2
 10
 318.89
 20
 447.57
  0
POINT
  8
2
 10
 299.54
 20
 525.18
  0
POINT
  8
2
 10
 318.89
 20
 447.57
  0
POINT
  8
2
 10
 329.36
 20
 417.89
  0
POINT
  8
2
 10
 318.89
 20
 447.57
  0
POINT
  8
2
 10
 329.36
 20
 417.89
  0
POINT
  8
2
 10
 307.05
 20
 395.70
  0
POINT
  8
2
 10
 329.36
 20
 417.89
  0
POINT
  8
2
 10
 307.05
 20
 395.70
  0
POINT
  8
2
 10
 302.32
 20
 307.54
  0
POINT
  8
2
 10
 307.05
 20
 395.70
  0
POINT
  8
2
 10
 302.32
 20
 307.54
  0
POINT
  8
2
 10
 320.76
 20
  29.51
  0
POINT
  8
2
 10
 302.32
 20
 307.54
  0
POINT
  8
2
 10
 320.76
 20
  29.51
  0
POINT
  8
2
 10
  93.93
 20
  15.00
  0
POINT
  8
2
 10
   0.00
 20
  15.00
  0
POINT
  8
2
 10
 320.76
 20
  29.51
  0
POINT
  8
2
 10
   0.00
 20
  15.00
  0
POINT
  8
2
 10
   0.00
 20
 639.95
  0
POINT
  8
2
 10
  23.50
 20
 642.25
  0
POINT
  8
2
 10
   0.00
 20
 639.95
  0
POINT
  8
2
 10
  23.50
 20
 642.25
  0
POINT
  8
13
 10
 153.95
 20
 302.51
  0
TEXT
  8
13
 10
 153.95
 20
 302.51
 40
  10.00
  1
#-423
  0
POINT
  8
13
 10
 160.75
 20
 139.51
  0
TEXT
  8
13
 10
 160.75
 20
 139.51
 40
  10.00
  1
#-424
  0
POINT
  8
13
 10
 160.75
 20
 392.51
  0
TEXT
  8
13
 10
 160.75
 20
 392.51
 40
  10.00
  1
#-425
  0
POINT
  8
13
 10
 203.54
 20
 446.62
  0
TEXT
  8
13
 10
 203.54
 20
 446.62
 40
  10.00
  1
#-426
  0
POINT
  8
13
 10
 167.72
 20
 282.55
  0
TEXT
  8
13
 10
 167.72
 20
 282.55
 40
  10.00
  1
#-427
  0
POINT
  8
13
 10
 167.30
 20
 302.49
  0
TEXT
  8
13
 10
 167.30
 20
 302.49
 40
  10.00
  1
#-428
  0
POINT
  8
13
 10
 153.63
 20
 282.54
  0
TEXT
  8
13
 10
 153.63
 20
 282.54
 40
  10.00
  1
#-429
  0
TEXT
  8
15
 72
3
 10
 109.68
 20
 503.96
 11
 184.80
 21
 503.96
 40
  15.02
 50
   0.00
  1
VT LI
  0
TEXT
  8
2
 10
 109.68
 20
 503.96
 40
  10.00
  1
#-15
  0
TEXT
  8
2
 10
 184.80
 20
 503.96
 40
  10.00
  1
#-15
  0
LINE
  8
8
 10
 319.31
 20
 101.15
 11
  58.76
 21
 101.15
  0
TEXT
  8
2
 10
  58.76
 20
 101.15
 40
  10.00
  1
#-430
  0
TEXT
  8
2
 10
 319.31
 20
 101.15
 40
  10.00
  1
#-431
  0
LINE
  8
8
 10
 329.36
 20
 417.89
 11
 188.92
 21
 449.96
  0
TEXT
  8
2
 10
 188.92
 20
 449.96
 40
  10.00
  1
#-432
  0
TEXT
  8
2
 10
 329.36
 20
 417.89
 40
  10.00
  1
#-433
  0
LINE
  8
8
 10
 155.76
 20
 457.54
 11
  58.77
 21
 457.54
  0
TEXT
  8
2
 10
  58.77
 20
 457.54
 40
  10.00
  1
#-434
  0
TEXT
  8
2
 10
 155.76
 20
 457.54
 40
  10.00
  1
#-435
  0
LINE
  8
8
 10
 238.85
 20
 570.47
 11
  58.75
 21
 570.47
  0
TEXT
  8
2
 10
  58.75
 20
 570.47
 40
  10.00
  1
#-436
  0
TEXT
  8
2
 10
 238.85
 20
 570.47
 40
  10.00
  1
#-437
  0
LINE
  8
8
 10
 129.28
 20
 720.46
 11
 129.27
 21
 292.54
  0
TEXT
  8
2
 10
 129.27
 20
 292.54
 40
  10.00
  1
#-438
  0
TEXT
  8
2
 10
 129.28
 20
 720.46
 40
  10.00
  1
#-439
  0
LINE
  8
8
 10
  47.01
 20
 572.78
 11
  47.01
 21
 144.97
  0
TEXT
  8
2
 10
  47.01
 20
 144.97
 40
  10.00
  1
#-440
  0
TEXT
  8
2
 10
  47.01
 20
 572.78
 40
  10.00
  1
#-441
  0
LINE
  8
8
 10
  23.50
 20
 572.78
 11
  23.50
 21
 144.97
  0
TEXT
  8
2
 10
  23.50
 20
 144.97
 40
  10.00
  1
#-442
  0
TEXT
  8
2
 10
  23.50
 20
 572.78
 40
  10.00
  1
#-443
  0
LINE
  8
8
 10
  58.75
 20
 641.00
 11
  58.76
 21
 720.47
  0
TEXT
  8
2
 10
  58.76
 20
 720.47
 40
  10.00
  1
#-444
  0
TEXT
  8
2
 10
  58.75
 20
 641.00
 40
  10.00
  1
#-445
  0
LINE
  8
8
 10
  58.76
 20
  15.00
 11
  58.76
 21
 641.00
  0
TEXT
  8
2
 10
  58.76
 20
 641.00
 40
  10.00
  1
#-446
  0
TEXT
  8
2
 10
  58.76
 20
  15.00
 40
  10.00
  1
#-447
  0
LINE
  8
8
 10
 307.05
 20
 395.70
 11
 188.92
 21
 449.96
  0
TEXT
  8
2
 10
 188.92
 20
 449.96
 40
  10.00
  1
#-448
  0
TEXT
  8
2
 10
 307.05
 20
 395.70
 40
  10.00
  1
#-449
  0
LINE
  8
8
 10
 188.92
 20
 449.96
 11
 318.89
 21
 447.57
  0
TEXT
  8
2
 10
 318.89
 20
 447.57
 40
  10.00
  1
#-450
  0
TEXT
  8
2
 10
 188.92
 20
 449.96
 40
  10.00
  1
#-451
  0
LINE
  8
8
 10
 129.28
 20
 720.46
 11
  58.76
 21
 720.47
  0
TEXT
  8
2
 10
  58.76
 20
 720.47
 40
  10.00
  1
#-452
  0
TEXT
  8
2
 10
 129.28
 20
 720.46
 40
  10.00
  1
#-453
  0
LINE
  8
8
 10
 173.26
 20
 292.54
 11
 302.33
 21
 307.54
  0
TEXT
  8
2
 10
 302.33
 20
 307.54
 40
  10.00
  1
#-454
  0
TEXT
  8
2
 10
 173.26
 20
 292.54
 40
  10.00
  1
#-455
  0
LINE
  8
8
 10
 148.25
 20
 292.54
 11
  58.80
 21
 292.54
  0
TEXT
  8
2
 10
  58.80
 20
 292.54
 40
  10.00
  1
#-456
  0
TEXT
  8
2
 10
 148.25
 20
 292.54
 40
  10.00
  1
#-457
  0
LINE
  8
7
 10
  58.76
 20
  15.00
 11
  58.76
 21
 641.00
  0
TEXT
  8
2
 10
  58.76
 20
 641.00
 40
  10.00
  1
#-458
  0
TEXT
  8
2
 10
  58.76
 20
  15.00
 40
  10.00
  1
#-459
  0
POLYLINE
  8
8
 66
  1
 70
  0
  0
VERTEX
  8
8
 10
 160.75
 20
 407.51
  0
VERTEX
  8
8
 10
 163.41
 20
 380.34
  0
VERTEX
  8
8
 10
 166.78
 20
 353.00
  0
VERTEX
  8
8
 10
 170.27
 20
 324.17
  0
VERTEX
  8
8
 10
 173.25
 20
 292.53
  0
SEQEND
  8
8
  0
TEXT
  8
2
 10
 173.25
 20
 292.53
 40
  10.00
  1
#-460
  0
TEXT
  8
2
 10
 160.75
 20
 407.51
 40
  10.00
  1
#-461
  0
POINT
  8
3
 10
 163.41
 20
 380.34
  0
POINT
  8
3
 10
 166.78
 20
 353.00
  0
POINT
  8
3
 10
 170.27
 20
 324.17
  0
POINT
  8
2
 10
 173.25
 20
 292.53
  0
POINT
  8
2
 10
 160.75
 20
 407.51
  0
POINT
  8
2
 10
 173.25
 20
 292.53
  0
POLYLINE
  8
8
 66
  1
 70
  0
  0
VERTEX
  8
8
 10
 160.75
 20
 124.51
  0
VERTEX
  8
8
 10
 155.61
 20
 189.29
  0
VERTEX
  8
8
 10
 150.46
 20
 254.06
  0
VERTEX
  8
8
 10
 148.64
 20
 280.77
  0
VERTEX
  8
8
 10
 148.25
 20
 292.53
  0
SEQEND
  8
8
  0
TEXT
  8
2
 10
 148.25
 20
 292.53
 40
  10.00
  1
#-462
  0
TEXT
  8
2
 10
 160.75
 20
 124.51
 40
  10.00
  1
#-463
  0
POINT
  8
3
 10
 155.61
 20
 189.29
  0
POINT
  8
3
 10
 150.46
 20
 254.06
  0
POINT
  8
3
 10
 148.64
 20
 280.77
  0
POINT
  8
2
 10
 148.25
 20
 292.53
  0
POINT
  8
2
 10
 160.75
 20
 124.51
  0
POINT
  8
2
 10
 148.25
 20
 292.53
  0
POLYLINE
  8
8
 66
  1
 70
  0
  0
VERTEX
  8
8
 10
 173.25
 20
 292.53
  0
VERTEX
  8
8
 10
 170.78
 20
 253.52
  0
VERTEX
  8
8
 10
 160.75
 20
 124.51
  0
SEQEND
  8
8
  0
TEXT
  8
2
 10
 160.75
 20
 124.51
 40
  10.00
  1
#-464
  0
TEXT
  8
2
 10
 173.25
 20
 292.53
 40
  10.00
  1
#-465
  0
POINT
  8
3
 10
 170.78
 20
 253.52
  0
POINT
  8
2
 10
 160.75
 20
 124.51
  0
POINT
  8
2
 10
 173.25
 20
 292.53
  0
POINT
  8
2
 10
 160.75
 20
 124.51
  0
POLYLINE
  8
8
 66
  1
 70
  0
  0
VERTEX
  8
8
 10
 160.75
 20
 407.51
  0
VERTEX
  8
8
 10
 158.14
 20
 381.04
  0
VERTEX
  8
8
 10
 154.29
 20
 353.32
  0
VERTEX
  8
8
 10
 150.54
 20
 323.94
  0
VERTEX
  8
8
 10
 148.25
 20
 292.53
  0
SEQEND
  8
8
  0
TEXT
  8
2
 10
 148.25
 20
 292.53
 40
  10.00
  1
#-466
  0
TEXT
  8
2
 10
 160.75
 20
 407.51
 40
  10.00
  1
#-467
  0
POINT
  8
3
 10
 158.14
 20
 381.04
  0
POINT
  8
3
 10
 154.29
 20
 353.32
  0
POINT
  8
3
 10
 150.54
 20
 323.94
  0
POINT
  8
2
 10
 148.25
 20
 292.53
  0
POINT
  8
2
 10
 160.75
 20
 407.51
  0
POINT
  8
2
 10
 148.25
 20
 292.53
  0
LINE
  8
8
 10
  70.51
 20
 572.78
 11
  70.51
 21
 144.97
  0
TEXT
  8
2
 10
  70.51
 20
 144.97
 40
  10.00
  1
#-468
  0
TEXT
  8
2
 10
  70.51
 20
 572.78
 40
  10.00
  1
#-469
  0
TEXT
  8
15
 72
3
 10
  63.73
 20
  52.25
 11
  63.73
 21
  64.25
 40
   6.00
 50
  90.00
  1
VM
  0
TEXT
  8
2
 10
  63.73
 20
  52.25
 40
  10.00
  1
#-15
  0
TEXT
  8
2
 10
  63.73
 20
  64.25
 40
  10.00
  1
#-15
  0
LINE
  8
8
 10
  70.51
 20
 572.78
 11
  70.51
 21
 641.97
  0
TEXT
  8
2
 10
  70.51
 20
 641.97
 40
  10.00
  1
#-15
  0
TEXT
  8
2
 10
  70.51
 20
 572.78
 40
  10.00
  1
#-15
  0
LINE
  8
8
 10
 304.19
 20
 505.73
 11
 155.76
 21
 457.54
  0
TEXT
  8
2
 10
 155.76
 20
 457.54
 40
  10.00
  1
#-470
  0
TEXT
  8
2
 10
 304.19
 20
 505.73
 40
  10.00
  1
#-471
  0
LINE
  8
8
 10
 320.75
 20
  29.51
 11
  58.75
 21
  29.52
  0
TEXT
  8
2
 10
  58.75
 20
  29.52
 40
  10.00
  1
#-472
  0
TEXT
  8
2
 10
 320.75
 20
  29.51
 40
  10.00
  1
#-473
  0
POINT
  8
4
 10
 302.32
 20
 307.54
 30
   4.00
 50
-173.08
  0
TEXT
  8
4
 10
 302.32
 20
 307.54
 40
  10.00
  1
#-406
  0
POINT
  8
4
 10
 234.35
 20
 608.02
 30
   4.00
 50
-177.79
  0
TEXT
  8
4
 10
 234.35
 20
 608.02
 40
  10.00
  1
#-416
  0
POINT
  8
4
 10
 249.95
 20
 538.96
 30
   4.00
 50
-145.76
  0
TEXT
  8
4
 10
 249.95
 20
 538.96
 40
  10.00
  1
#-415
  0
POINT
  8
4
 10
  23.50
 20
 642.25
 30
   4.00
 50
 -90.00
  0
TEXT
  8
4
 10
  23.50
 20
 642.25
 40
  10.00
  1
#-422
  0
POINT
  8
4
 10
  47.00
 20
 639.95
 30
   4.00
 50
 -90.03
  0
TEXT
  8
4
 10
  47.00
 20
 639.95
 40
  10.00
  1
#-421
  0
POINT
  8
4
 10
 318.89
 20
 447.57
 30
   4.00
 50
 178.94
  0
TEXT
  8
4
 10
 318.89
 20
 447.57
 40
  10.00
  1
#-410
  0
POINT
  8
4
 10
 307.05
 20
 395.70
 30
   4.00
 50
 155.31
  0
TEXT
  8
4
 10
 307.05
 20
 395.70
 40
  10.00
  1
#-408
  0
POINT
  8
4
 10
  23.50
 20
  15.00
 30
   4.00
 50
  90.00
  0
TEXT
  8
4
 10
  23.50
 20
  15.00
 40
  10.00
  1
#-396
  0
POINT
  8
4
 10
  47.00
 20
  15.00
 30
   4.00
 50
  90.00
  0
TEXT
  8
4
 10
  47.00
 20
  15.00
 40
  10.00
  1
#-397
  0
POINT
  8
4
 10
  70.50
 20
  15.00
 30
   4.00
 50
  90.00
  0
TEXT
  8
4
 10
  70.50
 20
  15.00
 40
  10.00
  1
#-398
  0
POINT
  8
4
 10
 330.75
 20
  30.52
 30
   4.00
 50
-174.22
  0
TEXT
  8
4
 10
 330.75
 20
  30.52
 40
  10.00
  1
#-379
  0
POINT
  8
4
 10
  23.50
 20
   0.00
 30
   4.00
 50
  90.00
  0
TEXT
  8
4
 10
  23.50
 20
   0.00
 40
  10.00
  1
#-374
  0
POINT
  8
4
 10
  70.50
 20
   0.00
 30
   4.00
 50
  90.00
  0
TEXT
  8
4
 10
  70.50
 20
   0.00
 40
  10.00
  1
#-376
  0
POINT
  8
4
 10
  47.00
 20
   0.00
 30
   4.00
 50
  90.00
  0
TEXT
  8
4
 10
  47.00
 20
   0.00
 40
  10.00
  1
#-375
  0
POINT
  8
4
 10
 312.33
 20
 308.11
 30
   4.00
 50
-173.04
  0
TEXT
  8
4
 10
 312.33
 20
 308.11
 40
  10.00
  1
#-380
  0
POINT
  8
4
 10
 316.78
 20
 391.27
 30
   4.00
 50
 155.32
  0
TEXT
  8
4
 10
 316.78
 20
 391.27
 40
  10.00
  1
#-381
  0
POINT
  8
4
 10
 329.57
 20
 447.37
 30
   4.00
 50
 178.91
  0
TEXT
  8
4
 10
 329.57
 20
 447.37
 40
  10.00
  1
#-383
  0
POINT
  8
4
 10
 244.34
 20
 608.40
 30
   4.00
 50
-177.81
  0
TEXT
  8
4
 10
 244.34
 20
 608.40
 40
  10.00
  1
#-387
  0
POINT
  8
4
 10
 258.20
 20
 544.58
 30
   4.00
 50
-145.70
  0
TEXT
  8
4
 10
 258.20
 20
 544.58
 40
  10.00
  1
#-386
  0
POINT
  8
4
 10
  70.41
 20
 652.44
 30
   4.00
 50
 -89.40
  0
TEXT
  8
4
 10
  70.41
 20
 652.44
 40
  10.00
  1
#-390
  0
POINT
  8
4
 10
  23.50
 20
 652.31
 30
   4.00
 50
 -90.00
  0
TEXT
  8
4
 10
  23.50
 20
 652.31
 40
  10.00
  1
#-393
  0
POINT
  8
4
 10
  47.00
 20
 649.99
 30
   4.00
 50
 -90.00
  0
TEXT
  8
4
 10
  47.00
 20
 649.99
 40
  10.00
  1
#-392
  0
POINT
  8
4
 10
  70.51
 20
 642.08
 30
   4.00
 50
 -89.46
  0
TEXT
  8
4
 10
  70.51
 20
 642.08
 40
  10.00
  1
#-420
  0
TEXT
  8
1
 10
 170.45
 20
 385.23
 40
  10.00
  1
Piece Name: 10--------BL-------S1V
  0
TEXT
  8
1
 10
 170.45
 20
 372.73
 40
  10.00
  1
Size: 38
  0
TEXT
  8
1
 10
 170.45
 20
 360.23
 40
  10.00
  1
Annotation: --------BL-------S1VT--LI1X-04
  0
TEXT
  8
1
 10
 170.45
 20
 347.73
 40
  10.00
  1
Quantity: 1
  0
TEXT
  8
1
 10
 170.45
 20
 335.23
 40
  10.00
  1
Category: 
  0
ENDBLK
  8
1
  0
BLOCK
  8
1
  2
Piece11
 70
  0
 10
   0.00
 20
   0.00
  0
POLYLINE
  8
1
 66
  1
 70
  1
  0
VERTEX
  8
1
 10
   0.00
 20
   0.00
  0
VERTEX
  8
1
 10
   0.01
 20
 627.41
  0
VERTEX
  8
1
 10
  13.26
 20
 626.00
  0
VERTEX
  8
1
 10
  26.51
 20
 624.82
  0
VERTEX
  8
1
 10
  26.50
 20
   0.00
  0
VERTEX
  8
1
 10
   0.00
 20
   0.00
  0
SEQEND
  8
1
  0
TEXT
  8
2
 10
  26.50
 20
   0.00
 40
  10.00
  1
#-474
  0
TEXT
  8
2
 10
  26.51
 20
 624.82
 40
  10.00
  1
#-475
  0
TEXT
  8
2
 10
   0.01
 20
 627.41
 40
  10.00
  1
#-476
  0
TEXT
  8
2
 10
   0.00
 20
   0.00
 40
  10.00
  1
#-477
  0
POINT
  8
3
 10
  13.26
 20
 626.00
  0
POINT
  8
2
 10
   0.00
 20
   0.00
  0
POINT
  8
2
 10
   0.01
 20
 627.41
  0
POINT
  8
2
 10
  26.51
 20
 624.82
  0
POINT
  8
2
 10
   0.01
 20
 627.41
  0
POINT
  8
2
 10
  26.51
 20
 624.82
  0
POINT
  8
2
 10
  26.50
 20
   0.00
  0
POINT
  8
2
 10
   0.00
 20
   0.00
  0
POINT
  8
13
 10
  13.26
 20
 600.00
  0
TEXT
  8
13
 10
  13.26
 20
 600.00
 40
  10.00
  1
#-478
  0
POINT
  8
13
 10
  13.26
 20
 518.27
  0
TEXT
  8
13
 10
  13.26
 20
 518.27
 40
  10.00
  1
#-479
  0
POINT
  8
13
 10
  13.25
 20
 354.80
  0
TEXT
  8
13
 10
  13.25
 20
 354.80
 40
  10.00
  1
#-480
  0
POINT
  8
13
 10
  13.25
 20
 273.07
  0
TEXT
  8
13
 10
  13.25
 20
 273.07
 40
  10.00
  1
#-481
  0
POINT
  8
13
 10
  13.25
 20
 191.34
  0
TEXT
  8
13
 10
  13.25
 20
 191.34
 40
  10.00
  1
#-482
  0
POINT
  8
13
 10
  13.26
 20
 611.00
  0
TEXT
  8
13
 10
  13.26
 20
 611.00
 40
  10.00
  1
#-483
  0
POINT
  8
13
 10
  13.26
 20
 531.27
  0
TEXT
  8
13
 10
  13.26
 20
 531.27
 40
  10.00
  1
#-484
  0
POINT
  8
13
 10
  13.25
 20
 111.60
  0
TEXT
  8
13
 10
  13.25
 20
 111.60
 40
  10.00
  1
#-485
  0
POINT
  8
13
 10
  13.25
 20
 109.60
  0
TEXT
  8
13
 10
  13.25
 20
 109.60
 40
  10.00
  1
#-486
  0
POINT
  8
13
 10
  13.25
 20
 122.60
  0
TEXT
  8
13
 10
  13.25
 20
 122.60
 40
  10.00
  1
#-487
  0
POINT
  8
13
 10
  13.25
 20
 204.34
  0
TEXT
  8
13
 10
  13.25
 20
 204.34
 40
  10.00
  1
#-488
  0
POINT
  8
13
 10
  13.25
 20
 286.07
  0
TEXT
  8
13
 10
  13.25
 20
 286.07
 40
  10.00
  1
#-489
  0
POINT
  8
13
 10
  13.25
 20
 367.80
  0
TEXT
  8
13
 10
  13.25
 20
 367.80
 40
  10.00
  1
#-490
  0
POINT
  8
13
 10
  13.26
 20
 613.00
  0
TEXT
  8
13
 10
  13.26
 20
 613.00
 40
  10.00
  1
#-491
  0
POINT
  8
13
 10
  13.26
 20
 436.53
  0
TEXT
  8
13
 10
  13.26
 20
 436.53
 40
  10.00
  1
#-492
  0
POINT
  8
13
 10
  13.26
 20
 449.53
  0
TEXT
  8
13
 10
  13.26
 20
 449.53
 40
  10.00
  1
#-493
  0
TEXT
  8
15
 72
3
 10
  23.63
 20
  29.50
 11
  23.63
 21
 125.50
 40
   6.00
 50
  90.00
  1
FLR Knopfloch SC
  0
TEXT
  8
2
 10
  23.63
 20
  29.50
 40
  10.00
  1
#-15
  0
TEXT
  8
2
 10
  23.63
 20
 125.50
 40
  10.00
  1
#-15
  0
LINE
  8
8
 10
  13.25
 20
 122.60
 11
  13.25
 21
 109.60
  0
TEXT
  8
2
 10
  13.25
 20
 109.60
 40
  10.00
  1
#-494
  0
TEXT
  8
2
 10
  13.25
 20
 122.60
 40
  10.00
  1
#-495
  0
LINE
  8
8
 10
  13.25
 20
 273.07
 11
  13.25
 21
 286.07
  0
TEXT
  8
2
 10
  13.25
 20
 286.07
 40
  10.00
  1
#-496
  0
TEXT
  8
2
 10
  13.25
 20
 273.07
 40
  10.00
  1
#-497
  0
LINE
  8
8
 10
  13.26
 20
 600.00
 11
  13.26
 21
 611.00
  0
TEXT
  8
2
 10
  13.26
 20
 611.00
 40
  10.00
  1
#-498
  0
TEXT
  8
2
 10
  13.26
 20
 600.00
 40
  10.00
  1
#-499
  0
LINE
  8
8
 10
  13.26
 20
 518.27
 11
  13.26
 21
 531.27
  0
TEXT
  8
2
 10
  13.26
 20
 531.27
 40
  10.00
  1
#-500
  0
TEXT
  8
2
 10
  13.26
 20
 518.27
 40
  10.00
  1
#-501
  0
LINE
  8
8
 10
  13.26
 20
 436.53
 11
  13.26
 21
 449.53
  0
TEXT
  8
2
 10
  13.26
 20
 449.53
 40
  10.00
  1
#-502
  0
TEXT
  8
2
 10
  13.26
 20
 436.53
 40
  10.00
  1
#-503
  0
LINE
  8
8
 10
  13.25
 20
 354.80
 11
  13.25
 21
 367.80
  0
TEXT
  8
2
 10
  13.25
 20
 367.80
 40
  10.00
  1
#-504
  0
TEXT
  8
2
 10
  13.25
 20
 354.80
 40
  10.00
  1
#-505
  0
LINE
  8
8
 10
  13.25
 20
 191.34
 11
  13.25
 21
 204.34
  0
TEXT
  8
2
 10
  13.25
 20
 204.34
 40
  10.00
  1
#-506
  0
TEXT
  8
2
 10
  13.25
 20
 191.34
 40
  10.00
  1
#-507
  0
LINE
  8
7
 10
  20.37
 20
 258.51
 11
  20.37
 21
 358.51
  0
TEXT
  8
2
 10
  20.37
 20
 358.51
 40
  10.00
  1
#-15
  0
TEXT
  8
2
 10
  20.37
 20
 258.51
 40
  10.00
  1
#-15
  0
TEXT
  8
15
 72
3
 10
   8.26
 20
 345.70
 11
   8.26
 21
 329.70
 40
   8.00
 50
 -90.00
  1
SC
  0
TEXT
  8
2
 10
   8.26
 20
 345.70
 40
  10.00
  1
#-15
  0
TEXT
  8
2
 10
   8.26
 20
 329.70
 40
  10.00
  1
#-15
  0
TEXT
  8
15
 72
3
 10
  24.50
 20
 388.07
 11
  24.50
 21
 478.07
 40
   6.00
 50
  90.00
  1
BL PHA GR:36-44
  0
TEXT
  8
2
 10
  24.50
 20
 388.07
 40
  10.00
  1
#-15
  0
TEXT
  8
2
 10
  24.50
 20
 478.07
 40
  10.00
  1
#-15
  0
TEXT
  8
1
 10
  13.25
 20
 332.45
 40
  10.00
  1
Piece Name: 11--------BL-------SBV
  0
TEXT
  8
1
 10
  13.25
 20
 319.95
 40
  10.00
  1
Size: 38
  0
TEXT
  8
1
 10
  13.25
 20
 307.45
 40
  10.00
  1
Annotation: --------BL-------SBVT--011X-01
  0
TEXT
  8
1
 10
  13.25
 20
 294.95
 40
  10.00
  1
Quantity: 1
  0
TEXT
  8
1
 10
  13.25
 20
 282.45
 40
  10.00
  1
Category: 
  0
ENDBLK
  8
1
  0
BLOCK
  8
1
  2
Piece12
 70
  0
 10
   0.00
 20
   0.00
  0
POLYLINE
  8
1
 66
  1
 70
  1
  0
VERTEX
  8
1
 10
   0.00
 20
  28.00
  0
VERTEX
  8
1
 10
  10.32
 20
  28.00
  0
VERTEX
  8
1
 10
  54.65
 20
  28.00
  0
VERTEX
  8
1
 10
 104.59
 20
  30.27
  0
VERTEX
  8
1
 10
 133.28
 20
  33.32
  0
VERTEX
  8
1
 10
 145.32
 20
  34.98
  0
VERTEX
  8
1
 10
 156.05
 20
  36.77
  0
VERTEX
  8
1
 10
 165.64
 20
  38.56
  0
VERTEX
  8
1
 10
 169.38
 20
  39.35
  0
VERTEX
  8
1
 10
 173.53
 20
  40.20
  0
VERTEX
  8
1
 10
 177.53
 20
  41.03
  0
VERTEX
  8
1
 10
 178.72
 20
  41.32
  0
VERTEX
  8
1
 10
 183.18
 20
  41.77
  0
VERTEX
  8
1
 10
 187.89
 20
  41.12
  0
VERTEX
  8
1
 10
 192.40
 20
  38.64
  0
VERTEX
  8
1
 10
 195.27
 20
  35.19
  0
VERTEX
  8
1
 10
 201.50
 20
  23.86
  0
VERTEX
  8
1
 10
 193.51
 20
  20.34
  0
VERTEX
  8
1
 10
 169.50
 20
  11.96
  0
VERTEX
  8
1
 10
 139.17
 20
   6.26
  0
VERTEX
  8
1
 10
  99.85
 20
   1.50
  0
VERTEX
  8
1
 10
  77.42
 20
   0.17
  0
VERTEX
  8
1
 10
  69.33
 20
   0.00
  0
VERTEX
  8
1
 10
  18.21
 20
   0.01
  0
VERTEX
  8
1
 10
  17.27
 20
  10.10
  0
VERTEX
  8
1
 10
  14.81
 20
  14.32
  0
VERTEX
  8
1
 10
  13.07
 20
  15.40
  0
VERTEX
  8
1
 10
   8.74
 20
  17.04
  0
VERTEX
  8
1
 10
   4.44
 20
  18.68
  0
VERTEX
  8
1
 10
   2.74
 20
  19.75
  0
VERTEX
  8
1
 10
   2.06
 20
  20.48
  0
VERTEX
  8
1
 10
   1.52
 20
  21.33
  0
VERTEX
  8
1
 10
   0.55
 20
  23.77
  0
VERTEX
  8
1
 10
   0.00
 20
  28.00
  0
SEQEND
  8
1
  0
TEXT
  8
2
 10
  14.81
 20
  14.32
 40
  10.00
  1
#-508
  0
TEXT
  8
2
 10
  18.21
 20
   0.01
 40
  10.00
  1
#-509
  0
TEXT
  8
3
 10
  77.42
 20
   0.17
 40
  10.00
  1
#-510
  0
TEXT
  8
2
 10
 201.50
 20
  23.86
 40
  10.00
  1
#-511
  0
TEXT
  8
3
 10
 178.72
 20
  41.32
 40
  10.00
  1
#-512
  0
TEXT
  8
2
 10
 177.53
 20
  41.03
 40
  10.00
  1
#-513
  0
TEXT
  8
2
 10
   0.00
 20
  28.00
 40
  10.00
  1
#-514
  0
POINT
  8
3
 10
  10.32
 20
  28.00
  0
POINT
  8
3
 10
  54.65
 20
  28.00
  0
POINT
  8
3
 10
 104.59
 20
  30.27
  0
POINT
  8
3
 10
 133.28
 20
  33.32
  0
POINT
  8
3
 10
 145.32
 20
  34.98
  0
POINT
  8
3
 10
 156.05
 20
  36.77
  0
POINT
  8
3
 10
 165.64
 20
  38.56
  0
POINT
  8
3
 10
 169.38
 20
  39.35
  0
POINT
  8
3
 10
 173.53
 20
  40.20
  0
POINT
  8
3
 10
 178.72
 20
  41.32
  0
POINT
  8
3
 10
 183.18
 20
  41.77
  0
POINT
  8
3
 10
 187.89
 20
  41.12
  0
POINT
  8
3
 10
 192.40
 20
  38.64
  0
POINT
  8
3
 10
 195.27
 20
  35.19
  0
POINT
  8
3
 10
 193.51
 20
  20.34
  0
POINT
  8
3
 10
 169.50
 20
  11.96
  0
POINT
  8
3
 10
 139.17
 20
   6.26
  0
POINT
  8
3
 10
  99.85
 20
   1.50
  0
POINT
  8
3
 10
  77.42
 20
   0.17
  0
POINT
  8
3
 10
  69.33
 20
   0.00
  0
POINT
  8
3
 10
  17.27
 20
  10.10
  0
POINT
  8
3
 10
  13.07
 20
  15.40
  0
POINT
  8
3
 10
   8.74
 20
  17.04
  0
POINT
  8
3
 10
   4.44
 20
  18.68
  0
POINT
  8
3
 10
   2.74
 20
  19.75
  0
POINT
  8
3
 10
   2.06
 20
  20.48
  0
POINT
  8
3
 10
   1.52
 20
  21.33
  0
POINT
  8
3
 10
   0.55
 20
  23.77
  0
POINT
  8
2
 10
 177.53
 20
  41.03
  0
POINT
  8
2
 10
 201.50
 20
  23.86
  0
POINT
  8
2
 10
   0.00
 20
  28.00
  0
POINT
  8
2
 10
 201.50
 20
  23.86
  0
POINT
  8
2
 10
  18.21
 20
   0.01
  0
POINT
  8
2
 10
 201.50
 20
  23.86
  0
POINT
  8
2
 10
  18.21
 20
   0.01
  0
POINT
  8
2
 10
  14.81
 20
  14.32
  0
POINT
  8
2
 10
  18.21
 20
   0.01
  0
POINT
  8
2
 10
  14.81
 20
  14.32
  0
POINT
  8
2
 10
   0.00
 20
  28.00
  0
POINT
  8
2
 10
  14.81
 20
  14.32
  0
POINT
  8
2
 10
   0.00
 20
  28.00
  0
POINT
  8
13
 10
 184.88
 20
  29.75
  0
TEXT
  8
13
 10
 184.88
 20
  29.75
 40
  10.00
  1
#-515
  0
POINT
  8
13
 10
 188.26
 20
  29.79
  0
TEXT
  8
13
 10
 188.26
 20
  29.79
 40
  10.00
  1
#-516
  0
POINT
  8
13
 10
 173.06
 20
  24.94
  0
TEXT
  8
13
 10
 173.06
 20
  24.94
 40
  10.00
  1
#-517
  0
TEXT
  8
15
 72
3
 10
  87.49
 20
   0.97
 11
 122.71
 21
   8.45
 40
   6.00
 50
  12.00
  1
BL PHA
  0
TEXT
  8
2
 10
  87.49
 20
   0.97
 40
  10.00
  1
#-15
  0
TEXT
  8
2
 10
 122.71
 20
   8.45
 40
  10.00
  1
#-15
  0
TEXT
  8
15
 72
3
 10
  82.78
 20
  12.52
 11
 164.94
 21
  29.98
 40
   6.00
 50
  12.00
  1
ST Knoploch SC
  0
TEXT
  8
2
 10
  82.78
 20
  12.52
 40
  10.00
  1
#-15
  0
TEXT
  8
2
 10
 164.94
 20
  29.98
 40
  10.00
  1
#-15
  0
LINE
  8
8
 10
 173.06
 20
  24.94
 11
 188.26
 21
  29.79
  0
TEXT
  8
2
 10
 188.26
 20
  29.79
 40
  10.00
  1
#-518
  0
TEXT
  8
2
 10
 173.06
 20
  24.94
 40
  10.00
  1
#-519
  0
POINT
  8
4
 10
 178.72
 20
  41.32
 30
  10.03
 50
 -61.71
  0
TEXT
  8
4
 10
 178.72
 20
  41.32
 40
  10.00
  1
#-512
  0
POINT
  8
4
 10
  77.42
 20
   0.17
 30
  10.00
 50
  91.75
  0
TEXT
  8
4
 10
  77.42
 20
   0.17
 40
  10.00
  1
#-510
  0
TEXT
  8
1
 10
 100.75
 20
  39.63
 40
  10.00
  1
Piece Name: 12--------BL-------SBK
  0
TEXT
  8
1
 10
 100.75
 20
  27.13
 40
  10.00
  1
Size: 38
  0
TEXT
  8
1
 10
 100.75
 20
  14.63
 40
  10.00
  1
Annotation: --------BL-------SBKS----1X-01
  0
TEXT
  8
1
 10
 100.75
 20
   2.13
 40
  10.00
  1
Quantity: 1
  0
TEXT
  8
1
 10
 100.75
 20
 -10.37
 40
  10.00
  1
Category: 
  0
ENDBLK
  8
1
  0
BLOCK
  8
1
  2
Piece13
 70
  0
 10
   0.00
 20
   0.00
  0
POLYLINE
  8
1
 66
  1
 70
  1
  0
VERTEX
  8
1
 10
 318.20
 20
 338.00
  0
VERTEX
  8
1
 10
 338.00
 20
 318.20
  0
VERTEX
  8
1
 10
  19.80
 20
   0.00
  0
VERTEX
  8
1
 10
   0.00
 20
  19.80
  0
VERTEX
  8
1
 10
 318.20
 20
 338.00
  0
SEQEND
  8
1
  0
TEXT
  8
2
 10
   0.00
 20
  19.80
 40
  10.00
  1
#-520
  0
TEXT
  8
2
 10
  19.80
 20
   0.00
 40
  10.00
  1
#-521
  0
TEXT
  8
2
 10
 338.00
 20
 318.20
 40
  10.00
  1
#-522
  0
TEXT
  8
2
 10
 318.20
 20
 338.00
 40
  10.00
  1
#-523
  0
POINT
  8
2
 10
 318.20
 20
 338.00
  0
POINT
  8
2
 10
 338.00
 20
 318.20
  0
POINT
  8
2
 10
  19.80
 20
   0.00
  0
POINT
  8
2
 10
   0.00
 20
  19.80
  0
POINT
  8
2
 10
 318.20
 20
 338.00
  0
LINE
  8
7
 10
 174.81
 20
 186.25
 11
 199.81
 21
 186.25
  0
TEXT
  8
2
 10
 199.81
 20
 186.25
 40
  10.00
  1
#-15
  0
TEXT
  8
2
 10
 174.81
 20
 186.25
 40
  10.00
  1
#-15
  0
TEXT
  8
15
 72
3
 10
 157.00
 20
 169.00
 11
 181.00
 21
 169.00
 40
   8.00
 50
   0.00
  1
STR
  0
TEXT
  8
2
 10
 157.00
 20
 169.00
 40
  10.00
  1
#-15
  0
TEXT
  8
2
 10
 181.00
 20
 169.00
 40
  10.00
  1
#-15
  0
TEXT
  8
1
 10
 169.00
 20
 187.75
 40
  10.00
  1
Piece Name: 13--------BL-------S1A
  0
TEXT
  8
1
 10
 169.00
 20
 175.25
 40
  10.00
  1
Size: 38
  0
TEXT
  8
1
 10
 169.00
 20
 162.75
 40
  10.00
  1
Annotation: --------BL-------S1AESR--2X-01
  0
TEXT
  8
1
 10
 169.00
 20
 150.25
 40
  10.00
  1
Quantity: 1
  0
TEXT
  8
1
 10
 169.00
 20
 137.75
 40
  10.00
  1
Category: 
  0
ENDBLK
  8
1
  0
BLOCK
  8
1
  2
Piece14
 70
  0
 10
   0.00
 20
   0.00
  0
POLYLINE
  8
1
 66
  1
 70
  1
  0
VERTEX
  8
1
 10
  17.52
 20
  25.00
  0
VERTEX
  8
1
 10
  16.97
 20
  32.41
  0
VERTEX
  8
1
 10
  15.25
 20
  52.97
  0
VERTEX
  8
1
 10
  13.05
 20
  67.71
  0
VERTEX
  8
1
 10
  10.05
 20
  83.76
  0
VERTEX
  8
1
 10
   3.07
 20
 112.05
  0
VERTEX
  8
1
 10
   0.00
 20
 122.83
  0
VERTEX
  8
1
 10
  11.14
 20
 124.54
  0
VERTEX
  8
1
 10
  18.48
 20
 126.14
  0
VERTEX
  8
1
 10
  28.12
 20
 129.86
  0
VERTEX
  8
1
 10
  34.96
 20
 134.96
  0
VERTEX
  8
1
 10
  40.43
 20
 140.95
  0
VERTEX
  8
1
 10
  46.59
 20
 150.54
  0
VERTEX
  8
1
 10
  49.12
 20
 155.44
  0
VERTEX
  8
1
 10
  56.55
 20
 173.64
  0
VERTEX
  8
1
 10
  70.25
 20
 210.88
  0
VERTEX
  8
1
 10
  73.69
 20
 218.40
  0
VERTEX
  8
1
 10
  78.85
 20
 228.34
  0
VERTEX
  8
1
 10
  96.84
 20
 252.09
  0
VERTEX
  8
1
 10
 115.52
 20
 266.92
  0
VERTEX
  8
1
 10
 129.05
 20
 272.35
  0
VERTEX
  8
1
 10
 144.16
 20
 275.00
  0
VERTEX
  8
1
 10
 145.22
 20
 275.08
  0
VERTEX
  8
1
 10
 145.79
 20
 275.08
  0
VERTEX
  8
1
 10
 170.68
 20
 273.25
  0
VERTEX
  8
1
 10
 194.41
 20
 267.77
  0
VERTEX
  8
1
 10
 213.09
 20
 260.43
  0
VERTEX
  8
1
 10
 231.32
 20
 250.45
  0
VERTEX
  8
1
 10
 246.66
 20
 239.55
  0
VERTEX
  8
1
 10
 261.21
 20
 226.09
  0
VERTEX
  8
1
 10
 277.40
 20
 207.35
  0
VERTEX
  8
1
 10
 284.62
 20
 197.95
  0
VERTEX
  8
1
 10
 287.57
 20
 194.04
  0
VERTEX
  8
1
 10
 290.64
 20
 189.99
  0
VERTEX
  8
1
 10
 293.65
 20
 186.06
  0
VERTEX
  8
1
 10
 303.83
 20
 173.31
  0
VERTEX
  8
1
 10
 315.88
 20
 158.87
  0
VERTEX
  8
1
 10
 327.02
 20
 146.67
  0
VERTEX
  8
1
 10
 336.78
 20
 136.85
  0
VERTEX
  8
1
 10
 346.70
 20
 130.21
  0
VERTEX
  8
1
 10
 361.85
 20
 124.24
  0
VERTEX
  8
1
 10
 371.55
 20
 121.69
  0
VERTEX
  8
1
 10
 368.60
 20
 111.95
  0
VERTEX
  8
1
 10
 361.54
 20
  83.70
  0
VERTEX
  8
1
 10
 359.81
 20
  74.15
  0
VERTEX
  8
1
 10
 358.26
 20
  64.22
  0
VERTEX
  8
1
 10
 355.87
 20
  44.39
  0
VERTEX
  8
1
 10
 354.96
 20
  30.78
  0
VERTEX
  8
1
 10
 354.89
 20
  25.00
  0
VERTEX
  8
1
 10
 354.89
 20
   0.00
  0
VERTEX
  8
1
 10
  17.52
 20
   0.00
  0
VERTEX
  8
1
 10
  17.52
 20
  25.00
  0
SEQEND
  8
1
  0
TEXT
  8
2
 10
  17.52
 20
   0.00
 40
  10.00
  1
#-524
  0
TEXT
  8
2
 10
 354.89
 20
   0.00
 40
  10.00
  1
#-525
  0
TEXT
  8
2
 10
 354.89
 20
  25.00
 40
  10.00
  1
#-526
  0
TEXT
  8
2
 10
 371.55
 20
 121.69
 40
  10.00
  1
#-527
  0
TEXT
  8
3
 10
 290.64
 20
 189.99
 40
  10.00
  1
#-528
  0
TEXT
  8
3
 10
 284.62
 20
 197.95
 40
  10.00
  1
#-529
  0
TEXT
  8
3
 10
 231.32
 20
 250.45
 40
  10.00
  1
#-530
  0
TEXT
  8
2
 10
 145.22
 20
 275.08
 40
  10.00
  1
#-531
  0
TEXT
  8
3
 10
  73.69
 20
 218.40
 40
  10.00
  1
#-532
  0
TEXT
  8
3
 10
  46.59
 20
 150.54
 40
  10.00
  1
#-533
  0
TEXT
  8
2
 10
   0.00
 20
 122.83
 40
  10.00
  1
#-534
  0
TEXT
  8
2
 10
  17.52
 20
  25.00
 40
  10.00
  1
#-535
  0
POINT
  8
3
 10
  16.97
 20
  32.41
  0
POINT
  8
3
 10
  15.25
 20
  52.97
  0
POINT
  8
3
 10
  13.05
 20
  67.71
  0
POINT
  8
3
 10
  10.05
 20
  83.76
  0
POINT
  8
3
 10
   3.07
 20
 112.05
  0
POINT
  8
3
 10
  11.14
 20
 124.54
  0
POINT
  8
3
 10
  18.48
 20
 126.14
  0
POINT
  8
3
 10
  28.12
 20
 129.86
  0
POINT
  8
3
 10
  34.96
 20
 134.96
  0
POINT
  8
3
 10
  40.43
 20
 140.95
  0
POINT
  8
3
 10
  46.59
 20
 150.54
  0
POINT
  8
3
 10
  49.12
 20
 155.44
  0
POINT
  8
3
 10
  56.55
 20
 173.64
  0
POINT
  8
3
 10
  70.25
 20
 210.88
  0
POINT
  8
3
 10
  73.69
 20
 218.40
  0
POINT
  8
3
 10
  78.85
 20
 228.34
  0
POINT
  8
3
 10
  96.84
 20
 252.09
  0
POINT
  8
3
 10
 115.52
 20
 266.92
  0
POINT
  8
3
 10
 129.05
 20
 272.35
  0
POINT
  8
3
 10
 144.16
 20
 275.00
  0
POINT
  8
3
 10
 145.79
 20
 275.08
  0
POINT
  8
3
 10
 170.68
 20
 273.25
  0
POINT
  8
3
 10
 194.41
 20
 267.77
  0
POINT
  8
3
 10
 213.09
 20
 260.43
  0
POINT
  8
3
 10
 231.32
 20
 250.45
  0
POINT
  8
3
 10
 246.66
 20
 239.55
  0
POINT
  8
3
 10
 261.21
 20
 226.09
  0
POINT
  8
3
 10
 277.40
 20
 207.35
  0
POINT
  8
3
 10
 284.62
 20
 197.95
  0
POINT
  8
3
 10
 287.57
 20
 194.04
  0
POINT
  8
3
 10
 290.64
 20
 189.99
  0
POINT
  8
3
 10
 293.65
 20
 186.06
  0
POINT
  8
3
 10
 303.83
 20
 173.31
  0
POINT
  8
3
 10
 315.88
 20
 158.87
  0
POINT
  8
3
 10
 327.02
 20
 146.67
  0
POINT
  8
3
 10
 336.78
 20
 136.85
  0
POINT
  8
3
 10
 346.70
 20
 130.21
  0
POINT
  8
3
 10
 361.85
 20
 124.24
  0
POINT
  8
3
 10
 368.60
 20
 111.95
  0
POINT
  8
3
 10
 361.54
 20
  83.70
  0
POINT
  8
3
 10
 359.81
 20
  74.15
  0
POINT
  8
3
 10
 358.26
 20
  64.22
  0
POINT
  8
3
 10
 355.87
 20
  44.39
  0
POINT
  8
3
 10
 354.96
 20
  30.78
  0
POINT
  8
2
 10
   0.00
 20
 122.83
  0
POINT
  8
2
 10
  17.52
 20
  25.00
  0
POINT
  8
2
 10
   0.00
 20
 122.83
  0
POINT
  8
2
 10
 145.22
 20
 275.08
  0
POINT
  8
2
 10
   0.00
 20
 122.83
  0
POINT
  8
2
 10
 145.22
 20
 275.08
  0
POINT
  8
2
 10
 371.55
 20
 121.69
  0
POINT
  8
2
 10
 145.22
 20
 275.08
  0
POINT
  8
2
 10
 371.55
 20
 121.69
  0
POINT
  8
2
 10
 354.89
 20
  25.00
  0
POINT
  8
2
 10
 371.55
 20
 121.69
  0
POINT
  8
2
 10
 354.89
 20
  25.00
  0
POINT
  8
2
 10
 354.89
 20
   0.00
  0
POINT
  8
2
 10
 354.89
 20
  25.00
  0
POINT
  8
2
 10
 354.89
 20
   0.00
  0
POINT
  8
2
 10
  17.52
 20
   0.00
  0
POINT
  8
2
 10
  17.52
 20
  25.00
  0
POLYLINE
  8
14
 66
  1
 70
  1
  0
VERTEX
  8
14
 10
  27.55
 20
  25.00
  0
VERTEX
  8
14
 10
  26.96
 20
  32.86
  0
VERTEX
  8
14
 10
  25.19
 20
  54.11
  0
VERTEX
  8
14
 10
  22.91
 20
  69.39
  0
VERTEX
  8
14
 10
  19.82
 20
  85.87
  0
VERTEX
  8
14
 10
  12.72
 20
 114.67
  0
VERTEX
  8
14
 10
  21.07
 20
 116.49
  0
VERTEX
  8
14
 10
  32.94
 20
 121.07
  0
VERTEX
  8
14
 10
  41.78
 20
 127.65
  0
VERTEX
  8
14
 10
  48.43
 20
 134.93
  0
VERTEX
  8
14
 10
  55.32
 20
 145.68
  0
VERTEX
  8
14
 10
  58.22
 20
 151.30
  0
VERTEX
  8
14
 10
  65.88
 20
 170.06
  0
VERTEX
  8
14
 10
  79.51
 20
 207.09
  0
VERTEX
  8
14
 10
  82.69
 20
 214.07
  0
VERTEX
  8
14
 10
  87.42
 20
 223.19
  0
VERTEX
  8
14
 10
 104.20
 20
 245.34
  0
VERTEX
  8
14
 10
 120.07
 20
 257.94
  0
VERTEX
  8
14
 10
 132.08
 20
 262.79
  0
VERTEX
  8
14
 10
 145.40
 20
 265.09
  0
VERTEX
  8
14
 10
 169.00
 20
 263.37
  0
VERTEX
  8
14
 10
 191.52
 20
 258.16
  0
VERTEX
  8
14
 10
 209.05
 20
 251.28
  0
VERTEX
  8
14
 10
 226.00
 20
 242.00
  0
VERTEX
  8
14
 10
 240.07
 20
 232.02
  0
VERTEX
  8
14
 10
 254.05
 20
 219.12
  0
VERTEX
  8
14
 10
 269.67
 20
 201.01
  0
VERTEX
  8
14
 10
 276.65
 20
 191.91
  0
VERTEX
  8
14
 10
 279.60
 20
 188.00
  0
VERTEX
  8
14
 10
 282.68
 20
 183.93
  0
VERTEX
  8
14
 10
 285.76
 20
 179.91
  0
VERTEX
  8
14
 10
 296.06
 20
 167.03
  0
VERTEX
  8
14
 10
 308.33
 20
 152.31
  0
VERTEX
  8
14
 10
 319.40
 20
 140.20
  0
VERTEX
  8
14
 10
 330.30
 20
 129.21
  0
VERTEX
  8
14
 10
 342.12
 20
 121.31
  0
VERTEX
  8
14
 10
 358.97
 20
 114.67
  0
VERTEX
  8
14
 10
 351.75
 20
  85.78
  0
VERTEX
  8
14
 10
 349.94
 20
  75.72
  0
VERTEX
  8
14
 10
 348.36
 20
  65.63
  0
VERTEX
  8
14
 10
 345.92
 20
  45.34
  0
VERTEX
  8
14
 10
 344.97
 20
  31.15
  0
VERTEX
  8
14
 10
 344.89
 20
  25.00
  0
VERTEX
  8
14
 10
  27.55
 20
  25.00
  0
SEQEND
  8
14
  0
TEXT
  8
2
 10
 344.89
 20
  25.00
 40
  10.00
  1
#-536
  0
TEXT
  8
2
 10
 358.97
 20
 114.67
 40
  10.00
  1
#-537
  0
TEXT
  8
3
 10
 282.68
 20
 183.93
 40
  10.00
  1
#-538
  0
TEXT
  8
3
 10
 276.65
 20
 191.91
 40
  10.00
  1
#-539
  0
TEXT
  8
3
 10
 226.00
 20
 242.00
 40
  10.00
  1
#-540
  0
TEXT
  8
2
 10
 145.40
 20
 265.09
 40
  10.00
  1
#-541
  0
TEXT
  8
3
 10
  82.69
 20
 214.07
 40
  10.00
  1
#-542
  0
TEXT
  8
3
 10
  55.32
 20
 145.68
 40
  10.00
  1
#-543
  0
TEXT
  8
2
 10
  12.72
 20
 114.67
 40
  10.00
  1
#-544
  0
TEXT
  8
2
 10
  27.55
 20
  25.00
 40
  10.00
  1
#-545
  0
POINT
  8
3
 10
  26.96
 20
  32.86
  0
POINT
  8
3
 10
  25.19
 20
  54.11
  0
POINT
  8
3
 10
  22.91
 20
  69.39
  0
POINT
  8
3
 10
  19.82
 20
  85.87
  0
POINT
  8
3
 10
  21.07
 20
 116.49
  0
POINT
  8
3
 10
  32.94
 20
 121.07
  0
POINT
  8
3
 10
  41.78
 20
 127.65
  0
POINT
  8
3
 10
  48.43
 20
 134.93
  0
POINT
  8
3
 10
  55.32
 20
 145.68
  0
POINT
  8
3
 10
  58.22
 20
 151.30
  0
POINT
  8
3
 10
  65.88
 20
 170.06
  0
POINT
  8
3
 10
  79.51
 20
 207.09
  0
POINT
  8
3
 10
  82.69
 20
 214.07
  0
POINT
  8
3
 10
  87.42
 20
 223.19
  0
POINT
  8
3
 10
 104.20
 20
 245.34
  0
POINT
  8
3
 10
 120.07
 20
 257.94
  0
POINT
  8
3
 10
 132.08
 20
 262.79
  0
POINT
  8
3
 10
 169.00
 20
 263.37
  0
POINT
  8
3
 10
 191.52
 20
 258.16
  0
POINT
  8
3
 10
 209.05
 20
 251.28
  0
POINT
  8
3
 10
 226.00
 20
 242.00
  0
POINT
  8
3
 10
 240.07
 20
 232.02
  0
POINT
  8
3
 10
 254.05
 20
 219.12
  0
POINT
  8
3
 10
 269.67
 20
 201.01
  0
POINT
  8
3
 10
 276.65
 20
 191.91
  0
POINT
  8
3
 10
 279.60
 20
 188.00
  0
POINT
  8
3
 10
 282.68
 20
 183.93
  0
POINT
  8
3
 10
 285.76
 20
 179.91
  0
POINT
  8
3
 10
 296.06
 20
 167.03
  0
POINT
  8
3
 10
 308.33
 20
 152.31
  0
POINT
  8
3
 10
 319.40
 20
 140.20
  0
POINT
  8
3
 10
 330.30
 20
 129.21
  0
POINT
  8
3
 10
 342.12
 20
 121.31
  0
POINT
  8
3
 10
 351.75
 20
  85.78
  0
POINT
  8
3
 10
 349.94
 20
  75.72
  0
POINT
  8
3
 10
 348.36
 20
  65.63
  0
POINT
  8
3
 10
 345.92
 20
  45.34
  0
POINT
  8
3
 10
 344.97
 20
  31.15
  0
POINT
  8
2
 10
  12.72
 20
 114.67
  0
POINT
  8
2
 10
  27.55
 20
  25.00
  0
POINT
  8
2
 10
  12.72
 20
 114.67
  0
POINT
  8
2
 10
 145.40
 20
 265.09
  0
POINT
  8
2
 10
  12.72
 20
 114.67
  0
POINT
  8
2
 10
 145.40
 20
 265.09
  0
POINT
  8
2
 10
 358.97
 20
 114.67
  0
POINT
  8
2
 10
 145.40
 20
 265.09
  0
POINT
  8
2
 10
 358.97
 20
 114.67
  0
POINT
  8
2
 10
 344.89
 20
  25.00
  0
POINT
  8
2
 10
 358.97
 20
 114.67
  0
POINT
  8
2
 10
 344.89
 20
  25.00
  0
POINT
  8
2
 10
  27.55
 20
  25.00
  0
LINE
  8
7
 10
 145.40
 20
  25.00
 11
 145.40
 21
 265.09
  0
TEXT
  8
2
 10
 145.40
 20
 265.09
 40
  10.00
  1
#-546
  0
TEXT
  8
2
 10
 145.40
 20
  25.00
 40
  10.00
  1
#-547
  0
LINE
  8
8
 10
 145.40
 20
 265.09
 11
 145.40
 21
  25.00
  0
TEXT
  8
2
 10
 145.40
 20
  25.00
 40
  10.00
  1
#-548
  0
TEXT
  8
2
 10
 145.40
 20
 265.09
 40
  10.00
  1
#-549
  0
LINE
  8
8
 10
  12.72
 20
 114.67
 11
 358.97
 21
 114.67
  0
TEXT
  8
2
 10
 358.97
 20
 114.67
 40
  10.00
  1
#-550
  0
TEXT
  8
2
 10
  12.72
 20
 114.67
 40
  10.00
  1
#-551
  0
POINT
  8
4
 10
  55.32
 20
 145.68
 30
   4.00
 50
 -29.11
  0
TEXT
  8
4
 10
  55.32
 20
 145.68
 40
  10.00
  1
#-543
  0
POINT
  8
4
 10
  82.69
 20
 214.07
 30
   4.00
 50
 -25.74
  0
TEXT
  8
4
 10
  82.69
 20
 214.07
 40
  10.00
  1
#-542
  0
POINT
  8
4
 10
 276.65
 20
 191.91
 30
   4.00
 50
-142.90
  0
TEXT
  8
4
 10
 276.65
 20
 191.91
 40
  10.00
  1
#-539
  0
POINT
  8
4
 10
 282.68
 20
 183.93
 30
   4.00
 50
-142.75
  0
TEXT
  8
4
 10
 282.68
 20
 183.93
 40
  10.00
  1
#-538
  0
POINT
  8
4
 10
 145.22
 20
 275.08
 30
   4.00
 50
 -89.76
  0
TEXT
  8
4
 10
 145.22
 20
 275.08
 40
  10.00
  1
#-531
  0
POINT
  8
4
 10
  73.69
 20
 218.40
 30
   4.00
 50
 -25.81
  0
TEXT
  8
4
 10
  73.69
 20
 218.40
 40
  10.00
  1
#-532
  0
POINT
  8
4
 10
  46.59
 20
 150.54
 30
   4.00
 50
 -29.14
  0
TEXT
  8
4
 10
  46.59
 20
 150.54
 40
  10.00
  1
#-533
  0
POINT
  8
4
 10
 290.64
 20
 189.99
 30
   4.00
 50
-142.74
  0
TEXT
  8
4
 10
 290.64
 20
 189.99
 40
  10.00
  1
#-528
  0
POINT
  8
4
 10
 145.40
 20
 265.09
 30
   4.00
 50
 -89.81
  0
TEXT
  8
4
 10
 145.40
 20
 265.09
 40
  10.00
  1
#-541
  0
POINT
  8
4
 10
 226.00
 20
 242.00
 30
   4.00
 50
-122.19
  0
TEXT
  8
4
 10
 226.00
 20
 242.00
 40
  10.00
  1
#-540
  0
POINT
  8
4
 10
 354.89
 20
  25.00
 30
   4.00
 50
 180.00
  0
TEXT
  8
4
 10
 354.89
 20
  25.00
 40
  10.00
  1
#-526
  0
POINT
  8
4
 10
  17.52
 20
  25.00
 30
   4.00
 50
   0.00
  0
TEXT
  8
4
 10
  17.52
 20
  25.00
 40
  10.00
  1
#-535
  0
POINT
  8
4
 10
 284.62
 20
 197.95
 30
   4.00
 50
-142.77
  0
TEXT
  8
4
 10
 284.62
 20
 197.95
 40
  10.00
  1
#-529
  0
POINT
  8
4
 10
 231.32
 20
 250.45
 30
   4.00
 50
-122.15
  0
TEXT
  8
4
 10
 231.32
 20
 250.45
 40
  10.00
  1
#-530
  0
TEXT
  8
1
 10
 185.77
 20
 156.29
 40
  10.00
  1
Piece Name: 14-----FF-BL-------S1A
  0
TEXT
  8
1
 10
 185.77
 20
 143.79
 40
  10.00
  1
Size: 38
  0
TEXT
  8
1
 10
 185.77
 20
 131.29
 40
  10.00
  1
Annotation: -----FF-BL-------S1AE--022X-02
  0
TEXT
  8
1
 10
 185.77
 20
 118.79
 40
  10.00
  1
Quantity: 1
  0
TEXT
  8
1
 10
 185.77
 20
 106.29
 40
  10.00
  1
Category: 
  0
ENDBLK
  8
1
  0
ENDSEC
  0
SECTION
  2
ENTITIES
  0
INSERT
  8
1
  2
Piece01
 10
2075.45
 20
-2008.88
  0
INSERT
  8
1
  2
Piece02
 10
 595.39
 20
-1114.92
  0
INSERT
  8
1
  2
Piece03
 10
 423.68
 20
-1945.72
  0
INSERT
  8
1
  2
Piece04
 10
 630.67
 20
-1006.55
  0
INSERT
  8
1
  2
Piece05
 10
1283.34
 20
-1986.67
  0
INSERT
  8
1
  2
Piece06
 10
2014.86
 20
-1847.62
  0
INSERT
  8
1
  2
Piece07
 10
 630.41
 20
-896.57
  0
INSERT
  8
1
  2
Piece08
 10
2815.23
 20
-1855.74
  0
INSERT
  8
1
  2
Piece09
 10
2912.64
 20
-1484.55
  0
INSERT
  8
1
  2
Piece10
 10
 810.96
 20
-1957.44
  0
INSERT
  8
1
  2
Piece11
 10
2772.12
 20
-1847.40
  0
INSERT
  8
1
  2
Piece12
 10
2908.21
 20
-1356.24
  0
INSERT
  8
1
  2
Piece13
 10
1962.25
 20
-1355.11
  0
INSERT
  8
1
  2
Piece14
 10
2034.54
 20
-982.94
  0
TEXT
  8
1
 10
 423.68
 20
-1933.88
 40
  10.00
  1
Style Name: HOH_BL_L_PROD_MN_AAMA
  0
TEXT
  8
1
 10
 423.68
 20
-1946.38
 40
  10.00
  1
Creation Date: 26-06-2023
  0
TEXT
  8
1
 10
 423.68
 20
-1958.88
 40
  10.00
  1
Creation Time: 16:07
  0
TEXT
  8
1
 10
 423.68
 20
-1971.38
 40
  10.00
  1
Author: assyst GmbH;cad.assyst;20.20
  0
TEXT
  8
1
 10
 423.68
 20
-1983.88
 40
  10.00
  1
Sample Size: 38
  0
TEXT
  8
1
 10
 423.68
 20
-1996.38
 40
  10.00
  1
Grade Rule Table: HOH_BL_L_PROD_MN_AAMA
  0
TEXT
  8
1
 10
 423.68
 20
-2008.88
 40
  10.00
  1
Units: METRIC
  0
TEXT
  8
1
 10
 423.68
 20
-2021.38
 40
  10.00
  1
Standard Version: ANSI/AAMA-292-B
  0
ENDSEC
  0
EOF
